<?xml version="1.0" encoding="UTF-8" standalone="no"?>
<!DOCTYPE svg  PUBLIC '-//W3C//DTD SVG 1.1//EN'  'http://www.w3.org/Graphics/SVG/1.1/DTD/svg11.dtd'>
<svg xmlns="http://www.w3.org/2000/svg">
<defs>
<font id="SabonLTStd-Italic" horiz-adv-x="556">
<font-face slope="-12" underline-position="-50" font-weight="400" descent="-200" panose-1="2 2 5 2 5 5 6 9 3 3" units-per-em="1000" unicode-range="U+0020-25CA" bbox="-146 -228 1059 927" x-height="457" underline-thickness="50" font-family="SabonLTStd" ascent="800" font-style="italic" cap-height="698"/>
<missing-glyph horiz-adv-x="1000"/>
<glyph glyph-name=".notdef" horiz-adv-x="1000"/>
<glyph glyph-name=".null" horiz-adv-x="0"/>
<glyph glyph-name="nonmarkingreturn" horiz-adv-x="333"/>
<glyph glyph-name="space" horiz-adv-x="278" unicode=" "/>
<glyph glyph-name="exclam" horiz-adv-x="333" unicode="!" d="M121 -15q-27 0 -46.5 19t-19.5 46q0 26 20 46.5t46 20.5t46 -20t20 -47t-19.5 -46t-46.5 -19zM153 188h-20l38 305q19 178 87 178q22 0 33 -15t11 -38q0 -41 -33 -130z"/>
<glyph glyph-name="quotedbl" d="M427 638l-17 -150q-3 -23 -18 -23t-18 23l-17 150q-2 8 -2 17q0 43 37 43t37 -43q0 -9 -2 -17zM300 638l-17 -150q-3 -23 -18 -23t-18 23l-17 150q-2 8 -2 17q0 43 37 43t37 -43q0 -9 -2 -17z" unicode='&quot;'/>
<glyph glyph-name="numbersign" d="M377 418h-130l-21 -146h130zM521 272l-7 -54h-104l-31 -218h-62l31 218h-129l-31 -218h-62l31 218h-104l8 54h104l21 146h-105l8 54h104l31 218h61l-31 -218h130l31 218h61l-31 -218h104l-7 -54h-104l-21 -146h104z" unicode="#"/>
<glyph glyph-name="dollar" d="M45 -7l26 210h20q2 -41 6.5 -67t17 -55.5t37.5 -47t64 -22.5l53 303q-30 30 -46 48.5t-37 47t-30.5 57t-9.5 59.5q0 87 54 138q53 49 123 49h13h3l13 75h30l-13 -75q32 -3 60 -13q35 -11 41 -11t15.5 5t11.5 5h10l-33 -177h-20v32q0 23 -2.5 39.5t-11 36t-28 32 t-49.5 17.5l-47 -265q7 -8 31.5 -34t35 -38t27 -33t26.5 -38.5t15 -35.5q8 -24 8 -55q0 -87 -64.5 -141t-153.5 -54l-13 -74h-31l14 77q-39 5 -110 33l-44 -28h-12zM291 441l43 240q-51 0 -82.5 -27.5t-31.5 -77.5q0 -57 71 -135zM294 286l-48 -275q53 5 90 40t37 88 q0 62 -79 147z" unicode="$"/>
<glyph glyph-name="percent" horiz-adv-x="1000" unicode="%" d="M241 -23l448 736h47l-447 -736h-48zM170 494q0 -39 15.5 -69t50.5 -30h3h2q36 0 63 33t38.5 72.5t11.5 74.5q0 104 -65 104h-3h-2q-37 0 -64.5 -34t-38.5 -74.5t-11 -76.5zM96 521q0 75 58 129.5t133 54.5q66 0 103.5 -42.5t37.5 -109.5q0 -75 -57 -129.5t-131 -54.5 q-62 0 -103 44.5t-41 107.5zM624 110q0 -39 15.5 -69t50.5 -30h3h2q36 0 63 33t38.5 72.5t11.5 74.5q0 104 -65 104h-3h-2q-37 0 -64.5 -34t-38.5 -74.5t-11 -76.5zM550 137q0 75 58 129.5t133 54.5q66 0 103.5 -42.5t37.5 -109.5q0 -75 -57 -129.5t-131 -54.5 q-62 0 -103 44.5t-41 107.5z"/>
<glyph glyph-name="ampersand" horiz-adv-x="944" unicode="&amp;" d="M298 484q-60 0 -103 -65t-43 -138q0 -27 4 -40q41 55 86 102l94 99q5 5 5 11q0 12 -14 21.5t-29 9.5zM594 304q0 -19 -15.5 -28t-34.5 -9q-21 0 -42 19t-21 57q0 58 58.5 109t117.5 51q36 0 66.5 -19.5t47.5 -43t39 -43t43 -19.5q15 0 24.5 11.5t9.5 26.5q0 8 -14 26.5 t-14 34.5q0 12 10 21t23 9q20 0 31 -15.5t11 -36.5q0 -47 -44 -85.5t-91 -38.5q-37 0 -88 56q-4 -131 -49 -212q-108 -190 -318 -190q-108 0 -179.5 71t-71.5 185q0 99 83 198t180 99q41 0 64 -23q7 8 39 39t53.5 58.5t21.5 47.5q0 8 -4.5 25t-4.5 21q0 17 11.5 26.5 t28.5 9.5q35 0 35 -45q0 -43 -92 -132l-207 -197l-39 -39l-48 -57q-37 -46 -37 -81q0 -31 37 -72q24 -28 66 -44t82 -16q76 0 141 33.5t106 80.5q68 77 76 234q-4 15 -34.5 28.5t-52.5 13.5q-27 0 -48.5 -19t-21.5 -45q0 -23 10.5 -34t22.5 -11.5t22.5 -8.5t10.5 -27z"/>
<glyph glyph-name="quotesingle" horiz-adv-x="278" unicode="&apos;" d="M226 638l-17 -150q-3 -23 -18 -23t-18 23l-17 150q-2 8 -2 17q0 43 37 43t37 -43q0 -9 -2 -17z"/>
<glyph glyph-name="parenleft" horiz-adv-x="333" unicode="(" d="M353 713l21 -11q-115 -187 -168 -324t-53 -311q0 -118 34 -248l-25 -12q-75 148 -75 287q0 88 20 171.5t60 162t82 142t104 143.5z"/>
<glyph glyph-name="parenright" horiz-adv-x="333" unicode=")" d="M-10 -193l-21 11q115 187 168 324t53 311q0 118 -34 248l25 12q75 -148 75 -287q0 -88 -20 -171.5t-60 -162t-82 -142t-104 -143.5z"/>
<glyph glyph-name="asterisk" d="M376 698h2q15 0 29 -10t14 -25q0 -8 -5 -19.5t-14.5 -25.5t-16.5 -22.5t-18.5 -23t-12.5 -15.5q-6 6 -18 6q3 43 3 87q0 22 9.5 35t27.5 13zM201 645q14 16 30 16q9 0 20 -8q10 -8 20.5 -21t15.5 -20t17.5 -27.5t14.5 -24.5q-3 0 -7 -5.5t-5 -8.5q-9 3 -27.5 9.5 t-29 10.5t-24.5 11.5t-23 15.5q-10 8 -12 22q0 15 10 30zM360 366q-35 0 -35 37q0 33 2 101q2 -1 5 -1q4 0 12 5q61 -84 61 -105q0 -16 -14.5 -26.5t-30.5 -10.5zM180 472q0 8 8 16t19 13t27.5 10t28 8t25.5 6t16 3q0 -11 10 -16q-2 -3 -13 -17t-19 -23.5t-20 -21.5 t-23 -18.5t-20 -6.5q-17 0 -28 14.5t-11 32.5zM503 529q0 -38 -33 -38q-27 0 -110 29q2 3 2 9q0 3 -2 9q5 2 26 9.5t30.5 10.5t25 6.5t28.5 3.5q14 0 23.5 -11t9.5 -28z" unicode="*"/>
<glyph glyph-name="plus" d="M245 254v188h66v-188h188v-66h-188v-188h-66v188h-188v66h188z" unicode="+"/>
<glyph glyph-name="comma" horiz-adv-x="278" unicode="," d="M0 -140l-7 20q134 18 134 101q0 13 -7 18q-5 2 -24.5 8t-31.5 18q-12 13 -12 34q0 58 65 58q37 0 56.5 -28t19.5 -67q0 -71 -57.5 -116.5t-129.5 -45.5h-6z"/>
<glyph glyph-name="hyphen" horiz-adv-x="333" unicode="-" d="M39 206l18 66h236l-16 -66h-238z"/>
<glyph glyph-name="period" horiz-adv-x="278" unicode="." d="M116 -15q-27 0 -46.5 19t-19.5 46q0 26 20 46.5t46 20.5t46 -20t20 -47t-19.5 -46t-46.5 -19z"/>
<glyph glyph-name="slash" horiz-adv-x="278" unicode="/" d="M50 -15h-66l297 728h66z"/>
<glyph glyph-name="zero" d="M139 199q0 -188 105 -188q50 0 91.5 54.5t64.5 131t35.5 145.5t12.5 112q0 34 -1 55.5t-6 56t-15 55t-30 36.5t-49 16q-44 0 -81 -39t-60 -96.5t-38.5 -125.5t-22 -122t-6.5 -91zM59 262q0 59 20.5 134t56 144.5t92 117t119.5 47.5q93 0 137 -81.5t44 -208.5 q0 -46 -11.5 -102t-36 -114t-58 -105.5t-82.5 -78t-105 -30.5q-49 0 -85 27t-55 71t-27.5 89t-8.5 90z" unicode="0"/>
<glyph glyph-name="one" d="M301 615l-160 -81l-13 24l266 147l10 -5l-105 -594q-6 -36 -6 -51q0 -19 17 -24.5t58 -5.5h41l-5 -25q-27 0 -80.5 1t-80.5 1q-54 0 -164 -2l5 25h32q32 0 45 1.5t24.5 10.5t15.5 28z" unicode="1"/>
<glyph glyph-name="two" d="M119 80h310l32 58l22 -6l-39 -132q-132 2 -199 2q-73 0 -225 -2l3 35l141 133q211 204 211 350q0 54 -28 90.5t-81 36.5q-10 0 -19.5 -1.5t-17 -3t-17 -5.5t-14.5 -6t-14.5 -9t-13 -9.5t-14 -11t-12.5 -11t-13.5 -13t-13.5 -12.5l-16 23q36 38 61 59.5t64.5 40.5t81.5 19 q71 0 115 -42t44 -114q0 -53 -23.5 -106.5t-66.5 -105.5t-82.5 -91.5t-95.5 -90t-80 -75.5z" unicode="2"/>
<glyph glyph-name="three" d="M184 349l5 27q70 5 130.5 49t60.5 110q0 55 -26.5 89t-79.5 34q-13 0 -25 -3t-20.5 -5.5t-21.5 -10.5t-18.5 -11.5t-19.5 -14.5t-19 -14l-16 18q38 31 59 46.5t56 28.5t73 13q60 0 102 -35.5t42 -95.5q0 -75 -46.5 -119t-127.5 -77v-2q70 -9 111 -49t41 -110 q0 -93 -78.5 -162.5t-188.5 -69.5q-50 0 -80 7.5t-69 33.5l-11 51l42 13q33 -79 119 -79q77 0 125.5 60t48.5 136q0 63 -33 103t-93 40h-21z" unicode="3"/>
<glyph glyph-name="four" d="M325 297l54 296h-2l-273 -296h221zM270 0l43 231h-288l3 35l409 439h45l-76 -408h110l-13 -66h-109l-42 -231h-82z" unicode="4"/>
<glyph glyph-name="five" d="M499 610h-221l-43 -107q191 -123 191 -275q0 -102 -67 -172.5t-170 -70.5q-100 0 -147 47l-10 43l43 15q25 -43 53 -61t75 -18q66 0 104.5 53t38.5 121q0 153 -175 249l104 256h252z" unicode="5"/>
<glyph glyph-name="six" d="M201 307l11 38q66 41 134 41q60 0 104.5 -47.5t44.5 -120.5q0 -94 -67 -163.5t-162 -69.5t-146.5 64.5t-51.5 155.5q0 86 40.5 169.5t106 147t147.5 108.5t165 60l8 -23q-100 -21 -180.5 -84.5t-130.5 -154.5q-70 -131 -70 -251q0 -39 8.5 -73.5t36.5 -63.5t73 -29 q68 0 102.5 58t34.5 130q0 61 -31 100.5t-90 39.5q-46 0 -87 -32z" unicode="6"/>
<glyph glyph-name="seven" d="M84 567l34 123h451v-8l-426 -704l-40 22l373 610h-343l-24 -43h-25z" unicode="7"/>
<glyph glyph-name="eight" d="M220 554q0 -32 20.5 -69.5t38 -58t50.5 -54.5q113 78 113 181q0 55 -28.5 87.5t-81.5 32.5q-46 0 -79 -36t-33 -83zM132 130q0 -50 31 -81.5t82 -31.5q56 0 90.5 34t34.5 94q0 31 -18.5 65t-37 54.5t-51.5 53.5q-62 -36 -96.5 -80.5t-34.5 -107.5zM66 131q0 40 14.5 73 t43 57.5t56 40.5t67.5 34q-101 88 -101 186q0 75 53 129t137 54q68 0 120 -39.5t52 -105.5q0 -69 -44.5 -116t-117.5 -84q29 -27 42.5 -41t30.5 -38t24 -50t7 -59q0 -87 -61 -137t-152 -50q-66 0 -118.5 40.5t-52.5 105.5z" unicode="8"/>
<glyph glyph-name="nine" d="M377 383l-11 -38q-66 -41 -134 -41q-60 0 -104.5 47.5t-44.5 120.5q0 94 67 163.5t162 69.5t146.5 -64.5t51.5 -155.5q0 -86 -40.5 -169.5t-106 -147t-147.5 -108.5t-165 -60l-8 23q100 21 180.5 84.5t130.5 154.5q70 131 70 251q0 39 -8.5 73.5t-36.5 63.5t-73 29 q-68 0 -102.5 -58t-34.5 -130q0 -61 31 -100.5t90 -39.5q46 0 87 32z" unicode="9"/>
<glyph glyph-name="colon" horiz-adv-x="278" unicode=":" d="M116 -15q-27 0 -46.5 19t-19.5 46q0 26 20 46.5t46 20.5t46 -20t20 -47t-19.5 -46t-46.5 -19zM170 279q-27 0 -46.5 19t-19.5 46q0 26 20 46.5t46 20.5t46 -20t20 -47t-19.5 -46t-46.5 -19z"/>
<glyph glyph-name="semicolon" horiz-adv-x="278" unicode=";" d="M170 279q-27 0 -46.5 19t-19.5 46q0 26 20 46.5t46 20.5t46 -20t20 -47t-19.5 -46t-46.5 -19zM0 -140l-7 20q134 18 134 101q0 13 -7 18q-5 2 -24.5 8t-31.5 18q-12 13 -12 34q0 58 65 58q37 0 56.5 -28t19.5 -67q0 -71 -57.5 -116.5t-129.5 -45.5h-6z"/>
<glyph glyph-name="less" d="M499 66v-71l-442 193v66l442 193v-71l-366 -155z" unicode="&lt;"/>
<glyph glyph-name="equal" d="M499 154v-66h-442v66h442zM499 354v-66h-442v66h442z" unicode="="/>
<glyph glyph-name="greater" d="M57 66l366 155l-366 155v71l442 -193v-66l-442 -193v71z" unicode="&gt;"/>
<glyph glyph-name="question" horiz-adv-x="444" unicode="?" d="M155 -15q-27 0 -46.5 19t-19.5 46q0 26 20 46.5t46 20.5t46 -20t20 -47t-19.5 -46t-46.5 -19zM216 627q-14 0 -22.5 9t-8.5 23q0 39 62 39q64 0 113 -45t49 -108q0 -53 -27 -87.5t-59.5 -46t-77.5 -24.5t-63 -23q-37 -22 -37 -64q0 -31 25 -46.5t49 -15.5q9 0 19.5 2.5 t14.5 2.5q22 0 22 -25q0 -40 -33 -40q-34 0 -76 37q-20 18 -41 59t-21 66q0 50 27 79t66 40.5t78 21.5t66 31.5t27 60.5q0 33 -18 51t-51 18q-19 0 -45.5 -7.5t-37.5 -7.5z"/>
<glyph glyph-name="at" horiz-adv-x="800" unicode="@" d="M657 77l13 -32q-130 -60 -220 -60q-98 0 -176.5 34t-124 87.5t-69.5 111.5t-24 113q0 167 112 274.5t271 107.5q146 0 245.5 -89.5t99.5 -223.5q0 -57 -22 -113.5t-68 -98t-105 -41.5q-32 0 -55 16.5t-31.5 33t-7.5 25.5h-2q-15 -22 -48 -47t-73 -26h-3q-15 0 -29 4.5 t-31 17t-27.5 40.5t-10.5 69q0 31 13 72t37 83t65.5 71t91.5 29q23 0 39 -10t20.5 -17.5t15.5 -27.5l10 41h73l-65 -258q-6 -23 -6 -37q0 -47 40 -47q60 0 99.5 71.5t39.5 149.5q0 47 -21 95.5t-58.5 90.5t-97 68.5t-128.5 26.5q-126 0 -211.5 -95.5t-85.5 -264.5 q0 -117 87 -206t220 -89q44 0 83.5 8t63 17t61.5 26zM345 282q0 -86 67 -86q40 0 80.5 60.5t40.5 163.5q0 68 -43 68q-46 0 -95.5 -58.5t-49.5 -147.5z"/>
<glyph glyph-name="A" horiz-adv-x="722" unicode="A" d="M420 601l-161 -298h207l-44 298h-2zM97 93l344 609q24 6 36 11l6 -4l110 -621q9 -62 64 -62h8l-5 -26q-21 0 -63 1t-63 1q-36 0 -108 -2l5 26h15q56 0 56 31q0 1 -0.5 3.5t-0.5 3.5l-30 198h-234l-82 -170q-11 -24 -11 -36q0 -30 43 -30h30l-5 -26q-20 0 -59 1t-59 1 q-30 0 -92 -2l5 26h2q53 0 88 67z"/>
<glyph glyph-name="B" horiz-adv-x="667" unicode="B" d="M123 104l94 524q0 2 0.5 4t0.5 3q0 37 -69 37h-21l4 26q72 -3 144 -3q16 0 48.5 1.5t49.5 1.5q41 0 77 -6.5t71 -22t56 -46.5t21 -74q0 -77 -58.5 -123.5t-137.5 -53.5v-2q177 -18 177 -160q0 -69 -41 -118t-102.5 -70.5t-134.5 -21.5q-24 0 -70 1t-70 1q-47 0 -139 -2 l5 26h16h4q24 0 37 3t21 16t10 22t7 37zM315 664l-54 -279q43 -3 73 -3q68 0 117.5 44.5t49.5 125.5q0 61 -42.5 87.5t-105.5 26.5q-14 0 -38 -2zM255 347l-48 -266q0 -2 -0.5 -4t-0.5 -3q0 -42 94 -42h4q81 0 129.5 53t48.5 135q0 41 -13.5 68t-39.5 40t-54 17.5t-67 4.5 q-26 0 -53 -3z"/>
<glyph glyph-name="C" horiz-adv-x="722" unicode="C" d="M725 679l-33 -176l-20 6q1 8 1 23q0 61 -40 101q-48 48 -131 48q-73 0 -134 -33t-98 -85.5t-57.5 -115.5t-20.5 -126q0 -136 59 -220t171 -84q90 0 145.5 46t94.5 136l22 -5l-40 -170q-12 8 -27 8q-6 0 -17 -3.5t-27.5 -10.5t-23.5 -10q-62 -23 -128 -23 q-146 0 -239.5 92.5t-93.5 243.5q0 162 116.5 277t277.5 115q51 0 89 -7.5t55 -16t31.5 -16t24.5 -7.5q5 0 9.5 2.5t7 4.5t7.5 7t7 6z"/>
<glyph glyph-name="D" horiz-adv-x="833" unicode="D" d="M317 663l-106 -569q-1 -4 -1 -12q0 -17 10.5 -27.5t32 -15t40 -6t47.5 -1.5q151 0 241.5 105t90.5 259q0 91 -43 151.5t-95 84.5q-41 19 -69.5 26.5t-77.5 7.5q-25 0 -70 -3zM122 96l84 455q10 45 10 79q0 22 -16 30.5t-54 11.5h-19l5 26q60 -3 119 -3q21 0 66 1.5 t83 1.5q98 0 155 -20.5t102 -55.5q113 -86 113 -240q0 -172 -117.5 -277t-293.5 -105q-22 0 -66.5 0.5t-66.5 0.5q-34 0 -101.5 -0.5t-101.5 -0.5l5 26h22q36 2 50.5 15t21.5 55z"/>
<glyph glyph-name="E" horiz-adv-x="667" unicode="E" d="M19 0l5 26h14h3q41 0 55.5 16t21.5 51l94 515q2 9 2 25q0 15 -16 27t-49 12h-20l5 26q27 0 112 -2t131 -2t130.5 2t111.5 2l-11 -139h-20v24q0 52 -32 67.5t-122 15.5h-122l-52 -284h130h9q76 0 88 45l13 48h17l-41 -227h-16l3 39v7q0 28 -21 37.5t-69 9.5h-119l-39 -223 q-5 -33 -5 -38q0 -48 57 -48h157q29 0 49.5 2.5t37 10.5t27 16t22 27t18.5 34t20 46h23l-45 -168q-14 0 -142.5 1t-194.5 1q-74 0 -220 -2z"/>
<glyph glyph-name="F" d="M19 0l5 26h12h10q36 0 48 10.5t22 48.5l93 500q4 20 4 39q0 28 -15 38t-47 10h-15h-9l5 26q91 -4 273 -4q27 0 80.5 2t80.5 2l-10 -137h-21q-1 5 -1.5 22t-2 26t-6.5 21.5t-13 19.5q-19 17 -107 17q-12 0 -34.5 -0.5t-33.5 -0.5h-26l-51 -284h130q58 1 75.5 15t32.5 65 l5 16h21l-42 -242h-20q6 51 6 52q0 51 -67 53h-150l-43 -254q-2 -18 -2 -23q0 -23 13 -30.5t54 -7.5h11h17l-5 -26h-39q-25 0 -60.5 0.5t-53.5 0.5q-20 0 -67.5 -0.5t-56.5 -0.5z" unicode="F"/>
<glyph glyph-name="G" horiz-adv-x="833" unicode="G" d="M769 672l-27 -169h-20q0 80 -37 121q-26 28 -71 42.5t-89 14.5q-134 0 -233.5 -111.5t-99.5 -251.5q0 -75 27 -142.5t82.5 -113t128.5 -45.5q64 0 104.5 20t51.5 75l16 101q1 4 1 10q0 18 -14 27t-28 10.5t-37 1.5h-21l5 26q82 -3 166 -3q18 0 53 1.5t52 1.5l-5 -25h-13 q-38 0 -52 -19.5t-23 -63.5l-23 -141q-132 -54 -239 -54q-147 0 -241.5 90.5t-94.5 239.5q0 111 58 203t154.5 143.5t207.5 51.5q98 0 186 -34q30 -11 39 -11q6 0 12.5 4t7.5 4z"/>
<glyph glyph-name="H" horiz-adv-x="833" unicode="H" d="M293 571l-34 -189h373l40 218q3 18 3 30q0 19 -8 29t-16.5 11.5t-25.5 1.5h-34l5 26q72 -3 141 -3q20 0 61 1.5t62 1.5l-5 -26h-18q-44 0 -56.5 -17.5t-24.5 -83.5l-83 -444q-8 -45 -8 -64q0 -22 9 -29.5t32 -7.5h5h37l-5 -26q-22 0 -66.5 1t-66.5 1q-43 0 -129 -2l5 26 h19h4q39 0 50.5 16t21.5 68l42 231h-371l-41 -214q-8 -45 -8 -64q0 -22 9 -29.5t32 -7.5h5h37l-5 -26q-22 0 -66.5 1t-66.5 1q-43 0 -129 -2l5 26h19h4q39 0 50.5 16t21.5 68l90 490q3 18 3 30q0 19 -8 29t-16.5 11.5t-25.5 1.5h-34l5 26q72 -3 141 -3q20 0 61 1.5t62 1.5 l-5 -26h-18q-44 0 -56.5 -17.5t-24.5 -83.5z"/>
<glyph glyph-name="I" horiz-adv-x="389" unicode="I" d="M23 0l5 26h17q41 0 53 12.5t23 58.5l97 529q1 4 1 11q0 35 -55 35h-13h-18l5 26q50 -2 147 -2q19 0 58 1t59 1l-5 -26h-19h-10q-51 0 -60 -43l-98 -533q-3 -18 -3 -30q0 -25 15 -32.5t54 -7.5h15l-5 -26q-22 0 -66.5 1t-66.5 1q-44 0 -130 -2z"/>
<glyph glyph-name="J" horiz-adv-x="389" unicode="J" d="M96 -56l121 634q11 53 11 64q0 30 -46 30h-47l5 26q68 -3 134 -3q21 0 63.5 1.5t64.5 1.5l-5 -26h-26q-29 0 -39 -14t-17 -49l-94 -478q-15 -81 -48 -168t-76 -137q-25 -28 -47 -41t-53 -13q-26 0 -47 15.5t-21 39.5q0 15 11 26t27 11q18 0 27 -9.5t10 -20.5t7 -20.5 t19 -9.5q40 0 66 140z"/>
<glyph glyph-name="K" horiz-adv-x="722" unicode="K" d="M130 672l5 26q46 -2 138 -2q20 0 60.5 1t60.5 1l-5 -26q-79 0 -90 -59l-46 -257h11q15 0 30.5 7.5t22.5 13t24.5 23.5t20.5 21q38 36 115.5 123.5t77.5 104.5q0 23 -31 23h-5h-14l5 26q33 -2 99 -2q18 0 54.5 1t54.5 1l-5 -26q-34 0 -49 -7q-32 -15 -93 -73l-215 -221 l201 -275q17 -23 25.5 -33.5t27.5 -23.5t38 -13h12l-5 -26q-13 0 -40 1t-41 1q-8 0 -22 -1t-22 -1q-11 0 -25 14.5t-42 52.5q-20 27 -79.5 111t-95.5 131q-16 21 -30 21h-11l-36 -197q-9 -61 -9 -73q0 -10 3.5 -16t19.5 -12t45 -6h15l-5 -26q-20 0 -59.5 1t-59.5 1 q-46 0 -138 -2l5 26h4h10h7q32 0 48 18q12 14 24 80l88 479q4 19 4 34q0 21 -13.5 28t-38.5 7h-14h-17z"/>
<glyph glyph-name="L" horiz-adv-x="667" unicode="L" d="M628 174l-54 -174q-204 2 -307 2q-157 0 -235 -2l5 26h26q39 4 53.5 22.5t23.5 69.5l88 498q1 4 1 11q0 46 -72 46q-3 0 -9.5 -0.5t-8.5 -0.5l5 26q25 0 75.5 -1t75.5 -1q21 0 64 1t65 1l-5 -26h-16q-40 0 -56.5 -11.5t-26.5 -53.5l-105 -575h212q136 0 177 142h24z"/>
<glyph glyph-name="M" horiz-adv-x="944" unicode="M" d="M14 0l5 26h11q44 0 62 16.5t34 79.5l124 496q-12 33 -32.5 43t-58.5 11h-13l5 26q31 -2 94 -2q15 0 44 1t43 1l136 -564l288 564q24 -2 72 -2q17 0 51.5 1t50.5 1l-5 -26h-11q-42 0 -58.5 -16t-18.5 -52l-32 -506v-11q0 -34 15.5 -47.5t53.5 -13.5h16l-5 -26q-21 0 -65 1 t-65 1q-48 0 -144 -2l5 26h12q46 0 63.5 13t21.5 57l37 497h-2l-304 -593h-34l-132 558h-2l-109 -464q-5 -25 -5 -29q0 -19 8.5 -29t31.5 -10h40l-5 -26q-15 0 -44 1t-43 1q-46 0 -136 -2z"/>
<glyph glyph-name="N" horiz-adv-x="833" unicode="N" d="M19 0l4 26h14q31 0 46.5 7.5t28.5 37t24 91.5l76 432q1 3 -6.5 15t-21 26.5t-26.5 19.5q-34 17 -56 17h-9l4 26q45 -3 91 -3q11 0 33.5 1.5t33.5 1.5l382 -567l71 417q7 31 7 67q0 25 -11 38t-24.5 16t-37.5 3h-19l4 26q55 -3 111 -3q20 0 59 1.5t59 1.5l-4 -26h-15 q-10 0 -18 -2t-14.5 -4t-12 -8t-9.5 -9.5t-7.5 -12.5t-5.5 -13t-4.5 -16t-3.5 -16.5t-3.5 -18.5t-3.5 -19l-86 -467q34 -56 71 -66l-5 -20q-40 2 -59 2q-20 0 -60 -2l-371 551l-66 -404q-10 -62 -10 -75q0 -46 64 -46h32l-5 -26q-20 0 -60.5 1t-60.5 1q-40 0 -120 -2z"/>
<glyph glyph-name="O" horiz-adv-x="889" unicode="O" d="M88 315q0 166 115.5 282t279.5 116q140 0 241.5 -88.5t101.5 -226.5q0 -173 -114 -293t-286 -120q-152 0 -245 89.5t-93 240.5zM186 294q0 -126 60 -201.5t185 -75.5q93 0 163 61t102 145.5t32 172.5q0 122 -62 203.5t-182 81.5q-74 0 -133 -35t-94 -92t-53 -123.5 t-18 -136.5z"/>
<glyph glyph-name="P" horiz-adv-x="611" unicode="P" d="M23 0l5 26h21q21 2 31 4.5t20.5 15t15.5 36.5l94 530q1 5 1 14q0 46 -82 46h-11l5 26q47 -2 141 -2q24 0 70 1t70 1q81 0 133 -39.5t52 -117.5q0 -95 -72.5 -150t-171.5 -55q-34 0 -51 2l5 30h31q67 0 114 41t47 131q0 65 -32 95.5t-101 30.5q-1 0 -46 -3l-68 -377 l-32 -181l-5 -36q0 -43 65 -43h16h18l-5 -26q-94 2 -141 2q-45 0 -137 -2z"/>
<glyph glyph-name="Q" horiz-adv-x="889" unicode="Q" d="M56 -101v20q175 31 288 62l26 7v2q-129 15 -205.5 101.5t-76.5 223.5q0 166 115.5 282t279.5 116q140 0 241.5 -88.5t101.5 -226.5q0 -153 -96.5 -267.5t-272.5 -154.5q-205 -46 -222 -50v-2q22 -7 46.5 -14t54.5 -15t46 -13q10 -3 51.5 -15t62 -17.5t55.5 -14t63 -12 t53 -4.5q25 0 47 9t22 30q0 7 -2.5 18.5t-2.5 13.5q0 13 9.5 22t22.5 9q26 0 26 -26q0 -44 -61.5 -83.5t-144.5 -39.5h-7q-32 1 -85.5 12.5t-94 23t-104.5 31.5t-82 25q-96 32 -154 35zM186 294q0 -126 60 -202t185 -76q71 0 129 35.5t93.5 92t55 122t19.5 130.5 q0 122 -62 203.5t-182 81.5q-74 0 -133 -35t-94 -92t-53 -123.5t-18 -136.5z"/>
<glyph glyph-name="R" horiz-adv-x="722" unicode="R" d="M321 666l-52 -290q46 0 69 1q74 2 121.5 45.5t47.5 115.5q0 71 -42 99.5t-131 28.5h-13zM131 672l5 26q45 -2 134 -2q17 0 51.5 1t51.5 1q40 0 77 -7t72 -23t56 -48t21 -75q0 -82 -59.5 -128.5t-146.5 -59.5q24 -24 48 -56t38 -55.5t38.5 -67t34.5 -60.5q2 -3 11 -18 t12 -19.5t11.5 -16t14.5 -16.5t15 -11.5t19 -9t21 -2.5q10 0 15 1l-5 -26h-123q-33 0 -126 166q-6 10 -16 28t-16 28.5t-15 26.5t-15 25.5t-13.5 22t-13.5 20l-12 15t-11 11.5t-9 5q-7 2 -19 2h-13l-42 -246l-5 -39q0 -14 6.5 -22.5t20 -12t23 -4t26.5 -0.5h17l-5 -26 q-92 2 -137 2q-46 0 -136 -2l5 26h10q22 0 31.5 1t21.5 7.5t18.5 22t11.5 41.5l90 496q4 17 4 33q0 27 -18 36t-59 9h-16z"/>
<glyph glyph-name="S" horiz-adv-x="500" unicode="S" d="M50 203h20q1 -7 2 -27.5t2 -29t4 -24t9 -29.5q14 -35 48.5 -55.5t74.5 -20.5q58 0 97.5 33t39.5 89q0 40 -23 79.5t-56 73.5t-65.5 69t-55.5 79t-23 89q0 81 52 132.5t135 51.5q55 0 109 -18q21 -7 28 -7q5 0 8 1t6.5 4t5.5 4h17l-31 -176h-22q0 7 1 21t1 21 q0 55 -33.5 86.5t-88.5 31.5q-50 0 -79 -27.5t-29 -77.5q0 -38 24 -77t59 -74t69.5 -71t58.5 -80.5t24 -90.5q0 -84 -62.5 -141t-152.5 -57q-62 0 -145 36l-33 -30h-23z"/>
<glyph glyph-name="T" horiz-adv-x="667" unicode="T" d="M267 104l99 553h-169q-20 0 -36 -6.5t-25 -13t-18 -23t-11.5 -22.5t-9 -26.5t-6.5 -21.5h-26l37 169h18q14 -8 28 -11q13 -4 30 -4h469q35 0 54 15h17l-17 -171h-26v27q0 52 -15.5 70t-63.5 18h-137l-97 -535q0 -2 -4.5 -26.5t-4.5 -30.5q0 -23 16.5 -31t56.5 -8h26 l-5 -26q-27 0 -80 1t-80 1q-44 0 -130 -2l5 26h31h4q31 0 46.5 16.5t23.5 61.5z"/>
<glyph glyph-name="U" horiz-adv-x="778" unicode="U" d="M155 298l45 259q7 42 7 62q0 19 -5.5 30.5t-18 16t-22 5.5t-29.5 1h-19l5 26q52 -2 157 -2q22 0 66 1t67 1l-5 -25h-23q-39 -2 -59 -26t-32 -98l-54 -335q-3 -21 -3 -40q0 -72 48.5 -110t114.5 -38q37 0 66.5 8t49.5 19.5t36.5 34.5t25.5 41.5t17.5 52t12.5 55t10 61.5 l48 274q3 17 3 38q0 62 -85 62h-15l5 26q40 -2 123 -2q18 0 54.5 1t54.5 1l-5 -26h-13q-15 0 -27 -5t-20.5 -17t-14 -21t-10 -28.5t-6.5 -28t-5 -30t-4 -25.5l-44 -266q-14 -84 -30 -124.5t-52 -75.5q-68 -66 -195 -66q-97 0 -166 45.5t-69 137.5q0 49 15 130z"/>
<glyph glyph-name="V" horiz-adv-x="722" unicode="V" d="M370 698l-5 -26h-5q-75 0 -75 -34q0 -5 1 -8l104 -513h2l235 484q12 26 12 41q0 30 -78 30h-8l5 26q38 -2 113 -2q18 0 53.5 1t53.5 1l-5 -26h-8q-29 0 -45 -11.5t-30 -39.5l-330 -636h-34l-129 615q-8 41 -24.5 56.5t-62.5 15.5h-6l5 26q21 0 63.5 -1t63.5 -1 q22 0 66.5 1t67.5 1z"/>
<glyph glyph-name="W" horiz-adv-x="1000" unicode="W" d="M348 698l-5 -26h-10q-54 0 -54 -29q0 -15 7 -39l112 -494l137 241l-76 284q-7 19 -21 27t-44 10h-12l5 26q23 -1 65.5 -1.5t56.5 -0.5h16q17 0 44.5 1t34.5 1l-5 -26h-19q-27 -2 -27 -25q0 -5 1 -7l42 -182h2l82 150q13 28 13 39q0 16 -9.5 20t-37.5 5h-9l5 26 q17 -1 48 -1.5t41 -0.5h26q22 0 70 2l-5 -26h-15h-4q-7 0 -13.5 -1t-12 -3.5t-9.5 -4.5t-9 -7.5t-7.5 -7.5t-7.5 -10t-6.5 -10t-7 -12t-6.5 -12l-114 -193l75 -301h2l231 480q17 36 17 55q0 16 -11.5 21t-49.5 6h-12l5 26q46 -2 73 -2h28q60 2 91 2l-5 -26h-8q-17 0 -30 -10 t-19 -20t-19 -36l-318 -621h-28l-85 317l-184 -317h-26l-154 650q-4 19 -18 27t-44 10h-12l5 26q23 -1 65.5 -1.5t56.5 -0.5h16q16 0 47.5 1t48.5 1z"/>
<glyph glyph-name="X" horiz-adv-x="778" unicode="X" d="M14 0l5 26h16q33 3 58 16q16 8 49 44l224 250l-158 287q-17 30 -36 39.5t-57 9.5h-13l5 26q25 -1 70.5 -1.5t60.5 -0.5h37q32 0 100 2l-5 -26h-8q-55 0 -55 -24q0 -13 15 -40l110 -202l185 216q12 15 12 24q0 26 -61 26h-10l5 26q19 0 57.5 -1t57.5 -1q17 0 52 1t53 1 l-5 -26h-15q-18 0 -40 -13t-36 -29l-236 -257l152 -273q23 -42 39.5 -58t45.5 -16h23l-5 -26q-21 0 -62.5 1t-62.5 1q-45 0 -137 -2l5 26h11h11q42 0 42 25q0 14 -19 49l-109 201l-180 -215q-22 -24 -22 -40q0 -20 43 -20h12h9l-5 -26q-18 0 -56 1t-56 1q-38 0 -116 -2z"/>
<glyph glyph-name="Y" horiz-adv-x="667" unicode="Y" d="M351 698l-5 -26h-36q-36 0 -36 -24q0 -6 3 -13l128 -303l182 285q13 20 13 34q0 21 -62 21h-17l4 26q40 -2 121 -2q49 0 74 2l-5 -26h-4q-31 0 -63 -47l-10 -15l-220 -323l-37 -196q-2 -16 -2 -21q0 -21 12 -31t25.5 -11.5t41.5 -1.5h18l-5 -26q-25 0 -77 1t-77 1 q-43 0 -129 -2l4 26h22h5q39 0 51.5 12t19.5 48l38 199l-154 352q-16 35 -71 35h-10l4 26q41 -2 123 -2q22 0 65.5 1t65.5 1z"/>
<glyph glyph-name="Z" horiz-adv-x="722" unicode="Z" d="M21 0v8l548 652h-233q-93 0 -130 -18t-66 -95h-24l44 151h544v-8l-542 -649h316q33 0 58 7.5t31.5 12t21.5 16.5q31 25 57 106h23l-47 -183q-206 2 -309 2q-49 0 -146 -1t-146 -1z"/>
<glyph glyph-name="bracketleft" horiz-adv-x="333" unicode="[" d="M210 -167l-4 -26q-14 0 -42 1t-42 1q-13 0 -40 -1t-38 -1l-3 11l169 887l7 8q11 0 36.5 -1t35.5 -1q13 0 38 1t38 1l-4 -26h-33q-34 0 -48.5 -7.5t-19.5 -34.5l-146 -764q0 -3 -1 -7.5t-1.5 -8.5t-0.5 -8q0 -24 55 -24h44z"/>
<glyph glyph-name="backslash" horiz-adv-x="278" unicode="\" d="M309 -15h-66l-234 728h66z"/>
<glyph glyph-name="bracketright" horiz-adv-x="333" unicode="]" d="M133 687l4 26q14 0 42 -1t42 -1q13 0 40 1t38 1l3 -11l-169 -887l-7 -8q-11 0 -36.5 1t-35.5 1q-13 0 -38 -1t-38 -1l4 26h33q34 0 48.5 7.5t19.5 34.5l146 764q0 3 1 7.5t1.5 8.5t0.5 8q0 12 -7 18q-8 6 -35 6h-13h-44z"/>
<glyph glyph-name="asciicircum" d="M135 325h-68l181 365h60l181 -365h-68l-143 291z" unicode="^"/>
<glyph glyph-name="underscore" horiz-adv-x="500" unicode="_" d="M500 -125h-500v50h500v-50z"/>
<glyph glyph-name="grave" horiz-adv-x="278" unicode="`" d="M151 697l121 -151h-21q-6 0 -17 8l-117 88q-29 24 -29 39q0 11 9.5 21.5t20.5 10.5q19 0 33 -16z"/>
<glyph glyph-name="a" horiz-adv-x="500" unicode="a" d="M400 424l14 32q11 20 22 20h21q9 0 9 -5l-2 -8l-99 -355q-4 -12 -4 -25q0 -14 12 -14q13 0 26 10t28 27.5t20 21.5l16 -13q-8 -8 -32 -36.5t-40 -45t-41 -32.5t-47 -16q-13 0 -23.5 7t-10.5 21q0 20 17 73l28 88l-1 3q-50 -75 -110 -133.5t-114 -58.5q-41 0 -58.5 25 t-17.5 58q0 77 53.5 169.5t130.5 156t140 63.5q37 0 63 -33zM87 128q0 -69 51 -69q45 0 98.5 56.5t88 127.5t34.5 116q0 19 -15.5 35t-34.5 16q-51 0 -104.5 -50t-85.5 -116t-32 -116z"/>
<glyph glyph-name="b" d="M432 346q0 70 -60 70q-58 0 -117 -57t-94 -131.5t-35 -131.5q0 -35 14.5 -60t46.5 -25q58 0 117 60.5t93.5 138.5t34.5 136zM301 762l-130 -447l2 -2q125 144 226 144q113 0 113 -127q0 -78 -52 -159t-132 -133.5t-157 -52.5q-52 0 -85.5 27.5t-33.5 79.5q0 26 12 74 l132 526l-47 29l3 18q26 2 77 13q48 11 64 16z" unicode="b"/>
<glyph glyph-name="c" horiz-adv-x="444" unicode="c" d="M402 146l14 -18q-58 -66 -117 -104.5t-129 -38.5q-58 0 -90 37.5t-32 98.5q0 98 64 181t157 121q79 34 112 34q18 0 33.5 -11t15.5 -29q0 -22 -13.5 -37t-32.5 -15q-18 0 -42.5 16t-39.5 16q-47 0 -89 -50t-63.5 -111t-21.5 -105q0 -43 25.5 -67.5t69.5 -24.5 q79 0 179 107z"/>
<glyph glyph-name="d" d="M507 135l14 -14q-99 -136 -168 -136q-13 0 -22 9t-9 22q0 26 19 88l7 22h-2q-36 -43 -60.5 -68t-67 -49t-85.5 -24q-51 0 -74 33.5t-23 87.5q0 90 68 189q41 60 108.5 111t127.5 51q37 0 76 -22l49 252l-60 32l5 14q33 3 73 11q34 7 73 20l10 -4l-155 -647q-5 -22 -5 -33 q0 -16 16 -16q25 0 85 71zM116 131q0 -39 17 -65.5t55 -26.5q47 0 96 55.5t77 122.5t28 110q0 89 -71 89q-53 0 -101.5 -52.5t-74.5 -118t-26 -114.5z" unicode="d"/>
<glyph glyph-name="e" horiz-adv-x="444" unicode="e" d="M129 219q50 3 96.5 20t81.5 54.5t35 88.5q0 20 -11 31.5t-30 11.5q-52 0 -104.5 -72.5t-67.5 -133.5zM372 132l14 -17q-118 -130 -227 -130q-64 0 -93.5 39t-29.5 96q0 122 90.5 229.5t197.5 107.5q40 0 69 -16.5t29 -54.5q0 -48 -30.5 -85.5t-79.5 -59t-95.5 -33 t-92.5 -15.5q-8 -35 -8 -77q0 -36 23 -56.5t59 -20.5q78 0 174 93z"/>
<glyph glyph-name="f" horiz-adv-x="333" unicode="f" d="M242 442h110l-12 -41h-109l-167 -611l-61 -18l-3 6l154 623h-90l11 41h88q29 101 58.5 160.5t91.5 113.5q54 48 107 48q41 0 41 -32q0 -14 -8 -31t-20 -17q-9 0 -30 10t-33 10q-22 0 -38 -10.5t-26.5 -32t-16 -38t-12.5 -44.5z"/>
<glyph glyph-name="g" horiz-adv-x="500" unicode="g" d="M356 346q0 35 -17.5 60t-53.5 25h-4q-54 0 -88 -55.5t-34 -111.5q0 -89 73 -89q55 0 89.5 56t34.5 115zM296 -55l-127 65q-17 -6 -41 -18t-52 -38t-28 -51q0 -35 26.5 -58.5t58.5 -32t67 -8.5q29 0 59.5 6t58 25.5t27.5 49.5q0 35 -49 60zM176 95l157 -81q29 -16 42 -25 t24.5 -28.5t11.5 -46.5q0 -47 -40 -81t-89 -47.5t-94 -13.5q-32 0 -63 4.5t-65.5 16t-56 36t-21.5 58.5q0 21 11.5 40.5t26.5 32.5t40 27t40.5 20.5t38.5 15.5q-1 1 -15.5 9.5t-20.5 12.5t-13 13.5t-7 19.5q0 8 3 15.5t9 15t11 13.5t15 13l15 10.5t15.5 10t12.5 8.5 q-44 24 -64.5 52t-20.5 73q0 68 61 118t134 50q26 0 46.5 -4.5t44.5 -13.5t41 -13q17 -5 21 -5q13 0 33 12t31 12q16 0 16 -29q0 -15 -6.5 -26t-17.5 -11q-9 0 -34 12t-45 14q32 -35 32 -84q0 -75 -62 -123.5t-140 -48.5q-24 0 -46 3q-7 -2 -19 -15t-12 -20q0 -13 19 -22z "/>
<glyph glyph-name="h" d="M295 760l-141 -527h2q44 69 127 146.5t145 77.5q72 0 72 -87q0 -52 -34 -139t-88.5 -159t-102.5 -72q-24 0 -24 22q0 5 5 20l21 49h69q27 54 50.5 127t23.5 120q0 59 -40 59q-46 0 -116 -76t-100 -132q-33 -61 -60 -171q-4 -16 -43 -16q-32 0 -32 17q0 1 6 31l158 647 l-49 28l3 13q45 6 66 9q30 5 71 17z" unicode="h"/>
<glyph glyph-name="i" horiz-adv-x="278" unicode="i" d="M229 690q18 0 32 -14.5t14 -32.5q0 -17 -14 -31t-32 -14t-32 14t-14 31q0 18 14 32.5t32 14.5zM63 313l-14 14q30 45 75 87.5t83 42.5q31 0 31 -25q0 -14 -14 -56l-82 -254q-10 -32 -10 -42q0 -15 13 -15q17 0 76 65l16 -13q-97 -132 -159 -132q-38 0 -38 40q0 12 11 49 l86 254q9 25 9 37t-12 12q-23 0 -71 -64z"/>
<glyph glyph-name="j" horiz-adv-x="278" unicode="j" d="M229 690q18 0 32 -14t14 -32t-14 -32t-32 -14t-32 14t-14 32t14 32t32 14zM-31 -228l-7 22q43 26 61 95l115 440q8 29 8 36q0 12 -12 12q-23 0 -71 -64l-14 14q30 45 75 87.5t83 42.5q31 0 31 -25q0 -3 -22 -85l-104 -374q-4 -14 -7.5 -25.5t-7 -21.5t-5.5 -16.5 t-6.5 -15t-6 -11.5t-7 -11.5t-7 -10t-8.5 -11.5t-9 -13q-28 -40 -79 -65z"/>
<glyph glyph-name="k" d="M405 350q0 47 -53 47q-58 0 -115 -65.5t-74 -125.5q14 0 42 2q39 3 84 21t80.5 51t35.5 70zM41 7l167 678l-49 30l3 16q80 14 137 33l9 -4l-116 -443h2q34 48 95 94t115 46q34 0 54.5 -19.5t20.5 -54.5q0 -47 -39 -88.5t-87.5 -65t-97.5 -35.5v-2q26 -11 75 -68.5 t65 -71.5q19 -16 33.5 -21t40.5 -5q12 0 30 11v-26q-43 -26 -97 -26q-69 0 -119 65l-71 94q-25 36 -52 42l-49 -180q-5 -20 -37 -20q-14 0 -24.5 6.5t-8.5 14.5z" unicode="k"/>
<glyph glyph-name="l" horiz-adv-x="278" unicode="l" d="M292 758l-156 -652q-3 -12 -3 -20q0 -21 13 -21q21 0 77 77l12 -21q-4 -5 -21.5 -29.5t-29 -38t-29.5 -32t-35.5 -27.5t-35.5 -9q-37 0 -37 49q0 21 7 49l140 604l-60 32l5 14q33 3 73 11q34 7 73 20z"/>
<glyph glyph-name="m" horiz-adv-x="833" unicode="m" d="M781 137l14 -15l-31 -34q-80 -88 -141 -88q-37 0 -37 34q0 13 12 47l81 232q11 31 11 41q0 11 -7 17.5t-16 6.5q-34 0 -85 -46.5t-90 -93.5q-62 -76 -103 -182l-19 -46q-4 -12 -34 -12q-9 0 -21 4.5t-14 9.5l90 266q17 57 17 74q0 25 -19 25q-25 0 -57.5 -22.5t-46 -36.5 t-42.5 -46q-85 -91 -125 -204l-20 -57q-4 -11 -37 -11q-23 0 -32 13l106 319q4 24 4 25q0 20 -16 20q-23 0 -58 -35l-27 -30l-15 18q103 127 174 127q34 0 34 -35q0 -15 -11 -48l-52 -151h2q50 72 138 153t147 81q45 0 45 -33q0 -21 -11 -54l-48 -149h2q25 32 57.5 67 t75.5 75.5t88 67t78 26.5q40 0 40 -41q0 -21 -10 -49l-80 -234q-14 -45 -14 -47q0 -12 16 -12q12 0 41.5 23t45.5 40z"/>
<glyph glyph-name="n" d="M45 313l-15 18q102 126 174 126q34 0 34 -34q0 -15 -11 -48l-52 -151h2q20 29 53 66t74 76t86.5 65t79.5 26h1q40 0 40 -41q0 -21 -10 -49l-80 -220q-15 -40 -15 -52q0 -21 18 -21t45 24t41 46l17 -13l-36 -44q-71 -87 -139 -87q-19 0 -28.5 9.5t-9.5 23.5q0 25 14 62 l78 213q13 39 13 50q0 19 -23 19q-20 0 -40.5 -9.5t-43 -30.5t-32 -30.5t-30.5 -33.5q-85 -91 -125 -204l-20 -57q-4 -11 -37 -11q-23 0 -32 13l98 295q12 38 12 50q0 18 -16 18q-24 0 -58 -34z" unicode="n"/>
<glyph glyph-name="o" d="M48 186q0 108 80 189.5t188 81.5q86 0 139 -57.5t53 -145.5q0 -107 -78.5 -188t-184.5 -81q-90 0 -143.5 55t-53.5 146zM128 152q0 -63 27 -102t89 -39q60 0 104 49.5t62 111t18 118.5q0 61 -26.5 101t-86.5 40q-48 0 -85.5 -27.5t-58.5 -71t-32 -90t-11 -90.5z" unicode="o"/>
<glyph glyph-name="p" d="M233 410l-63 -251q-11 -63 -11 -81q0 -21 15.5 -44t39.5 -23q48 0 97 60.5t77 135t28 125.5q0 38 -18 60t-37 27.5t-42 5.5q-54 0 -86 -15zM157 421l32 120l83 24l-31 -126q47 18 110 18q151 0 151 -124q0 -67 -41 -148.5t-110 -140.5t-138 -59q-42 0 -80 29l-49 -195 l81 -14l-5 -18q-38 -3 -88 -7q-43 -4 -69 -8l-6 8l152 607q-83 -29 -119 -48l7 39q55 24 120 43z" unicode="p"/>
<glyph glyph-name="q" d="M437 401l23 66l60 19l-169 -679l67 -14l-5 -21q-35 2 -104 2q-80 0 -120 -2l5 24l78 11l97 361h-2q-52 -70 -116.5 -126.5t-126.5 -56.5q-40 0 -64 31t-24 68q0 74 35 145.5t86 120t106 78t96 29.5q59 0 76 -56h2zM324 410q-50 0 -101.5 -48.5t-82 -112.5t-30.5 -114 q0 -35 16 -59.5t49 -24.5q50 0 103.5 51t86.5 118t33 117q0 34 -20 53.5t-54 19.5z" unicode="q"/>
<glyph glyph-name="r" horiz-adv-x="389" unicode="r" d="M41 306l-13 17q29 43 74 88.5t77 45.5q41 0 41 -38q0 -15 -10 -52l-38 -137h2q120 227 184 227q31 0 31 -34q0 -24 -10.5 -49t-31.5 -25q-6 0 -18.5 2t-18.5 2q-77 0 -173 -296l-18 -64q-2 -8 -36 -8q-10 0 -21 6t-11 12q0 3 2 9l79 276q12 38 12 59q0 10 -5 18t-14 8 q-30 0 -84 -67z"/>
<glyph glyph-name="s" horiz-adv-x="389" unicode="s" d="M37 125h13q7 -39 44.5 -59.5t82.5 -20.5q31 0 60 10t29 35q0 23 -23.5 47.5t-53 42.5t-59.5 42t-39 45q-9 18 -9 46q0 18 10.5 36.5t30.5 35.5t33.5 26.5t34.5 23.5q35 22 74 22q87 0 87 -60q0 -11 -6.5 -28t-14.5 -17h-12q-7 0 -14 15q-7 14 -32 25t-50 11 q-29 0 -52 -15t-23 -42q0 -22 18 -42.5t44 -37t52.5 -33.5t44.5 -41.5t18 -53.5q0 -44 -65 -107q-46 -46 -119 -46q-29 0 -55 5.5t-49 24t-23 48.5q0 20 23 62z"/>
<glyph glyph-name="t" horiz-adv-x="333" unicode="t" d="M162 442l38 126h80l-41 -126h107l-12 -41h-106l-87 -289q-6 -18 -6 -31q0 -22 20 -22q37 0 124 87l14 -17q-28 -31 -42.5 -46t-45 -43t-58.5 -41.5t-54 -13.5q-21 0 -32.5 15.5t-11.5 36.5q0 20 13 64l89 300h-98l12 41h97z"/>
<glyph glyph-name="u" d="M505 136l14 -14q-3 -3 -14.5 -16t-16.5 -18t-16.5 -17.5t-19 -18.5t-19 -16t-21 -15t-20.5 -10.5t-22 -8t-22 -2.5q-37 0 -37 35q0 19 19 74l60 177h-2q-1 -2 -19.5 -26t-28.5 -36t-32 -39.5t-37.5 -44.5t-38.5 -41t-41.5 -39.5t-39 -30.5t-39 -22t-34.5 -7 q-17 0 -29.5 11.5t-12.5 27.5q0 11 10 43l87 258q4 11 4 22q0 15 -13 15q-10 0 -23 -8t-21.5 -16.5t-22 -23t-16.5 -17.5l-16 17l34 35q28 28 46 44t45.5 32.5t49.5 16.5q33 0 33 -32q0 -18 -13 -52l-90 -269q-2 -10 -2 -14q0 -10 17 -10q47 0 154.5 135t136.5 211 q12 31 34 31q13 0 45 -29l-109 -326q-3 -8 -3 -14q0 -14 15 -14q12 0 27.5 11t36 29.5t23.5 21.5z" unicode="u"/>
<glyph glyph-name="v" horiz-adv-x="500" unicode="v" d="M41 328l-16 16q4 3 34 32.5t44.5 41t41.5 25.5t49 14q33 0 33 -37q0 -19 -12 -57l-68 -229q-12 -34 -12 -52q0 -17 12.5 -27t31.5 -10q56 0 118.5 71t86.5 135q20 51 20 94q0 9 -1 26t-1 26q0 60 45 60q37 0 37 -49q0 -62 -47.5 -147t-101.5 -146q-44 -51 -99 -90.5 t-105 -39.5q-35 0 -55.5 19t-20.5 55q0 22 11 60l61 195q8 29 8 44q0 25 -19 25q-26 0 -75 -55z"/>
<glyph glyph-name="w" horiz-adv-x="778" unicode="w" d="M43 315l-15 17q35 42 84 83.5t84 41.5q38 0 38 -31q0 -11 -4 -23l-94 -289q-4 -15 -4 -28q0 -21 22 -21q39 0 121 78t100 111q41 150 68 177q14 16 49 24q17 -4 32 -25q-3 -31 -18 -64q-11 -25 -49 -78l-40 -171q-4 -16 -4 -28q0 -44 40 -44q85 0 179 143q51 78 51 144 q0 12 -4 36.5t-4 36.5q0 18 14 34t32 16q42 0 42 -56q0 -61 -51 -146.5t-110 -153.5q-40 -44 -96 -79t-106 -35q-30 0 -48.5 18.5t-18.5 46.5q0 21 5 45t13.5 53t11.5 45h-2q-8 -8 -40 -40.5t-57 -56.5t-58 -52t-62 -43.5t-51 -15.5q-41 0 -41 53q0 27 9 60l71 242q2 6 2 15 q0 16 -14 16q-5 0 -13 -4.5t-18 -12.5t-18 -14.5t-17 -14.5t-11 -10z"/>
<glyph glyph-name="x" d="M274 80l-29 98l-68 -96q-26 -36 -60.5 -66.5t-61.5 -30.5q-26 0 -39.5 15.5t-13.5 36.5q0 22 14.5 40.5t35.5 26.5l11 -7q-2 -10 -2 -14q0 -24 26 -24q34 0 80 59l69 90l-26 89q-24 80 -63 80q-40 0 -69 -63l-19 10q16 53 48 93t77 40q52 0 79 -80l29 -89l49 65 q36 47 68.5 74t68.5 27q19 0 31 -13t12 -32q0 -45 -48 -69l-8 5q-2 10 -4.5 15t-9.5 9.5t-19 4.5q-37 0 -87 -64l-43 -57l36 -121q5 -19 7.5 -25.5t8.5 -20t14.5 -19t20.5 -5.5q14 0 27.5 8.5t20 16t19 25.5t15.5 22l16 -12q-2 -3 -15 -26t-19 -32t-20 -28.5t-25 -28 t-26.5 -16.5t-30.5 -8q-22 0 -38.5 17t-23 34t-15.5 46z" unicode="x"/>
<glyph glyph-name="y" horiz-adv-x="500" unicode="y" d="M60 299l-9 -7l-24 14q0 59 26.5 105t81.5 46q40 0 68.5 -32t43 -85.5t23 -104t14.5 -108.5t10 -78l22 38.5t25.5 45.5t22 43.5t21 48.5t12.5 44t6 46q0 20 -6 44.5t-6 37.5q0 24 12.5 42t34.5 18q39 0 39 -53q0 -74 -83 -233t-149 -242q-1 -2 -16.5 -22t-20.5 -26 t-20.5 -25t-24 -27t-24.5 -21.5t-28 -19.5t-27 -11t-30 -5q-16 0 -28.5 12t-12.5 28q0 18 9.5 29.5t26.5 11.5q6 0 20 -3.5t22 -3.5q43 0 85 48l54 63l-3 52l-9 83q-7 50 -16.5 95t-23.5 92.5t-34 75.5t-43 28q-21 0 -34.5 -13t-13.5 -33t7 -38z"/>
<glyph glyph-name="z" horiz-adv-x="444" unicode="z" d="M31 55l288 296h-10q-40 0 -102 28q-29 12 -57 12q-18 0 -32 -11t-14 -27q0 -1 4.5 -11t4.5 -16q0 -11 -7 -18t-16 -7q-13 0 -19.5 10.5t-6.5 23.5q0 25 33 58q62 64 104 64q25 0 80 -26t75 -26q18 0 27 6q3 1 4.5 3t1.5 3.5t0.5 5t0.5 5.5q2 35 28 35q19 0 19 -20 q0 -9 -17 -30.5t-35 -38.5l-260 -269h4q33 0 106.5 -54t96.5 -54q13 0 23 7t10 18q0 6 -3 12q0 3 -7.5 18t-7.5 22t7.5 14.5t18.5 7.5q12 0 19.5 -11t7.5 -24q0 -46 -36.5 -88t-81.5 -42q-25 0 -63.5 31.5t-76 63.5t-62.5 32q-9 0 -18 -5.5t-9 -13.5q0 -10 3.5 -19.5 t3.5 -13.5q0 -19 -21 -21h-3q-10 0 -16.5 8t-6.5 19q0 25 18 43z"/>
<glyph glyph-name="braceleft" horiz-adv-x="333" unicode="{" d="M149 380l34 186q16 88 57 117.5t117 29.5l-3 -14q-47 -10 -70.5 -40.5t-33.5 -86.5l-32 -177q-11 -60 -32.5 -90.5t-72.5 -43.5l-1 -2q63 -18 63 -76q0 -25 -6 -58l-32 -177q-5 -30 -5 -48q0 -64 63 -79l-3 -14q-64 0 -95 19t-31 73q0 23 6 55l34 186q5 30 5 47 q0 54 -59 73q47 14 67.5 40.5t29.5 79.5z"/>
<glyph glyph-name="bar" horiz-adv-x="222" unicode="|" d="M93 -15v779h66v-779h-66z"/>
<glyph glyph-name="braceright" horiz-adv-x="333" unicode="}" d="M198 140l-34 -186q-16 -88 -57 -117.5t-117 -29.5l3 14q47 10 70.5 40.5t33.5 86.5l32 177q11 61 33 91t73 43v2q-63 17 -63 72q0 26 6 62l33 177q5 28 5 46q0 66 -63 81l2 14q65 0 95.5 -20t30.5 -78q0 -17 -5 -49l-34 -186q-5 -26 -5 -53q0 -48 59 -67 q-48 -14 -68.5 -40.5t-29.5 -79.5z"/>
<glyph glyph-name="asciitilde" d="M473 291l36 -50q-20 -27 -33 -42t-38 -29.5t-54 -14.5q-36 0 -106 33q-64 33 -111 33q-52 0 -84 -70l-36 50q45 86 125 86q47 0 117 -33q74 -33 96 -33q27 0 46.5 18t41.5 52z" unicode="~"/>
<glyph glyph-name="uni00A0" horiz-adv-x="278" unicode=" "/>
<glyph glyph-name="exclamdown" horiz-adv-x="333" unicode="¡" d="M199 485q27 0 46.5 -19t19.5 -46q0 -26 -20 -46.5t-46 -20.5t-46 20t-20 47t19.5 46t46.5 19zM167 282h20l-38 -305q-22 -178 -87 -178q-22 0 -33 15t-11 38q0 41 33 130z"/>
<glyph glyph-name="cent" d="M422 146l14 -19q-105 -118 -202 -137l-36 -132h-34l35 128q-4 -1 -9 -1q-58 0 -90.5 38t-32.5 98q0 108 74.5 194t180.5 122l34 125h35l-31 -113q11 4 22 6q14 2 19 2q49 0 49 -41q0 -19 -14 -35t-32 -16q-14 0 -32.5 12t-27.5 14l-96 -352q74 2 174 107zM215 43l96 352 q-44 -3 -83.5 -52t-60 -106.5t-20.5 -98.5q0 -82 68 -95z" unicode="¢"/>
<glyph glyph-name="sterling" d="M186 368h-112l8 41h110q10 52 15.5 76t17.5 65.5t29 72.5t41 60q52 62 110 75q24 6 43 6q34 0 60.5 -14t26.5 -45q0 -17 -10 -28t-26 -11q-9 0 -23 6q-2 7 -3.5 16.5t-4.5 16t-10 13.5q-17 15 -37 15q-32 0 -55 -25t-36.5 -67.5t-21 -82.5t-13.5 -86.5t-10 -62.5h136 l-8 -41h-135q-28 -146 -107 -251q5 0 17.5 3t19.5 3q40 0 79.5 -22.5t73.5 -45.5t59 -23q21 0 35.5 13t14.5 33q0 14 -5.5 23t-13 13t-22.5 10q5 43 40 43q21 0 31 -17t10 -39q0 -55 -44.5 -90.5t-100.5 -35.5q-37 0 -69.5 15t-51.5 33.5t-43.5 33.5t-47.5 15q-6 -6 -25 -30 t-36 -38t-35 -14q-20 0 -20 19q0 28 31.5 55t62.5 37q1 1 16 33q18 40 39 224z" unicode="£"/>
<glyph glyph-name="currency" d="M111 345q0 -77 54 -132.5t130 -55.5q75 0 127.5 56.5t52.5 131.5t-53 131.5t-127 56.5q-76 0 -130 -55.5t-54 -132.5zM99 495l-57 57l44 44l56 -55q63 52 153 52q87 0 148 -52l56 55l44 -44l-57 -57q55 -54 55 -150q0 -89 -52 -150l55 -57l-43 -43l-54 57 q-62 -55 -152 -55q-92 0 -156 55l-54 -57l-43 43l55 57q-52 64 -52 150q0 95 54 150z" unicode="¤"/>
<glyph glyph-name="yen" d="M245 331l-127 292q-16 35 -42 43q-17 5 -53 5l5 27q60 -3 122 -3q22 0 65.5 1.5t65.5 1.5l-5 -26q-19 0 -28.5 -0.5t-21 -2.5t-16.5 -6.5t-5 -12.5q0 -10 7 -26l123 -292l157 243q38 59 38 78t-79 19l5 26q59 -3 120 -3q36 0 74 3l-5 -26q-35 0 -77 -62l-189 -279h103 l-8 -41h-125q-7 -12 -8 -20l-10 -57h130l-8 -41h-130l-16 -87q-2 -14 -2 -26t6.5 -19t21 -10t25.5 -3.5t32 -0.5h16l-5 -26q-25 0 -77 1t-77 1q-43 0 -129 -2l5 26h11q51 0 66.5 9t20.5 36l20 101h-132l8 41h132l14 72l-3 5h-126l8 41h103z" unicode="¥"/>
<glyph glyph-name="brokenbar" horiz-adv-x="222" unicode="¦" d="M93 482v282h66v-282h-66zM93 -15v282h66v-282h-66z"/>
<glyph glyph-name="section" d="M327 27q0 -66 -34 -129l2 -2q87 84 87 202q0 12 -1 24t-4 25.5t-5 23t-7.5 24.5t-8 22t-10 24t-9 21.5t-10.5 24t-10 21.5q-4 10 -15.5 34t-16 34t-12.5 30.5t-12 34t-8 32.5t-5 38q0 47 31 116l-2 2q-84 -79 -84 -184q0 -35 11 -75.5t23 -67t33 -69.5q67 -147 67 -206z M429 114q0 -121 -87 -213q-38 -41 -90 -67.5t-104 -26.5q-33 0 -66 15.5t-33 44.5q0 18 10 29.5t28 11.5t31 -17t27.5 -34.5t36.5 -17.5q50 0 74 44t24 105q0 86 -68 222q-2 5 -12.5 28.5t-14 31.5t-12 28.5t-11.5 32.5t-8 29.5t-6.5 33t-1.5 31.5q0 120 90 203 q86 85 169 85q38 0 67 -16t29 -44q0 -46 -38 -46q-15 0 -25.5 11.5t-15.5 25.5t-17 25.5t-30 11.5q-41 0 -60.5 -35.5t-19.5 -85.5q0 -82 66 -223q23 -50 33.5 -75t22.5 -68t12 -80z" unicode="§"/>
<glyph glyph-name="dieresis" horiz-adv-x="278" unicode="¨" d="M264 610q0 21 14 35t34 14q21 0 35.5 -14t14.5 -35q0 -20 -14.5 -34.5t-35.5 -14.5q-20 0 -34 14.5t-14 34.5zM64 610q0 21 14 35t34 14q21 0 35.5 -14t14.5 -35q0 -20 -14.5 -34.5t-35.5 -14.5q-20 0 -34 14.5t-14 34.5z"/>
<glyph glyph-name="copyright" horiz-adv-x="800" unicode="©" d="M562 260h18l-17 -74q-1 -12 -28 -20q-54 -18 -113 -18q-101 0 -164.5 52t-63.5 158q0 76 61 140t174 64q50 0 111 -19q22 -7 22 -22v-74h-20q-4 39 -32 67t-84 28q-75 0 -113.5 -49.5t-38.5 -130.5q0 -89 38.5 -141.5t119.5 -52.5q92 0 130 92zM400 32q127 0 216 94 t89 220q0 130 -88.5 225t-216.5 95q-127 0 -216 -95t-89 -225q0 -126 89.5 -220t215.5 -94zM400 -15q-152 0 -258 106t-106 255q0 153 106 260t258 107q153 0 258.5 -107t105.5 -260q0 -149 -106 -255t-258 -106z"/>
<glyph glyph-name="ordfeminine" horiz-adv-x="325" unicode="ª" d="M343 508l10 -8q-3 -3 -20 -21.5t-27 -27.5t-26.5 -18.5t-30.5 -9.5q-8 0 -15 5t-7 12q0 11 5 27.5t14.5 40t11.5 30.5l-3 2q-3 -3 -25 -31t-36 -42t-40.5 -29t-53.5 -15q-44 0 -44 58q0 66 75 145t140 79q24 0 41 -20q2 3 4.5 9t4.5 9.5t6 6.5t9 3h8.5t5.5 -0.5t4 -1.5 t1 -3l-66 -213q-3 -9 -3 -12q0 -6 8 -6q9 0 17 5t19 15t13 11zM109 508q0 -11 8 -21t25 -10h1q45 0 93.5 63t48.5 106q0 11 -9.5 19t-22.5 8q-52 0 -98 -58t-46 -107z"/>
<glyph glyph-name="guillemotleft" d="M312 421l15 -14l-141 -163l83 -167l-17 -10l-152 177zM472 421l15 -14l-141 -163l83 -167l-17 -10l-152 177z" unicode="«"/>
<glyph glyph-name="logicalnot" d="M433 76v212h-376v66h442v-278h-66z" unicode="¬"/>
<glyph glyph-name="uni00AD" horiz-adv-x="333" unicode="­" d="M39 206l18 66h236l-16 -66h-238z"/>
<glyph glyph-name="registered" horiz-adv-x="800" unicode="®" d="M348 530v-178h47q71 0 71 96q0 82 -73 82h-45zM401 173v-14h-172v14q43 6 48 12q5 5 5 21v276v5q0 32 -6.5 37.5t-44.5 9.5v16h186q52 0 87.5 -25t35.5 -72q0 -40 -23.5 -69.5t-62.5 -41.5l60 -84q48 -66 80 -91v-8h-67q-15 0 -30 18t-45 70t-52 85h-52v-126q0 -20 8 -24 t45 -9zM400 32q127 0 216 94t89 220q0 130 -88.5 225t-216.5 95q-127 0 -216 -95t-89 -225q0 -126 89.5 -220t215.5 -94zM400 -15q-152 0 -258 106t-106 255q0 153 106 260t258 107q153 0 258.5 -107t105.5 -260q0 -149 -106 -255t-258 -106z"/>
<glyph glyph-name="macron" horiz-adv-x="278" unicode="¯" d="M346 586h-259l8 47h259z"/>
<glyph glyph-name="degree" horiz-adv-x="400" unicode="°" d="M245 705q60 0 101.5 -41.5t41.5 -101.5t-41.5 -101.5t-101.5 -41.5t-101.5 41.5t-41.5 101.5t41.5 101.5t101.5 41.5zM161 562q0 -41 26 -65t58 -24t58 24t26 65t-26 65t-58 24t-58 -24t-26 -65z"/>
<glyph glyph-name="plusminus" d="M57 0v66h442v-66h-442zM245 299v110h66v-110h188v-66h-188v-110h-66v110h-188v66h188z" unicode="±"/>
<glyph glyph-name="two.superior" horiz-adv-x="361" unicode="²" d="M97 336h202l21 35l14 -4l-25 -85q-43 1 -130 1q-92 0 -138 -1q-7 0 -7 6q0 2 0.5 8t0.5 10q1 4 6 9l86 74q135 119 135 199q0 33 -18 54.5t-51 21.5q-11 0 -21 -2t-17 -4.5t-16 -8t-14 -9t-14.5 -10.5t-14.5 -10l-10 14q35 34 65 52.5t69 18.5q49 0 78.5 -25t29.5 -69 q0 -32 -15.5 -64t-45 -63t-54.5 -53t-63.5 -52.5t-52.5 -42.5z"/>
<glyph glyph-name="three.superior" horiz-adv-x="361" unicode="³" d="M140 492l3 20q40 2 80 27.5t39 63.5q1 30 -15.5 50t-48.5 20q-8 0 -16 -1.5t-13.5 -3.5t-14 -6.5t-11.5 -7t-12.5 -9t-12.5 -8.5l-11 11q34 30 60 43.5t62 13.5q43 0 71 -21.5t28 -57.5q0 -46 -32.5 -72.5t-85.5 -44.5v-2q105 -12 105 -95q0 -58 -54.5 -98.5 t-121.5 -40.5q-61 0 -101 25l-7 34l27 8q21 -47 74 -47q44 0 76.5 35t32.5 78q0 42 -23.5 64.5t-61.5 22.5q-11 0 -16 -1z"/>
<glyph glyph-name="acute" horiz-adv-x="278" unicode="´" d="M174 546h-26l152 148q25 19 34 19q12 0 22 -10t10 -23q0 -17 -35 -39l-115 -75q-29 -20 -42 -20z"/>
<glyph glyph-name="mu" d="M48 82l85 258q4 11 4 22q0 15 -13 15q-10 0 -23 -8t-21.5 -16.5t-22 -23t-16.5 -17.5l-16 17l34 35q28 28 46 44t45.5 32.5t49.5 16.5q33 0 33 -32q0 -18 -13 -52l-90 -269q-2 -10 -2 -14q0 -10 17 -10q33 0 100.5 73t122 155t68.5 118q12 31 34 31q13 0 45 -29 l-109 -326q-3 -8 -3 -14q0 -14 15 -14q12 0 27.5 11t36 29.5t23.5 21.5l14 -14q-3 -3 -14.5 -16t-16.5 -18t-16.5 -17.5t-19 -18.5t-19 -16t-21 -15t-20.5 -10.5t-22 -8t-22 -2.5q-37 0 -37 35q0 23 19 74l65 174h-2q-5 -6 -56 -67t-87 -100t-87 -77.5t-85 -38.5 q-6 -31 -13 -89t-10 -77q0 -1 -1 -8t-1.5 -9.5t-2.5 -9t-3.5 -9t-4.5 -8t-6.5 -8t-8.5 -5.5t-11 -4t-14 -1q-16 0 -24.5 9t-8.5 23q0 22 9 59t18.5 66t27 80.5t24.5 72.5z" unicode="µ"/>
<glyph glyph-name="paragraph" d="M230 320l69 346h-7q-40 0 -70.5 -22.5t-47 -59t-25.5 -73t-11 -74.5v-5q0 -55 26 -83.5t66 -28.5zM517 620l-151 -723q-2 -8 -2 -20t8.5 -18.5t21 -9.5t44.5 -7l-5 -20h-148l174 844h-93l-174 -844h-148l5 20q6 1 20 2.5t19 2.5t15 3.5t14 5.5t10 8.5t9.5 13t5.5 18.5 l78 377q-78 2 -117 44t-39 112q0 107 68 188t174 81h309l-4 -20q-28 -4 -35.5 -5t-23 -5t-19 -9.5t-8.5 -14.5t-8 -24z" unicode="¶"/>
<glyph glyph-name="periodcentered" horiz-adv-x="278" unicode="·" d="M205 295q0 -26 -19.5 -46t-45.5 -20q-28 0 -47.5 19.5t-19.5 46.5q0 28 19.5 47t46.5 19t46.5 -19.5t19.5 -46.5z"/>
<glyph glyph-name="cedilla" horiz-adv-x="278" unicode="¸" d="M32 -92l63 93h36l-44 -65l2 -2q8 5 31 5q30 0 49.5 -17t19.5 -49q0 -45 -34.5 -65.5t-82.5 -20.5q-45 0 -90 21l18 26q36 -15 56 -15q26 0 46.5 11t20.5 35q0 19 -13 30.5t-32 11.5q-21 0 -39 -9z"/>
<glyph glyph-name="one.superior" horiz-adv-x="361" unicode="¹" d="M219 651l-106 -49l-10 15l176 88l12 -3l-69 -356q-5 -19 -5 -31q0 -13 27 -13q8 0 26 -0.5t26 -0.5l-4 -19q-21 0 -58 0.5t-54 0.5q-72 0 -109 -1l4 19q16 1 46 1q28 0 31 23z"/>
<glyph glyph-name="ordmasculine" horiz-adv-x="361" unicode="º" d="M70 543q0 65 52.5 113.5t125.5 48.5q58 0 93 -34.5t35 -87.5q0 -63 -51.5 -111.5t-122.5 -48.5q-61 0 -96.5 33t-35.5 87zM129 522q0 -34 17 -56.5t55 -22.5q54 0 85 54t31 108q0 33 -17 56.5t-53 23.5q-57 0 -87.5 -53.5t-30.5 -109.5z"/>
<glyph glyph-name="guillemotright" d="M84 67l-15 14l141 163l-83 167l17 10l152 -177zM244 67l-15 14l141 163l-83 167l17 10l152 -177z" unicode="»"/>
<glyph glyph-name="onequarter" horiz-adv-x="834" unicode="¼" d="M228 651l-106 -49l-10 15l176 88l12 -3l-69 -356q-5 -19 -5 -31q0 -13 27 -13q9 0 26 -0.5t26 -0.5l-4 -19q-21 0 -58 0.5t-54 0.5q-72 0 -109 -1l4 19q16 1 46 1q28 0 31 23zM168 -23l448 736h47l-447 -736h-48zM595 0l27 139h-188l3 29l270 255h34l-49 -237h62l-8 -47 h-62l-27 -139h-62zM630 186l36 164h-2l-177 -164h143z"/>
<glyph glyph-name="onehalf" horiz-adv-x="834" unicode="½" d="M511 54h202l21 35l14 -4l-25 -85q-43 1 -130 1q-92 0 -138 -1q-7 0 -7 6q0 2 0.5 8t0.5 10q1 4 6 9l86 74q135 119 135 199q0 33 -18 54.5t-51 21.5q-11 0 -21 -2t-17 -4.5t-16 -8t-14 -9t-14.5 -10.5t-14.5 -10l-10 14q35 34 65 52.5t69 18.5q49 0 78.5 -25t29.5 -69 q0 -32 -15.5 -64t-45 -63t-54.5 -53t-63.5 -52.5t-52.5 -42.5zM235 651l-106 -49l-10 15l176 88l6 -3l-69 -356q-5 -19 -5 -31q0 -13 27 -13q8 0 26 -0.5t26 -0.5l-4 -19q-17 0 -52.5 0.5t-53.5 0.5q-72 0 -109 -1l4 19q16 1 46 1q28 0 31 23zM168 -23l448 736h47l-447 -736 h-48z"/>
<glyph glyph-name="threequarters" horiz-adv-x="834" unicode="¾" d="M174 492l3 20q40 2 80 27.5t39 63.5q1 30 -15.5 50t-48.5 20q-8 0 -16 -1.5t-13.5 -3.5t-14 -6.5t-11.5 -7t-12.5 -9t-12.5 -8.5l-11 11q34 30 60 43.5t62 13.5q43 0 71 -21.5t28 -57.5q0 -46 -32.5 -72.5t-85.5 -44.5v-2q105 -12 105 -95q0 -58 -54.5 -98.5 t-121.5 -40.5q-61 0 -101 25l-7 34l27 8q21 -47 74 -47q44 0 76.5 35t32.5 78q0 42 -23.5 64.5t-61.5 22.5q-11 0 -16 -1zM198 -23l448 736h47l-447 -736h-48zM630 186l36 164h-2l-177 -164h143zM595 0l27 139h-188l3 29l270 255h34l-49 -237h62l-8 -47h-62l-27 -139h-62z "/>
<glyph glyph-name="questiondown" horiz-adv-x="444" unicode="¿" d="M293 485q27 0 46.5 -19t19.5 -46q0 -26 -20 -46.5t-46 -20.5t-46 20t-20 47t19.5 46t46.5 19zM232 -157q14 0 22.5 -9t8.5 -23q0 -39 -62 -39q-64 0 -113 45t-49 108q0 53 27 87.5t59.5 46t77.5 24.5t63 23q37 22 37 64q0 31 -25 46.5t-49 15.5q-9 0 -19.5 -2.5 t-14.5 -2.5q-22 0 -22 25q0 40 33 40q34 0 76 -37q20 -18 41 -59t21 -66q0 -50 -27 -79t-66 -40.5t-78 -21.5t-66 -31.5t-27 -60.5q0 -33 18 -51t51 -18q19 0 45.5 7.5t37.5 7.5z"/>
<glyph glyph-name="Agrave" horiz-adv-x="722" unicode="À" d="M400 888l121 -151h-21q-6 0 -17 8l-117 88q-29 24 -29 39q0 11 9.5 21.5t20.5 10.5q19 0 33 -16zM420 601l-161 -298h207l-44 298h-2zM97 93l344 609q24 6 36 11l6 -4l110 -621q9 -62 64 -62h8l-5 -26q-21 0 -63 1t-63 1q-36 0 -108 -2l5 26h15q56 0 56 31q0 1 -0.5 3.5 t-0.5 3.5l-30 198h-234l-82 -170q-11 -24 -11 -36q0 -30 43 -30h30l-5 -26q-20 0 -59 1t-59 1q-30 0 -92 -2l5 26h2q53 0 88 67z"/>
<glyph glyph-name="Aacute" horiz-adv-x="722" unicode="Á" d="M423 737h-26l152 148q25 19 34 19q12 0 22 -10t10 -23q0 -17 -35 -39l-115 -75q-29 -20 -42 -20zM420 601l-161 -298h207l-44 298h-2zM97 93l344 609q24 6 36 11l6 -4l110 -621q9 -62 64 -62h8l-5 -26q-21 0 -63 1t-63 1q-36 0 -108 -2l5 26h15q56 0 56 31q0 1 -0.5 3.5 t-0.5 3.5l-30 198h-234l-82 -170q-11 -24 -11 -36q0 -30 43 -30h30l-5 -26q-20 0 -59 1t-59 1q-30 0 -92 -2l5 26h2q53 0 88 67z"/>
<glyph glyph-name="Acircumflex" horiz-adv-x="722" unicode="Â" d="M505 904l88 -167h-33l-82 107l-135 -107h-37l161 167h38zM420 601l-161 -298h207l-44 298h-2zM97 93l344 609q24 6 36 11l6 -4l110 -621q9 -62 64 -62h8l-5 -26q-21 0 -63 1t-63 1q-36 0 -108 -2l5 26h15q56 0 56 31q0 1 -0.5 3.5t-0.5 3.5l-30 198h-234l-82 -170 q-11 -24 -11 -36q0 -30 43 -30h30l-5 -26q-20 0 -59 1t-59 1q-30 0 -92 -2l5 26h2q53 0 88 67z"/>
<glyph glyph-name="Atilde" horiz-adv-x="722" unicode="Ã" d="M328 759h-27q10 41 38.5 68.5t69.5 27.5q22 0 70 -22t62 -22q35 0 59 49h26q-5 -38 -36 -69t-69 -31q-20 0 -68 22q-54 26 -65 26q-23 0 -35.5 -11.5t-24.5 -37.5zM420 601l-161 -298h207l-44 298h-2zM97 93l344 609q24 6 36 11l6 -4l110 -621q9 -62 64 -62h8l-5 -26 q-21 0 -63 1t-63 1q-36 0 -108 -2l5 26h15q56 0 56 31q0 1 -0.5 3.5t-0.5 3.5l-30 198h-234l-82 -170q-11 -24 -11 -36q0 -30 43 -30h30l-5 -26q-20 0 -59 1t-59 1q-30 0 -92 -2l5 26h2q53 0 88 67z"/>
<glyph glyph-name="Adieresis" horiz-adv-x="722" unicode="Ä" d="M513 801q0 21 14 35t34 14q21 0 35.5 -14t14.5 -35q0 -20 -14.5 -34.5t-35.5 -14.5q-20 0 -34 14.5t-14 34.5zM313 801q0 21 14 35t34 14q21 0 35.5 -14t14.5 -35q0 -20 -14.5 -34.5t-35.5 -14.5q-20 0 -34 14.5t-14 34.5zM420 601l-161 -298h207l-44 298h-2zM97 93 l344 609q24 6 36 11l6 -4l110 -621q9 -62 64 -62h8l-5 -26q-21 0 -63 1t-63 1q-36 0 -108 -2l5 26h15q56 0 56 31q0 1 -0.5 3.5t-0.5 3.5l-30 198h-234l-82 -170q-11 -24 -11 -36q0 -30 43 -30h30l-5 -26q-20 0 -59 1t-59 1q-30 0 -92 -2l5 26h2q53 0 88 67z"/>
<glyph glyph-name="Aring" horiz-adv-x="722" unicode="Å" d="M464 763q27 0 46.5 19.5t19.5 46.5t-19.5 46.5t-46.5 19.5t-46.5 -19.5t-19.5 -46.5t19.5 -46.5t46.5 -19.5zM464 731q-40 0 -69 28.5t-29 69.5t29 69.5t69 28.5t69 -28.5t29 -69.5t-29 -69.5t-69 -28.5zM420 601l-161 -298h207l-44 298h-2zM97 93l344 609q24 6 36 11 l6 -4l110 -621q9 -62 64 -62h8l-5 -26q-21 0 -63 1t-63 1q-36 0 -108 -2l5 26h15q56 0 56 31q0 1 -0.5 3.5t-0.5 3.5l-30 198h-234l-82 -170q-11 -24 -11 -36q0 -30 43 -30h30l-5 -26q-20 0 -59 1t-59 1q-30 0 -92 -2l5 26h2q53 0 88 67z"/>
<glyph glyph-name="AE" horiz-adv-x="1000" unicode="Æ" d="M346 382h157l46 270q2 12 -3 12q-2 0 -4.5 -1.5t-3.5 -2.5t-2.5 -4.5t-2.5 -4.5zM-1 0l5 26h9q23 0 44.5 16.5t56.5 67.5l356 516q9 14 9 24q0 13 -15.5 17.5t-51.5 4.5h-14l5 26q90 -3 176 -3q16 0 47 0.5t45 0.5q40 0 121 1t122 1l-21 -139h-20v44q0 27 -15 40 t-54.5 18t-124.5 5h-40l-49 -284h85h9q70 0 82 45l13 48h23l-42 -227h-21l3 39v7q0 28 -20 37.5t-64 9.5h-75l-33 -224q-6 -39 -6 -46q0 -21 30 -30t67 -9h53q68 0 109 27.5t58 102.5h26l-41 -162q-83 2 -249 2q-169 0 -254 -2l7 26h16q51 2 67.5 21.5t28.5 89.5l35 204 h-179l-172 -269q-9 -12 -9 -23q0 -23 49 -23h15l-5 -26q-17 0 -51.5 1t-51.5 1q-32 0 -94 -2z"/>
<glyph glyph-name="Ccedilla" horiz-adv-x="722" unicode="Ç" d="M725 679l-33 -176l-20 6q1 8 1 23q0 61 -40 101q-48 48 -131 48q-73 0 -134 -33t-98 -85.5t-57.5 -115.5t-20.5 -126q0 -136 59 -220t171 -84q90 0 145.5 46t94.5 136l22 -5l-40 -170q-12 8 -27 8q-6 0 -17 -3.5t-27.5 -10.5t-23.5 -10q-62 -23 -128 -23q-19 0 -28 1 l-34 -50l2 -2q8 5 31 5q30 0 49.5 -17t19.5 -49q0 -45 -34.5 -65.5t-82.5 -20.5q-45 0 -90 21l18 26q36 -15 56 -15q26 0 46.5 11t20.5 35q0 19 -13 30.5t-32 11.5q-21 0 -39 -9l-7 10l55 82q-122 19 -196.5 108t-74.5 223q0 162 116.5 277t277.5 115q51 0 89 -7.5t55 -16 t31.5 -16t24.5 -7.5q5 0 9.5 2.5t7 4.5t7.5 7t7 6z"/>
<glyph glyph-name="Egrave" horiz-adv-x="667" unicode="È" d="M346 888l121 -151h-21q-6 0 -17 8l-117 88q-29 24 -29 39q0 11 9.5 21.5t20.5 10.5q19 0 33 -16zM19 0l5 26h14h3q41 0 55.5 16t21.5 51l94 515q2 9 2 25q0 15 -16 27t-49 12h-20l5 26q27 0 112 -2t131 -2t130.5 2t111.5 2l-11 -139h-20v24q0 52 -32 67.5t-122 15.5h-122 l-52 -284h130h9q76 0 88 45l13 48h17l-41 -227h-16l3 39v7q0 28 -21 37.5t-69 9.5h-119l-39 -223q-5 -33 -5 -38q0 -48 57 -48h157q29 0 49.5 2.5t37 10.5t27 16t22 27t18.5 34t20 46h23l-45 -168q-14 0 -142.5 1t-194.5 1q-74 0 -220 -2z"/>
<glyph glyph-name="Eacute" horiz-adv-x="667" unicode="É" d="M369 737h-26l152 148q25 19 34 19q12 0 22 -10t10 -23q0 -17 -35 -39l-115 -75q-29 -20 -42 -20zM19 0l5 26h14h3q41 0 55.5 16t21.5 51l94 515q2 9 2 25q0 15 -16 27t-49 12h-20l5 26q27 0 112 -2t131 -2t130.5 2t111.5 2l-11 -139h-20v24q0 52 -32 67.5t-122 15.5h-122 l-52 -284h130h9q76 0 88 45l13 48h17l-41 -227h-16l3 39v7q0 28 -21 37.5t-69 9.5h-119l-39 -223q-5 -33 -5 -38q0 -48 57 -48h157q29 0 49.5 2.5t37 10.5t27 16t22 27t18.5 34t20 46h23l-45 -168q-14 0 -142.5 1t-194.5 1q-74 0 -220 -2z"/>
<glyph glyph-name="Ecircumflex" horiz-adv-x="667" unicode="Ê" d="M451 904l88 -167h-33l-82 107l-135 -107h-37l161 167h38zM19 0l5 26h14h3q41 0 55.5 16t21.5 51l94 515q2 9 2 25q0 15 -16 27t-49 12h-20l5 26q27 0 112 -2t131 -2t130.5 2t111.5 2l-11 -139h-20v24q0 52 -32 67.5t-122 15.5h-122l-52 -284h130h9q76 0 88 45l13 48h17 l-41 -227h-16l3 39v7q0 28 -21 37.5t-69 9.5h-119l-39 -223q-5 -33 -5 -38q0 -48 57 -48h157q29 0 49.5 2.5t37 10.5t27 16t22 27t18.5 34t20 46h23l-45 -168q-14 0 -142.5 1t-194.5 1q-74 0 -220 -2z"/>
<glyph glyph-name="Edieresis" horiz-adv-x="667" unicode="Ë" d="M459 801q0 21 14 35t34 14q21 0 35.5 -14t14.5 -35q0 -20 -14.5 -34.5t-35.5 -14.5q-20 0 -34 14.5t-14 34.5zM259 801q0 21 14 35t34 14q21 0 35.5 -14t14.5 -35q0 -20 -14.5 -34.5t-35.5 -14.5q-20 0 -34 14.5t-14 34.5zM19 0l5 26h14h3q41 0 55.5 16t21.5 51l94 515 q2 9 2 25q0 15 -16 27t-49 12h-20l5 26q27 0 112 -2t131 -2t130.5 2t111.5 2l-11 -139h-20v24q0 52 -32 67.5t-122 15.5h-122l-52 -284h130h9q76 0 88 45l13 48h17l-41 -227h-16l3 39v7q0 28 -21 37.5t-69 9.5h-119l-39 -223q-5 -33 -5 -38q0 -48 57 -48h157q29 0 49.5 2.5 t37 10.5t27 16t22 27t18.5 34t20 46h23l-45 -168q-14 0 -142.5 1t-194.5 1q-74 0 -220 -2z"/>
<glyph glyph-name="Igrave" horiz-adv-x="389" unicode="Ì" d="M232 888l121 -151h-21q-6 0 -17 8l-117 88q-29 24 -29 39q0 11 9.5 21.5t20.5 10.5q19 0 33 -16zM23 0l5 26h17q41 0 53 12.5t23 58.5l97 529q1 4 1 11q0 35 -55 35h-13h-18l5 26q50 -2 147 -2q19 0 58 1t59 1l-5 -26h-19h-10q-51 0 -60 -43l-98 -533q-3 -18 -3 -30 q0 -25 15 -32.5t54 -7.5h15l-5 -26q-22 0 -66.5 1t-66.5 1q-44 0 -130 -2z"/>
<glyph glyph-name="Iacute" horiz-adv-x="389" unicode="Í" d="M255 737h-26l152 148q25 19 34 19q12 0 22 -10t10 -23q0 -17 -35 -39l-115 -75q-29 -20 -42 -20zM23 0l5 26h17q41 0 53 12.5t23 58.5l97 529q1 4 1 11q0 35 -55 35h-13h-18l5 26q50 -2 147 -2q19 0 58 1t59 1l-5 -26h-19h-10q-51 0 -60 -43l-98 -533q-3 -18 -3 -30 q0 -25 15 -32.5t54 -7.5h15l-5 -26q-22 0 -66.5 1t-66.5 1q-44 0 -130 -2z"/>
<glyph glyph-name="Icircumflex" horiz-adv-x="389" unicode="Î" d="M337 904l88 -167h-33l-82 107l-135 -107h-37l161 167h38zM23 0l5 26h17q41 0 53 12.5t23 58.5l97 529q1 4 1 11q0 35 -55 35h-13h-18l5 26q50 -2 147 -2q19 0 58 1t59 1l-5 -26h-19h-10q-51 0 -60 -43l-98 -533q-3 -18 -3 -30q0 -25 15 -32.5t54 -7.5h15l-5 -26 q-22 0 -66.5 1t-66.5 1q-44 0 -130 -2z"/>
<glyph glyph-name="Idieresis" horiz-adv-x="389" unicode="Ï" d="M345 801q0 21 14 35t34 14q21 0 35.5 -14t14.5 -35q0 -20 -14.5 -34.5t-35.5 -14.5q-20 0 -34 14.5t-14 34.5zM145 801q0 21 14 35t34 14q21 0 35.5 -14t14.5 -35q0 -20 -14.5 -34.5t-35.5 -14.5q-20 0 -34 14.5t-14 34.5zM23 0l5 26h17q41 0 53 12.5t23 58.5l97 529 q1 4 1 11q0 35 -55 35h-13h-18l5 26q50 -2 147 -2q19 0 58 1t59 1l-5 -26h-19h-10q-51 0 -60 -43l-98 -533q-3 -18 -3 -30q0 -25 15 -32.5t54 -7.5h15l-5 -26q-22 0 -66.5 1t-66.5 1q-44 0 -130 -2z"/>
<glyph glyph-name="Eth" horiz-adv-x="833" unicode="Ð" d="M475 382l-7 -41h-211l-46 -247q-1 -4 -1 -12q0 -17 10.5 -27.5t32 -15t40 -6t47.5 -1.5q151 0 241.5 105t90.5 259q0 91 -43 151.5t-95 84.5q-41 19 -69.5 26.5t-77.5 7.5q-25 0 -70 -3l-52 -281h210zM122 96l45 245h-91l7 41h92l31 169q10 45 10 79q0 22 -16 30.5 t-54 11.5h-19l5 26q60 -3 119 -3q21 0 66 1.5t83 1.5q98 0 155 -20.5t102 -55.5q113 -86 113 -240q0 -172 -117.5 -277t-293.5 -105q-22 0 -66.5 0.5t-66.5 0.5q-34 0 -101.5 -0.5t-101.5 -0.5l5 26h22q36 2 50.5 15t21.5 55z"/>
<glyph glyph-name="Ntilde" horiz-adv-x="833" unicode="Ñ" d="M369 759h-27q10 41 38.5 68.5t69.5 27.5q22 0 70 -22t62 -22q35 0 59 49h26q-5 -38 -36 -69t-69 -31q-20 0 -68 22q-54 26 -65 26q-23 0 -35.5 -11.5t-24.5 -37.5zM19 0l4 26h14q31 0 46.5 7.5t28.5 37t24 91.5l76 432q1 3 -6.5 15t-21 26.5t-26.5 19.5q-34 17 -56 17h-9 l4 26q45 -3 91 -3q11 0 33.5 1.5t33.5 1.5l382 -567l71 417q7 31 7 67q0 25 -11 38t-24.5 16t-37.5 3h-19l4 26q55 -3 111 -3q20 0 59 1.5t59 1.5l-4 -26h-15q-10 0 -18 -2t-14.5 -4t-12 -8t-9.5 -9.5t-7.5 -12.5t-5.5 -13t-4.5 -16t-3.5 -16.5t-3.5 -18.5t-3.5 -19 l-86 -467q34 -56 71 -66l-5 -20q-40 2 -59 2q-20 0 -60 -2l-371 551l-66 -404q-10 -62 -10 -75q0 -46 64 -46h32l-5 -26q-20 0 -60.5 1t-60.5 1q-40 0 -120 -2z"/>
<glyph glyph-name="Ograve" horiz-adv-x="889" unicode="Ò" d="M482 888l121 -151h-21q-6 0 -17 8l-117 88q-29 24 -29 39q0 11 9.5 21.5t20.5 10.5q19 0 33 -16zM88 315q0 166 115.5 282t279.5 116q140 0 241.5 -88.5t101.5 -226.5q0 -173 -114 -293t-286 -120q-152 0 -245 89.5t-93 240.5zM186 294q0 -126 60 -201.5t185 -75.5 q93 0 163 61t102 145.5t32 172.5q0 122 -62 203.5t-182 81.5q-74 0 -133 -35t-94 -92t-53 -123.5t-18 -136.5z"/>
<glyph glyph-name="Oacute" horiz-adv-x="889" unicode="Ó" d="M505 737h-26l152 148q25 19 34 19q12 0 22 -10t10 -23q0 -17 -35 -39l-115 -75q-29 -20 -42 -20zM88 315q0 166 115.5 282t279.5 116q140 0 241.5 -88.5t101.5 -226.5q0 -173 -114 -293t-286 -120q-152 0 -245 89.5t-93 240.5zM186 294q0 -126 60 -201.5t185 -75.5 q93 0 163 61t102 145.5t32 172.5q0 122 -62 203.5t-182 81.5q-74 0 -133 -35t-94 -92t-53 -123.5t-18 -136.5z"/>
<glyph glyph-name="Ocircumflex" horiz-adv-x="889" unicode="Ô" d="M587 904l88 -167h-33l-82 107l-135 -107h-37l161 167h38zM88 315q0 166 115.5 282t279.5 116q140 0 241.5 -88.5t101.5 -226.5q0 -173 -114 -293t-286 -120q-152 0 -245 89.5t-93 240.5zM186 294q0 -126 60 -201.5t185 -75.5q93 0 163 61t102 145.5t32 172.5 q0 122 -62 203.5t-182 81.5q-74 0 -133 -35t-94 -92t-53 -123.5t-18 -136.5z"/>
<glyph glyph-name="Otilde" horiz-adv-x="889" unicode="Õ" d="M392 759h-27q10 41 38.5 68.5t69.5 27.5q22 0 70 -22t62 -22q35 0 59 49h26q-5 -38 -36 -69t-69 -31q-20 0 -68 22q-54 26 -65 26q-23 0 -35.5 -11.5t-24.5 -37.5zM88 315q0 166 115.5 282t279.5 116q140 0 241.5 -88.5t101.5 -226.5q0 -173 -114 -293t-286 -120 q-152 0 -245 89.5t-93 240.5zM186 294q0 -126 60 -201.5t185 -75.5q93 0 163 61t102 145.5t32 172.5q0 122 -62 203.5t-182 81.5q-74 0 -133 -35t-94 -92t-53 -123.5t-18 -136.5z"/>
<glyph glyph-name="Odieresis" horiz-adv-x="889" unicode="Ö" d="M595 801q0 21 14 35t34 14q21 0 35.5 -14t14.5 -35q0 -20 -14.5 -34.5t-35.5 -14.5q-20 0 -34 14.5t-14 34.5zM395 801q0 21 14 35t34 14q21 0 35.5 -14t14.5 -35q0 -20 -14.5 -34.5t-35.5 -14.5q-20 0 -34 14.5t-14 34.5zM88 315q0 166 115.5 282t279.5 116 q140 0 241.5 -88.5t101.5 -226.5q0 -173 -114 -293t-286 -120q-152 0 -245 89.5t-93 240.5zM186 294q0 -126 60 -201.5t185 -75.5q93 0 163 61t102 145.5t32 172.5q0 122 -62 203.5t-182 81.5q-74 0 -133 -35t-94 -92t-53 -123.5t-18 -136.5z"/>
<glyph glyph-name="multiply" d="M278 176l-174 -173l-47 46l176 172l-176 175l48 46l173 -175l173 175l48 -46l-176 -175l176 -172l-47 -46z" unicode="×"/>
<glyph glyph-name="Oslash" horiz-adv-x="889" unicode="Ø" d="M695 554l-458 -448q62 -89 194 -89q93 0 163 61t102 145.5t32 172.5q0 89 -33 158zM827 730l21 -26l-102 -100q80 -86 80 -206q0 -173 -114 -293t-286 -120q-142 0 -232 79l-98 -95l-24 23l98 95q-82 88 -82 228q0 166 115.5 282t279.5 116q140 0 239 -86zM219 135 l459 449q-65 97 -194 97q-74 0 -133 -35t-94 -92t-53 -123.5t-18 -136.5q0 -94 33 -159z"/>
<glyph glyph-name="Ugrave" horiz-adv-x="778" unicode="Ù" d="M426 888l121 -151h-21q-6 0 -17 8l-117 88q-29 24 -29 39q0 11 9.5 21.5t20.5 10.5q19 0 33 -16zM155 298l45 259q7 42 7 62q0 19 -5.5 30.5t-18 16t-22 5.5t-29.5 1h-19l5 26q52 -2 157 -2q22 0 66 1t67 1l-5 -25h-23q-39 -2 -59 -26t-32 -98l-54 -335q-3 -21 -3 -40 q0 -72 48.5 -110t114.5 -38q37 0 66.5 8t49.5 19.5t36.5 34.5t25.5 41.5t17.5 52t12.5 55t10 61.5l48 274q3 17 3 38q0 62 -85 62h-15l5 26q40 -2 123 -2q18 0 54.5 1t54.5 1l-5 -26h-13q-15 0 -27 -5t-20.5 -17t-14 -21t-10 -28.5t-6.5 -28t-5 -30t-4 -25.5l-44 -266 q-14 -84 -30 -124.5t-52 -75.5q-68 -66 -195 -66q-97 0 -166 45.5t-69 137.5q0 49 15 130z"/>
<glyph glyph-name="Uacute" horiz-adv-x="778" unicode="Ú" d="M449 737h-26l152 148q25 19 34 19q12 0 22 -10t10 -23q0 -17 -35 -39l-115 -75q-29 -20 -42 -20zM155 298l45 259q7 42 7 62q0 19 -5.5 30.5t-18 16t-22 5.5t-29.5 1h-19l5 26q52 -2 157 -2q22 0 66 1t67 1l-5 -25h-23q-39 -2 -59 -26t-32 -98l-54 -335q-3 -21 -3 -40 q0 -72 48.5 -110t114.5 -38q37 0 66.5 8t49.5 19.5t36.5 34.5t25.5 41.5t17.5 52t12.5 55t10 61.5l48 274q3 17 3 38q0 62 -85 62h-15l5 26q40 -2 123 -2q18 0 54.5 1t54.5 1l-5 -26h-13q-15 0 -27 -5t-20.5 -17t-14 -21t-10 -28.5t-6.5 -28t-5 -30t-4 -25.5l-44 -266 q-14 -84 -30 -124.5t-52 -75.5q-68 -66 -195 -66q-97 0 -166 45.5t-69 137.5q0 49 15 130z"/>
<glyph glyph-name="Ucircumflex" horiz-adv-x="778" unicode="Û" d="M531 904l88 -167h-33l-82 107l-135 -107h-37l161 167h38zM155 298l45 259q7 42 7 62q0 19 -5.5 30.5t-18 16t-22 5.5t-29.5 1h-19l5 26q52 -2 157 -2q22 0 66 1t67 1l-5 -25h-23q-39 -2 -59 -26t-32 -98l-54 -335q-3 -21 -3 -40q0 -72 48.5 -110t114.5 -38q37 0 66.5 8 t49.5 19.5t36.5 34.5t25.5 41.5t17.5 52t12.5 55t10 61.5l48 274q3 17 3 38q0 62 -85 62h-15l5 26q40 -2 123 -2q18 0 54.5 1t54.5 1l-5 -26h-13q-15 0 -27 -5t-20.5 -17t-14 -21t-10 -28.5t-6.5 -28t-5 -30t-4 -25.5l-44 -266q-14 -84 -30 -124.5t-52 -75.5 q-68 -66 -195 -66q-97 0 -166 45.5t-69 137.5q0 49 15 130z"/>
<glyph glyph-name="Udieresis" horiz-adv-x="778" unicode="Ü" d="M544 801q0 21 14 35t34 14q21 0 35.5 -14t14.5 -35q0 -20 -14.5 -34.5t-35.5 -14.5q-20 0 -34 14.5t-14 34.5zM344 801q0 21 14 35t34 14q21 0 35.5 -14t14.5 -35q0 -20 -14.5 -34.5t-35.5 -14.5q-20 0 -34 14.5t-14 34.5zM155 298l45 259q7 42 7 62q0 19 -5.5 30.5 t-18 16t-22 5.5t-29.5 1h-19l5 26q52 -2 157 -2q22 0 66 1t67 1l-5 -25h-23q-39 -2 -59 -26t-32 -98l-54 -335q-3 -21 -3 -40q0 -72 48.5 -110t114.5 -38q37 0 66.5 8t49.5 19.5t36.5 34.5t25.5 41.5t17.5 52t12.5 55t10 61.5l48 274q3 17 3 38q0 62 -85 62h-15l5 26 q40 -2 123 -2q18 0 54.5 1t54.5 1l-5 -26h-13q-15 0 -27 -5t-20.5 -17t-14 -21t-10 -28.5t-6.5 -28t-5 -30t-4 -25.5l-44 -266q-14 -84 -30 -124.5t-52 -75.5q-68 -66 -195 -66q-97 0 -166 45.5t-69 137.5q0 49 15 130z"/>
<glyph glyph-name="Yacute" horiz-adv-x="667" unicode="Ý" d="M394 737h-26l152 148q25 19 34 19q12 0 22 -10t10 -23q0 -17 -35 -39l-115 -75q-29 -20 -42 -20zM351 698l-5 -26h-36q-36 0 -36 -24q0 -6 3 -13l128 -303l182 285q13 20 13 34q0 21 -62 21h-17l4 26q40 -2 121 -2q49 0 74 2l-5 -26h-4q-31 0 -63 -47l-10 -15l-220 -323 l-37 -196q-2 -16 -2 -21q0 -21 12 -31t25.5 -11.5t41.5 -1.5h18l-5 -26q-25 0 -77 1t-77 1q-43 0 -129 -2l4 26h22h5q39 0 51.5 12t19.5 48l38 199l-154 352q-16 35 -71 35h-10l4 26q41 -2 123 -2q22 0 65.5 1t65.5 1z"/>
<glyph glyph-name="Thorn" horiz-adv-x="611" unicode="Þ" d="M116 82l99 547q1 3 1 8q0 35 -67 35h-15h-18l5 26q94 -2 141 -2q45 0 137 2l-5 -26h-21q-30 0 -45.5 -10.5t-21.5 -45.5l-7 -44q45 3 93 3q81 0 133 -38t52 -116q0 -97 -72.5 -152.5t-171.5 -55.5q-58 0 -100 6l-21 -114l-5 -36q0 -43 65 -43h16h18l-5 -26q-94 2 -141 2 q-45 0 -137 -2l5 26h21q21 2 31 4.5t20.5 15t15.5 36.5zM292 540l-54 -291q33 -4 80 -4q66 0 113.5 42.5t47.5 132.5q0 63 -32 93t-101 30q-8 0 -25.5 -1.5t-28.5 -1.5z"/>
<glyph glyph-name="germandbls" d="M3 -228l146 668q17 68 32 106q29 73 108 145.5t149 72.5q54 0 88 -31.5t34 -84.5q0 -19 -3.5 -35.5t-12 -31.5t-15 -25t-22.5 -24.5t-23.5 -20.5t-28 -21t-26.5 -20q-17 -13 -26 -21t-17.5 -23t-8.5 -31q0 -21 17 -51.5t37.5 -57t37.5 -62.5t17 -66q0 -58 -50 -110 q-65 -63 -141 -63q-27 0 -50 16t-23 42q0 33 28 52h8q36 -56 95 -56q32 0 53 17t21 47q0 28 -19.5 63t-42.5 63t-42.5 64.5t-19.5 68.5q0 27 19 51.5t45.5 45.5t53.5 43t46 52.5t19 65.5q0 40 -25 62t-66 22q-28 0 -50.5 -12.5t-36 -28t-25.5 -44.5t-17 -46.5t-13 -49.5 l-181 -721l-60 -30h-9z" unicode="ß"/>
<glyph glyph-name="agrave" horiz-adv-x="500" unicode="à" d="M262 697l121 -151h-21q-6 0 -17 8l-117 88q-29 24 -29 39q0 11 9.5 21.5t20.5 10.5q19 0 33 -16zM400 424l14 32q11 20 22 20h21q9 0 9 -5l-2 -8l-99 -355q-4 -12 -4 -25q0 -14 12 -14q13 0 26 10t28 27.5t20 21.5l16 -13q-8 -8 -32 -36.5t-40 -45t-41 -32.5t-47 -16 q-13 0 -23.5 7t-10.5 21q0 20 17 73l28 88l-1 3q-50 -75 -110 -133.5t-114 -58.5q-41 0 -58.5 25t-17.5 58q0 77 53.5 169.5t130.5 156t140 63.5q37 0 63 -33zM87 128q0 -69 51 -69q45 0 98.5 56.5t88 127.5t34.5 116q0 19 -15.5 35t-34.5 16q-51 0 -104.5 -50t-85.5 -116 t-32 -116z"/>
<glyph glyph-name="aacute" horiz-adv-x="500" unicode="á" d="M285 546h-26l152 148q25 19 34 19q12 0 22 -10t10 -23q0 -17 -35 -39l-115 -75q-29 -20 -42 -20zM400 424l14 32q11 20 22 20h21q9 0 9 -5l-2 -8l-99 -355q-4 -12 -4 -25q0 -14 12 -14q13 0 26 10t28 27.5t20 21.5l16 -13q-8 -8 -32 -36.5t-40 -45t-41 -32.5t-47 -16 q-13 0 -23.5 7t-10.5 21q0 20 17 73l28 88l-1 3q-50 -75 -110 -133.5t-114 -58.5q-41 0 -58.5 25t-17.5 58q0 77 53.5 169.5t130.5 156t140 63.5q37 0 63 -33zM87 128q0 -69 51 -69q45 0 98.5 56.5t88 127.5t34.5 116q0 19 -15.5 35t-34.5 16q-51 0 -104.5 -50t-85.5 -116 t-32 -116z"/>
<glyph glyph-name="acircumflex" horiz-adv-x="500" unicode="â" d="M367 713l88 -167h-33l-82 107l-135 -107h-37l161 167h38zM400 424l14 32q11 20 22 20h21q9 0 9 -5l-2 -8l-99 -355q-4 -12 -4 -25q0 -14 12 -14q13 0 26 10t28 27.5t20 21.5l16 -13q-8 -8 -32 -36.5t-40 -45t-41 -32.5t-47 -16q-13 0 -23.5 7t-10.5 21q0 20 17 73l28 88 l-1 3q-50 -75 -110 -133.5t-114 -58.5q-41 0 -58.5 25t-17.5 58q0 77 53.5 169.5t130.5 156t140 63.5q37 0 63 -33zM87 128q0 -69 51 -69q45 0 98.5 56.5t88 127.5t34.5 116q0 19 -15.5 35t-34.5 16q-51 0 -104.5 -50t-85.5 -116t-32 -116z"/>
<glyph glyph-name="atilde" horiz-adv-x="500" unicode="ã" d="M172 568h-27q10 41 38.5 68.5t69.5 27.5q22 0 70 -22t62 -22q35 0 59 49h26q-5 -38 -36 -69t-69 -31q-20 0 -68 22q-54 26 -65 26q-23 0 -35.5 -11.5t-24.5 -37.5zM400 424l14 32q11 20 22 20h21q9 0 9 -5l-2 -8l-99 -355q-4 -12 -4 -25q0 -14 12 -14q13 0 26 10t28 27.5 t20 21.5l16 -13q-8 -8 -32 -36.5t-40 -45t-41 -32.5t-47 -16q-13 0 -23.5 7t-10.5 21q0 20 17 73l28 88l-1 3q-50 -75 -110 -133.5t-114 -58.5q-41 0 -58.5 25t-17.5 58q0 77 53.5 169.5t130.5 156t140 63.5q37 0 63 -33zM87 128q0 -69 51 -69q45 0 98.5 56.5t88 127.5 t34.5 116q0 19 -15.5 35t-34.5 16q-51 0 -104.5 -50t-85.5 -116t-32 -116z"/>
<glyph glyph-name="adieresis" horiz-adv-x="500" unicode="ä" d="M375 610q0 21 14 35t34 14q21 0 35.5 -14t14.5 -35q0 -20 -14.5 -34.5t-35.5 -14.5q-20 0 -34 14.5t-14 34.5zM175 610q0 21 14 35t34 14q21 0 35.5 -14t14.5 -35q0 -20 -14.5 -34.5t-35.5 -14.5q-20 0 -34 14.5t-14 34.5zM400 424l14 32q11 20 22 20h21q9 0 9 -5l-2 -8 l-99 -355q-4 -12 -4 -25q0 -14 12 -14q13 0 26 10t28 27.5t20 21.5l16 -13q-8 -8 -32 -36.5t-40 -45t-41 -32.5t-47 -16q-13 0 -23.5 7t-10.5 21q0 20 17 73l28 88l-1 3q-50 -75 -110 -133.5t-114 -58.5q-41 0 -58.5 25t-17.5 58q0 77 53.5 169.5t130.5 156t140 63.5 q37 0 63 -33zM87 128q0 -69 51 -69q45 0 98.5 56.5t88 127.5t34.5 116q0 19 -15.5 35t-34.5 16q-51 0 -104.5 -50t-85.5 -116t-32 -116z"/>
<glyph glyph-name="aring" horiz-adv-x="500" unicode="å" d="M362 558q27 0 46.5 19.5t19.5 46.5t-19.5 46.5t-46.5 19.5t-46.5 -19.5t-19.5 -46.5t19.5 -46.5t46.5 -19.5zM362 526q-40 0 -69 29t-29 69t29 69t69 29t69 -29t29 -69t-29 -69t-69 -29zM400 424l14 32q11 20 22 20h21q9 0 9 -5l-2 -8l-99 -355q-4 -12 -4 -25 q0 -14 12 -14q13 0 26 10t28 27.5t20 21.5l16 -13q-8 -8 -32 -36.5t-40 -45t-41 -32.5t-47 -16q-13 0 -23.5 7t-10.5 21q0 20 17 73l28 88l-1 3q-50 -75 -110 -133.5t-114 -58.5q-41 0 -58.5 25t-17.5 58q0 77 53.5 169.5t130.5 156t140 63.5q37 0 63 -33zM87 128 q0 -69 51 -69q45 0 98.5 56.5t88 127.5t34.5 116q0 19 -15.5 35t-34.5 16q-51 0 -104.5 -50t-85.5 -116t-32 -116z"/>
<glyph glyph-name="ae" horiz-adv-x="722" unicode="æ" d="M618 381q0 21 -12 32.5t-32 11.5q-62 0 -115 -68t-69 -138q44 0 95.5 19.5t92 58.5t40.5 84zM96 113q0 -54 46 -54q39 0 92 52.5t90 122t37 116.5q0 51 -53 51t-104 -52t-79.5 -119t-28.5 -117zM411 417l31 64l44 8l15 -5l-38 -81h2q80 54 145 54q88 0 88 -65 q0 -48 -33.5 -86.5t-85.5 -61t-101.5 -35t-94.5 -16.5q-8 -42 -8 -60q0 -94 85 -94q32 0 66 14t56.5 29t55.5 41l15 -15q-114 -123 -232 -123q-58 0 -89 31t-31 89q0 15 2 43h-2q-37 -54 -99 -108.5t-113 -54.5h-5q-62 0 -62 92q0 70 48.5 156t124.5 147.5t146 61.5 q40 0 70 -25z"/>
<glyph glyph-name="ccedilla" horiz-adv-x="444" unicode="ç" d="M402 146l14 -18q-109 -125 -211 -140l-35 -52l2 -2q8 5 31 5q30 0 49.5 -17t19.5 -49q0 -45 -34.5 -65.5t-82.5 -20.5q-45 0 -90 21l18 26q36 -15 56 -15q26 0 46.5 11t20.5 35q0 19 -13 30.5t-32 11.5q-21 0 -39 -9l-7 10l52 77q-57 1 -88 38.5t-31 97.5q0 98 64 181 t157 121q79 34 112 34q18 0 33.5 -11t15.5 -29q0 -22 -13.5 -37t-32.5 -15q-18 0 -42.5 16t-39.5 16q-47 0 -89 -50t-63.5 -111t-21.5 -105q0 -43 25.5 -67.5t69.5 -24.5q79 0 179 107z"/>
<glyph glyph-name="egrave" horiz-adv-x="444" unicode="è" d="M234 697l121 -151h-21q-6 0 -17 8l-117 88q-29 24 -29 39q0 11 9.5 21.5t20.5 10.5q19 0 33 -16zM129 219q50 3 96.5 20t81.5 54.5t35 88.5q0 20 -11 31.5t-30 11.5q-52 0 -104.5 -72.5t-67.5 -133.5zM372 132l14 -17q-118 -130 -227 -130q-64 0 -93.5 39t-29.5 96 q0 122 90.5 229.5t197.5 107.5q40 0 69 -16.5t29 -54.5q0 -48 -30.5 -85.5t-79.5 -59t-95.5 -33t-92.5 -15.5q-8 -35 -8 -77q0 -36 23 -56.5t59 -20.5q78 0 174 93z"/>
<glyph glyph-name="eacute" horiz-adv-x="444" unicode="é" d="M257 546h-26l152 148q25 19 34 19q12 0 22 -10t10 -23q0 -17 -35 -39l-115 -75q-29 -20 -42 -20zM129 219q50 3 96.5 20t81.5 54.5t35 88.5q0 20 -11 31.5t-30 11.5q-52 0 -104.5 -72.5t-67.5 -133.5zM372 132l14 -17q-118 -130 -227 -130q-64 0 -93.5 39t-29.5 96 q0 122 90.5 229.5t197.5 107.5q40 0 69 -16.5t29 -54.5q0 -48 -30.5 -85.5t-79.5 -59t-95.5 -33t-92.5 -15.5q-8 -35 -8 -77q0 -36 23 -56.5t59 -20.5q78 0 174 93z"/>
<glyph glyph-name="ecircumflex" horiz-adv-x="444" unicode="ê" d="M339 713l88 -167h-33l-82 107l-135 -107h-37l161 167h38zM129 219q50 3 96.5 20t81.5 54.5t35 88.5q0 20 -11 31.5t-30 11.5q-52 0 -104.5 -72.5t-67.5 -133.5zM372 132l14 -17q-118 -130 -227 -130q-64 0 -93.5 39t-29.5 96q0 122 90.5 229.5t197.5 107.5q40 0 69 -16.5 t29 -54.5q0 -48 -30.5 -85.5t-79.5 -59t-95.5 -33t-92.5 -15.5q-8 -35 -8 -77q0 -36 23 -56.5t59 -20.5q78 0 174 93z"/>
<glyph glyph-name="edieresis" horiz-adv-x="444" unicode="ë" d="M347 610q0 21 14 35t34 14q21 0 35.5 -14t14.5 -35q0 -20 -14.5 -34.5t-35.5 -14.5q-20 0 -34 14.5t-14 34.5zM147 610q0 21 14 35t34 14q21 0 35.5 -14t14.5 -35q0 -20 -14.5 -34.5t-35.5 -14.5q-20 0 -34 14.5t-14 34.5zM129 219q50 3 96.5 20t81.5 54.5t35 88.5 q0 20 -11 31.5t-30 11.5q-52 0 -104.5 -72.5t-67.5 -133.5zM372 132l14 -17q-118 -130 -227 -130q-64 0 -93.5 39t-29.5 96q0 122 90.5 229.5t197.5 107.5q40 0 69 -16.5t29 -54.5q0 -48 -30.5 -85.5t-79.5 -59t-95.5 -33t-92.5 -15.5q-8 -35 -8 -77q0 -36 23 -56.5 t59 -20.5q78 0 174 93z"/>
<glyph glyph-name="igrave" horiz-adv-x="278" unicode="ì" d="M151 697l121 -151h-21q-6 0 -17 8l-117 88q-29 24 -29 39q0 11 9.5 21.5t20.5 10.5q19 0 33 -16zM63 313l-14 14q30 45 75 87.5t83 42.5q31 0 31 -25q0 -14 -14 -56l-82 -254q-10 -32 -10 -42q0 -15 13 -15q17 0 76 65l16 -13q-97 -132 -159 -132q-38 0 -38 40 q0 18 11 49l86 254q9 25 9 37t-12 12q-23 0 -71 -64z"/>
<glyph glyph-name="iacute" horiz-adv-x="278" unicode="í" d="M174 546h-26l152 148q25 19 34 19q12 0 22 -10t10 -23q0 -17 -35 -39l-115 -75q-29 -20 -42 -20zM63 313l-14 14q30 45 75 87.5t83 42.5q31 0 31 -25q0 -14 -14 -56l-82 -254q-10 -32 -10 -42q0 -15 13 -15q17 0 76 65l16 -13q-97 -132 -159 -132q-38 0 -38 40 q0 18 11 49l86 254q9 25 9 37t-12 12q-23 0 -71 -64z"/>
<glyph glyph-name="icircumflex" horiz-adv-x="278" unicode="î" d="M256 713l88 -167h-33l-82 107l-135 -107h-37l161 167h38zM63 313l-14 14q30 45 75 87.5t83 42.5q31 0 31 -25q0 -14 -14 -56l-82 -254q-10 -32 -10 -42q0 -15 13 -15q17 0 76 65l16 -13q-97 -132 -159 -132q-38 0 -38 40q0 18 11 49l86 254q9 25 9 37t-12 12 q-23 0 -71 -64z"/>
<glyph glyph-name="idieresis" horiz-adv-x="278" unicode="ï" d="M264 610q0 21 14 35t34 14q21 0 35.5 -14t14.5 -35q0 -20 -14.5 -34.5t-35.5 -14.5q-20 0 -34 14.5t-14 34.5zM64 610q0 21 14 35t34 14q21 0 35.5 -14t14.5 -35q0 -20 -14.5 -34.5t-35.5 -14.5q-20 0 -34 14.5t-14 34.5zM63 313l-14 14q30 45 75 87.5t83 42.5 q31 0 31 -25q0 -14 -14 -56l-82 -254q-10 -32 -10 -42q0 -15 13 -15q17 0 76 65l16 -13q-97 -132 -159 -132q-38 0 -38 40q0 18 11 49l86 254q9 25 9 37t-12 12q-23 0 -71 -64z"/>
<glyph glyph-name="eth" d="M48 186q0 108 80 189.5t188 81.5q65 0 106 -41h2q-20 112 -103 199l-145 -55l-20 34l132 51q-68 70 -121 97l22 22q90 -36 158 -96l132 53l19 -33l-120 -50q130 -133 130 -312q0 -159 -75.5 -250t-187.5 -91q-90 0 -143.5 55t-53.5 146zM128 152q0 -63 27 -102t89 -39 q60 0 104 49.5t62 111t18 118.5q0 61 -26.5 101t-86.5 40q-48 0 -85.5 -27.5t-58.5 -71t-32 -90t-11 -90.5z" unicode="ð"/>
<glyph glyph-name="ntilde" d="M200 568h-27q10 41 38.5 68.5t69.5 27.5q22 0 70 -22t62 -22q35 0 59 49h26q-5 -38 -36 -69t-69 -31q-20 0 -68 22q-54 26 -65 26q-23 0 -35.5 -11.5t-24.5 -37.5zM45 313l-15 18q102 126 174 126q34 0 34 -34q0 -15 -11 -48l-52 -151h2q20 29 53 66t74 76t86.5 65 t79.5 26h1q40 0 40 -41q0 -21 -10 -49l-80 -220q-15 -40 -15 -52q0 -21 18 -21t45 24t41 46l17 -13l-36 -44q-71 -87 -139 -87q-19 0 -28.5 9.5t-9.5 23.5q0 25 14 62l78 213q13 39 13 50q0 19 -23 19q-20 0 -40.5 -9.5t-43 -30.5t-32 -30.5t-30.5 -33.5q-85 -91 -125 -204 l-20 -57q-4 -11 -37 -11q-23 0 -32 13l98 295q12 38 12 50q0 18 -16 18q-24 0 -58 -34z" unicode="ñ"/>
<glyph glyph-name="ograve" d="M290 697l121 -151h-21q-6 0 -17 8l-117 88q-29 24 -29 39q0 11 9.5 21.5t20.5 10.5q19 0 33 -16zM48 186q0 108 80 189.5t188 81.5q86 0 139 -57.5t53 -145.5q0 -107 -78.5 -188t-184.5 -81q-90 0 -143.5 55t-53.5 146zM128 152q0 -63 27 -102t89 -39q60 0 104 49.5 t62 111t18 118.5q0 61 -26.5 101t-86.5 40q-48 0 -85.5 -27.5t-58.5 -71t-32 -90t-11 -90.5z" unicode="ò"/>
<glyph glyph-name="oacute" d="M313 546h-26l152 148q25 19 34 19q12 0 22 -10t10 -23q0 -17 -35 -39l-115 -75q-29 -20 -42 -20zM48 186q0 108 80 189.5t188 81.5q86 0 139 -57.5t53 -145.5q0 -107 -78.5 -188t-184.5 -81q-90 0 -143.5 55t-53.5 146zM128 152q0 -63 27 -102t89 -39q60 0 104 49.5 t62 111t18 118.5q0 61 -26.5 101t-86.5 40q-48 0 -85.5 -27.5t-58.5 -71t-32 -90t-11 -90.5z" unicode="ó"/>
<glyph glyph-name="ocircumflex" d="M395 713l88 -167h-33l-82 107l-135 -107h-37l161 167h38zM48 186q0 108 80 189.5t188 81.5q86 0 139 -57.5t53 -145.5q0 -107 -78.5 -188t-184.5 -81q-90 0 -143.5 55t-53.5 146zM128 152q0 -63 27 -102t89 -39q60 0 104 49.5t62 111t18 118.5q0 61 -26.5 101t-86.5 40 q-48 0 -85.5 -27.5t-58.5 -71t-32 -90t-11 -90.5z" unicode="ô"/>
<glyph glyph-name="otilde" d="M200 568h-27q10 41 38.5 68.5t69.5 27.5q22 0 70 -22t62 -22q35 0 59 49h26q-5 -38 -36 -69t-69 -31q-20 0 -68 22q-54 26 -65 26q-23 0 -35.5 -11.5t-24.5 -37.5zM48 186q0 108 80 189.5t188 81.5q86 0 139 -57.5t53 -145.5q0 -107 -78.5 -188t-184.5 -81 q-90 0 -143.5 55t-53.5 146zM128 152q0 -63 27 -102t89 -39q60 0 104 49.5t62 111t18 118.5q0 61 -26.5 101t-86.5 40q-48 0 -85.5 -27.5t-58.5 -71t-32 -90t-11 -90.5z" unicode="õ"/>
<glyph glyph-name="odieresis" d="M403 610q0 21 14 35t34 14q21 0 35.5 -14t14.5 -35q0 -20 -14.5 -34.5t-35.5 -14.5q-20 0 -34 14.5t-14 34.5zM203 610q0 21 14 35t34 14q21 0 35.5 -14t14.5 -35q0 -20 -14.5 -34.5t-35.5 -14.5q-20 0 -34 14.5t-14 34.5zM48 186q0 108 80 189.5t188 81.5 q86 0 139 -57.5t53 -145.5q0 -107 -78.5 -188t-184.5 -81q-90 0 -143.5 55t-53.5 146zM128 152q0 -63 27 -102t89 -39q60 0 104 49.5t62 111t18 118.5q0 61 -26.5 101t-86.5 40q-48 0 -85.5 -27.5t-58.5 -71t-32 -90t-11 -90.5z" unicode="ö"/>
<glyph glyph-name="divide" d="M212 391q0 28 19.5 47t46.5 19t46.5 -19.5t19.5 -46.5q0 -26 -19.5 -46t-46.5 -20t-46.5 19.5t-19.5 46.5zM212 51q0 28 19.5 47t47.5 19q26 0 45.5 -19.5t19.5 -46.5q0 -26 -19.5 -46t-45.5 -20q-28 0 -47.5 19.5t-19.5 46.5zM499 188h-442v66h442v-66z" unicode="÷"/>
<glyph glyph-name="oslash" d="M508 473l20 -18l-66 -65q46 -55 46 -136q0 -107 -78.5 -188t-184.5 -81q-84 0 -135 48l-61 -61l-21 20l62 62q-42 51 -42 132q0 108 80 189.5t188 81.5q76 0 129 -48zM244 11q60 0 104 49.5t62 111t18 118.5q0 33 -7 58l-276 -280q28 -57 99 -57zM410 374q-26 57 -95 57 q-48 0 -85.5 -27.5t-58.5 -71t-32 -90t-11 -90.5q0 -28 6 -54z" unicode="ø"/>
<glyph glyph-name="ugrave" d="M290 697l121 -151h-21q-6 0 -17 8l-117 88q-29 24 -29 39q0 11 9.5 21.5t20.5 10.5q19 0 33 -16zM505 136l14 -14q-3 -3 -14.5 -16t-16.5 -18t-16.5 -17.5t-19 -18.5t-19 -16t-21 -15t-20.5 -10.5t-22 -8t-22 -2.5q-37 0 -37 35q0 19 19 74l60 177h-2q-1 -2 -19.5 -26 t-28.5 -36t-32 -39.5t-37.5 -44.5t-38.5 -41t-41.5 -39.5t-39 -30.5t-39 -22t-34.5 -7q-17 0 -29.5 11.5t-12.5 27.5q0 11 10 43l87 258q4 11 4 22q0 15 -13 15q-10 0 -23 -8t-21.5 -16.5t-22 -23t-16.5 -17.5l-16 17l34 35q28 28 46 44t45.5 32.5t49.5 16.5q33 0 33 -32 q0 -18 -13 -52l-90 -269q-2 -10 -2 -14q0 -10 17 -10q47 0 154.5 135t136.5 211q12 31 34 31q13 0 45 -29l-109 -326q-3 -8 -3 -14q0 -14 15 -14q12 0 27.5 11t36 29.5t23.5 21.5z" unicode="ù"/>
<glyph glyph-name="uacute" d="M313 546h-26l152 148q25 19 34 19q12 0 22 -10t10 -23q0 -17 -35 -39l-115 -75q-29 -20 -42 -20zM505 136l14 -14q-3 -3 -14.5 -16t-16.5 -18t-16.5 -17.5t-19 -18.5t-19 -16t-21 -15t-20.5 -10.5t-22 -8t-22 -2.5q-37 0 -37 35q0 19 19 74l60 177h-2q-1 -2 -19.5 -26 t-28.5 -36t-32 -39.5t-37.5 -44.5t-38.5 -41t-41.5 -39.5t-39 -30.5t-39 -22t-34.5 -7q-17 0 -29.5 11.5t-12.5 27.5q0 11 10 43l87 258q4 11 4 22q0 15 -13 15q-10 0 -23 -8t-21.5 -16.5t-22 -23t-16.5 -17.5l-16 17l34 35q28 28 46 44t45.5 32.5t49.5 16.5q33 0 33 -32 q0 -18 -13 -52l-90 -269q-2 -10 -2 -14q0 -10 17 -10q47 0 154.5 135t136.5 211q12 31 34 31q13 0 45 -29l-109 -326q-3 -8 -3 -14q0 -14 15 -14q12 0 27.5 11t36 29.5t23.5 21.5z" unicode="ú"/>
<glyph glyph-name="ucircumflex" d="M395 713l88 -167h-33l-82 107l-135 -107h-37l161 167h38zM505 136l14 -14q-3 -3 -14.5 -16t-16.5 -18t-16.5 -17.5t-19 -18.5t-19 -16t-21 -15t-20.5 -10.5t-22 -8t-22 -2.5q-37 0 -37 35q0 19 19 74l60 177h-2q-1 -2 -19.5 -26t-28.5 -36t-32 -39.5t-37.5 -44.5 t-38.5 -41t-41.5 -39.5t-39 -30.5t-39 -22t-34.5 -7q-17 0 -29.5 11.5t-12.5 27.5q0 11 10 43l87 258q4 11 4 22q0 15 -13 15q-10 0 -23 -8t-21.5 -16.5t-22 -23t-16.5 -17.5l-16 17l34 35q28 28 46 44t45.5 32.5t49.5 16.5q33 0 33 -32q0 -18 -13 -52l-90 -269 q-2 -10 -2 -14q0 -10 17 -10q47 0 154.5 135t136.5 211q12 31 34 31q13 0 45 -29l-109 -326q-3 -8 -3 -14q0 -14 15 -14q12 0 27.5 11t36 29.5t23.5 21.5z" unicode="û"/>
<glyph glyph-name="udieresis" d="M403 610q0 21 14 35t34 14q21 0 35.5 -14t14.5 -35q0 -20 -14.5 -34.5t-35.5 -14.5q-20 0 -34 14.5t-14 34.5zM203 610q0 21 14 35t34 14q21 0 35.5 -14t14.5 -35q0 -20 -14.5 -34.5t-35.5 -14.5q-20 0 -34 14.5t-14 34.5zM505 136l14 -14q-3 -3 -14.5 -16t-16.5 -18 t-16.5 -17.5t-19 -18.5t-19 -16t-21 -15t-20.5 -10.5t-22 -8t-22 -2.5q-37 0 -37 35q0 19 19 74l60 177h-2q-1 -2 -19.5 -26t-28.5 -36t-32 -39.5t-37.5 -44.5t-38.5 -41t-41.5 -39.5t-39 -30.5t-39 -22t-34.5 -7q-17 0 -29.5 11.5t-12.5 27.5q0 11 10 43l87 258q4 11 4 22 q0 15 -13 15q-10 0 -23 -8t-21.5 -16.5t-22 -23t-16.5 -17.5l-16 17l34 35q28 28 46 44t45.5 32.5t49.5 16.5q33 0 33 -32q0 -18 -13 -52l-90 -269q-2 -10 -2 -14q0 -10 17 -10q47 0 154.5 135t136.5 211q12 31 34 31q13 0 45 -29l-109 -326q-3 -8 -3 -14q0 -14 15 -14 q12 0 27.5 11t36 29.5t23.5 21.5z" unicode="ü"/>
<glyph glyph-name="yacute" horiz-adv-x="500" unicode="ý" d="M285 546h-26l152 148q25 19 34 19q12 0 22 -10t10 -23q0 -17 -35 -39l-115 -75q-29 -20 -42 -20zM60 299l-9 -7l-24 14q0 59 26.5 105t81.5 46q40 0 68.5 -32t43 -85.5t23 -104t14.5 -108.5t10 -78l22 38.5t25.5 45.5t22 43.5t21 48.5t12.5 44t6 46q0 20 -6 44.5t-6 37.5 q0 24 12.5 42t34.5 18q39 0 39 -53q0 -74 -83 -233t-149 -242q-1 -2 -16.5 -22t-20.5 -26t-20.5 -25t-24 -27t-24.5 -21.5t-28 -19.5t-27 -11t-30 -5q-16 0 -28.5 12t-12.5 28q0 18 9.5 29.5t26.5 11.5q6 0 20 -3.5t22 -3.5q43 0 85 48l54 63l-3 52l-9 83q-7 50 -16.5 95 t-23.5 92.5t-34 75.5t-43 28q-21 0 -34.5 -13t-13.5 -33t7 -38z"/>
<glyph glyph-name="thorn" d="M233 410l-63 -251q-11 -63 -11 -81q0 -21 16.5 -44t44.5 -23q51 0 100 61.5t75.5 135.5t26.5 124q0 93 -103 93q-54 0 -86 -15zM158 423l69 274l-49 28l3 13q45 6 66 9q30 5 71 17l11 -4l-89 -321q50 18 111 18t106 -29.5t45 -94.5q0 -67 -41 -148.5t-110 -140.5 t-138 -59q-42 0 -80 29l-49 -188l80 -13l-4 -26q-53 0 -88 -5q-23 -2 -69 -10l-6 8l152 607q-83 -29 -119 -48l7 39q45 20 121 45z" unicode="þ"/>
<glyph glyph-name="OE" horiz-adv-x="1000" unicode="Œ" d="M683 666l-45 -284h126q48 0 67.5 12.5t32.5 55.5l11 35h22l-41 -237h-22q2 20 2 46q0 32 -18 39.5t-71 7.5h-115l-29 -189q0 -3 -3.5 -23t-6 -37t-2.5 -23q0 -24 33.5 -30.5t115.5 -6.5q34 0 54 1t45.5 6t41.5 14.5t31 27t24 43.5l14 43h26l-47 -167h-205q-51 0 -189 -7 q-118 -8 -151 -8q-150 0 -237 91.5t-87 233.5q0 185 115.5 294t286.5 109q20 0 114 -6q1 0 62.5 -5.5t96.5 -5.5q41 0 122 1t121 1l-11 -140h-20v24q0 60 -30.5 72t-157.5 12h-76zM519 159l61 411q5 33 5 57q0 60 -126 60q-72 0 -131 -33t-95.5 -87t-55.5 -120t-19 -136 q0 -77 24 -143t80 -111.5t135 -45.5q63 0 87 34.5t35 113.5z"/>
<glyph glyph-name="oe" horiz-adv-x="778" unicode="œ" d="M462 219q49 3 97.5 21t86.5 57t38 89q0 19 -12.5 29t-32.5 10q-65 0 -115.5 -67.5t-61.5 -138.5zM217 11q60 0 104 55.5t61.5 121.5t17.5 124q0 51 -22.5 82t-71.5 31q-56 0 -100.5 -51t-65 -114.5t-20.5 -116.5q0 -55 22.5 -93.5t74.5 -38.5zM715 123l15 -15 q-114 -123 -236 -123q-36 0 -63.5 22.5t-42.5 59.5q-45 -44 -82.5 -63t-93.5 -19q-81 0 -126.5 50.5t-45.5 132.5q0 111 80.5 200t190.5 89q106 0 153 -98q92 98 192 98q43 0 72.5 -19t29.5 -59q0 -47 -32 -84t-83 -57t-96.5 -30.5t-90.5 -14.5q-3 -39 -3 -48 q0 -106 84 -106q32 0 66 14t56.5 29t55.5 41z"/>
<glyph glyph-name="Scaron" horiz-adv-x="500" unicode="Š" d="M305 737l-88 167h33l82 -107l135 107h37l-161 -167h-38zM50 203h20q1 -7 2 -27.5t2 -29t4 -24t9 -29.5q14 -35 48.5 -55.5t74.5 -20.5q58 0 97.5 33t39.5 89q0 40 -23 79.5t-56 73.5t-65.5 69t-55.5 79t-23 89q0 81 52 132.5t135 51.5q55 0 109 -18q21 -7 28 -7q5 0 8 1 t6.5 4t5.5 4h17l-31 -176h-22q0 7 1 21t1 21q0 55 -33.5 86.5t-88.5 31.5q-50 0 -79 -27.5t-29 -77.5q0 -38 24 -77t59 -74t69.5 -71t58.5 -80.5t24 -90.5q0 -84 -62.5 -141t-152.5 -57q-62 0 -145 36l-33 -30h-23z"/>
<glyph glyph-name="scaron" horiz-adv-x="389" unicode="š" d="M225 546l-88 167h33l82 -107l135 107h37l-161 -167h-38zM37 125h13q7 -39 44.5 -59.5t82.5 -20.5q31 0 60 10t29 35q0 23 -23.5 47.5t-53 42.5t-59.5 42t-39 45q-9 18 -9 46q0 18 10.5 36.5t30.5 35.5t33.5 26.5t34.5 23.5q35 22 74 22q87 0 87 -60q0 -11 -6.5 -28 t-14.5 -17h-12q-7 0 -14 15q-7 14 -32 25t-50 11q-29 0 -52 -15t-23 -42q0 -22 18 -42.5t44 -37t52.5 -33.5t44.5 -41.5t18 -53.5q0 -44 -65 -107q-46 -46 -119 -46q-29 0 -55 5.5t-49 24t-23 48.5q0 20 23 62z"/>
<glyph glyph-name="Ydieresis" horiz-adv-x="667" unicode="Ÿ" d="M484 801q0 21 14 35t34 14q21 0 35.5 -14t14.5 -35q0 -20 -14.5 -34.5t-35.5 -14.5q-20 0 -34 14.5t-14 34.5zM284 801q0 21 14 35t34 14q21 0 35.5 -14t14.5 -35q0 -20 -14.5 -34.5t-35.5 -14.5q-20 0 -34 14.5t-14 34.5zM351 698l-5 -26h-36q-36 0 -36 -24q0 -6 3 -13 l128 -303l182 285q13 20 13 34q0 21 -62 21h-17l4 26q40 -2 121 -2q49 0 74 2l-5 -26h-4q-31 0 -63 -47l-10 -15l-220 -323l-37 -196q-2 -16 -2 -21q0 -21 12 -31t25.5 -11.5t41.5 -1.5h18l-5 -26q-25 0 -77 1t-77 1q-43 0 -129 -2l4 26h22h5q39 0 51.5 12t19.5 48l38 199 l-154 352q-16 35 -71 35h-10l4 26q41 -2 123 -2q22 0 65.5 1t65.5 1z"/>
<glyph glyph-name="circumflex" horiz-adv-x="278" unicode="ˆ" d="M256 713l88 -167h-33l-82 107l-135 -107h-37l161 167h38z"/>
<glyph glyph-name="tilde" horiz-adv-x="278" unicode="˜" d="M61 568h-27q10 41 38.5 68.5t69.5 27.5q22 0 70 -22t62 -22q35 0 59 49h26q-5 -38 -36 -69t-69 -31q-20 0 -68 22q-54 26 -65 26q-23 0 -35.5 -11.5t-24.5 -37.5z"/>
<glyph glyph-name="uni03BC" d="M48 82l85 258q4 11 4 22q0 15 -13 15q-10 0 -23 -8t-21.5 -16.5t-22 -23t-16.5 -17.5l-16 17l34 35q28 28 46 44t45.5 32.5t49.5 16.5q33 0 33 -32q0 -18 -13 -52l-90 -269q-2 -10 -2 -14q0 -10 17 -10q33 0 100.5 73t122 155t68.5 118q12 31 34 31q13 0 45 -29 l-109 -326q-3 -8 -3 -14q0 -14 15 -14q12 0 27.5 11t36 29.5t23.5 21.5l14 -14q-3 -3 -14.5 -16t-16.5 -18t-16.5 -17.5t-19 -18.5t-19 -16t-21 -15t-20.5 -10.5t-22 -8t-22 -2.5q-37 0 -37 35q0 23 19 74l65 174h-2q-5 -6 -56 -67t-87 -100t-87 -77.5t-85 -38.5 q-6 -31 -13 -89t-10 -77q0 -1 -1 -8t-1.5 -9.5t-2.5 -9t-3.5 -9t-4.5 -8t-6.5 -8t-8.5 -5.5t-11 -4t-14 -1q-16 0 -24.5 9t-8.5 23q0 22 9 59t18.5 66t27 80.5t24.5 72.5z" unicode="μ"/>
<glyph glyph-name="pi" horiz-adv-x="558" unicode="π" d="M551 475l21 -9q-23 -50 -52 -81q-23 -4 -71 -4q-16 -52 -57 -248q-6 -29 -6 -50q0 -43 32 -43q25 0 58 33l9 -19q-49 -66 -112 -66q-31 0 -47.5 15.5t-16.5 53.5q0 26 7 58q18 82 68 269q-120 2 -166 2l-5 -22q-22 -104 -54.5 -190t-53.5 -121.5t-34 -47.5 q-38 -16 -59 -17l-2 16q63 60 108 170.5t66 212.5q-32 0 -59 -7.5t-40.5 -15t-40.5 -25.5l-9 19q48 45 75 60q49 27 109 27q33 0 123 -2t142 -2q23 0 36.5 6.5t30.5 27.5z"/>
<glyph glyph-name="endash" horiz-adv-x="500" unicode="–" d="M-11 211l22 66h500l-22 -66h-500z"/>
<glyph glyph-name="emdash" horiz-adv-x="1000" unicode="—" d="M-11 211l22 66h1000l-22 -66h-1000z"/>
<glyph glyph-name="quoteleft" horiz-adv-x="278" unicode="‘" d="M294 698l11 -20h-5q-43 0 -83.5 -21t-40.5 -59q0 -16 7 -20.5t23.5 -9.5t29.5 -16q11 -7 11 -25q0 -28 -17 -45t-46 -17q-32 0 -49.5 26.5t-17.5 61.5q0 63 53 104t118 41h6z"/>
<glyph glyph-name="quotesinglbase" horiz-adv-x="278" unicode="‚" d="M56 -124l-11 20h5q43 0 83.5 21t40.5 59q0 16 -7 20.5t-23.5 9.5t-29.5 16q-11 7 -11 25q0 28 17 45t46 17q32 0 49.5 -26.5t17.5 -61.5q0 -63 -53 -104t-118 -41h-6z"/>
<glyph glyph-name="quotedblleft" d="M527 698l11 -20h-5q-43 0 -83.5 -21t-40.5 -59q0 -16 7 -20.5t23.5 -9.5t29.5 -16q11 -7 11 -25q0 -28 -17 -45t-46 -17q-32 0 -49.5 26.5t-17.5 61.5q0 63 53 104t118 41h6zM330 698l11 -20h-5q-43 0 -83.5 -21t-40.5 -59q0 -16 7 -20.5t23.5 -9.5t29.5 -16 q11 -7 11 -25q0 -28 -17 -45t-46 -17q-32 0 -49.5 26.5t-17.5 61.5q0 63 53 104t118 41h6z" unicode="“"/>
<glyph glyph-name="quotedblright" d="M334 465l-11 20h5q43 0 83.5 21t40.5 59q0 16 -7 20.5t-23.5 9.5t-29.5 16q-11 7 -11 25q0 28 17 45t46 17q32 0 49.5 -26.5t17.5 -61.5q0 -63 -53 -104t-118 -41h-6zM137 465l-11 20h5q43 0 83.5 21t40.5 59q0 16 -7 20.5t-23.5 9.5t-29.5 16q-11 7 -11 25q0 28 17 45 t46 17q32 0 49.5 -26.5t17.5 -61.5q0 -63 -53 -104t-118 -41h-6z" unicode="”"/>
<glyph glyph-name="dagger" d="M280 407h-38q-94 0 -154 -6l-6 6q5 19 9 44l6 6q6 0 30.5 -2.5t41.5 -3.5q10 0 28.5 -1t33 -1.5t25.5 -0.5h33l29 168q9 54 9 76l6 6q7 0 18 -1.5t16 -1.5q6 0 16.5 1.5t15.5 1.5l6 -6q-10 -30 -21 -76l-41 -168h26q34 0 166 9l6 -6q-9 -21 -9 -44l-6 -6q-90 6 -160 6 h-32q-65 -318 -101 -518q-9 -53 -10 -76l-6 -6q-7 0 -18 1.5t-16 1.5t-16 -1.5t-16 -1.5l-6 6q9 25 22 76q42 172 113 518z" unicode="†"/>
<glyph glyph-name="daggerdbl" d="M280 409h-38q-99 0 -154 -5l-6 6q5 20 9 43l6 6q87 -9 159 -9h33l29 167q9 54 9 75l6 6q7 0 18 -1.5t16 -1.5q6 0 16.5 1.5t15.5 1.5l6 -6q-11 -34 -21 -75l-41 -167h26q34 0 166 9l6 -6q-9 -20 -9 -43l-6 -6q-75 5 -160 5h-32l-7 -27q-16 -60 -19 -130q-30 -80 -36 -131 l-3 -26h29q110 0 163 6l6 -6q-5 -20 -9 -43l-6 -6q-77 8 -159 8h-33l-29 -166q-9 -54 -9 -75l-6 -6q-7 0 -18 1.5t-16 1.5q-6 0 -16.5 -1.5t-15.5 -1.5l-6 6q11 34 21 75l41 166h-26q-49 0 -166 -8l-6 6q9 20 9 43l6 6q90 -6 160 -6h32l5 26q23 120 22 131q14 25 33 130z " unicode="‡"/>
<glyph glyph-name="ellipsis" horiz-adv-x="1000" unicode="…" d="M814 -15q-27 0 -46.5 19t-19.5 46q0 26 20 46.5t46 20.5t46 -20t20 -47t-19.5 -46t-46.5 -19zM481 -15q-27 0 -46.5 19t-19.5 46q0 26 20 46.5t46 20.5t46 -20t20 -47t-19.5 -46t-46.5 -19zM148 -15q-27 0 -46.5 19t-19.5 46q0 26 20 46.5t46 20.5t46 -20t20 -47 t-19.5 -46t-46.5 -19z"/>
<glyph glyph-name="perthousand" horiz-adv-x="1000" unicode="‰" d="M108 -23l448 736h47l-447 -736h-48zM752 79q0 -68 55 -68q33 0 57 36t33.5 77t9.5 73q0 74 -56 74q-37 0 -61 -39t-31 -79t-7 -74zM686 121q0 71 47 123.5t117 52.5q55 0 89 -36t34 -91q0 -70 -49.5 -127.5t-118.5 -57.5q-57 0 -88 38.5t-31 97.5zM418 79q0 -68 55 -68 q33 0 57 36t33.5 77t9.5 73q0 74 -56 74q-37 0 -61 -39t-31 -79t-7 -74zM352 121q0 71 47 123.5t117 52.5q55 0 89 -36t34 -91q0 -70 -49.5 -127.5t-118.5 -57.5q-57 0 -88 38.5t-31 97.5zM145 487q0 -68 55 -68q33 0 57 36t33.5 77t9.5 73q0 74 -56 74q-37 0 -61 -39 t-31 -79t-7 -74zM79 529q0 71 47 123.5t117 52.5q55 0 89 -36t34 -91q0 -70 -49.5 -127.5t-118.5 -57.5q-57 0 -88 38.5t-31 97.5z"/>
<glyph glyph-name="guilsinglleft" horiz-adv-x="278" unicode="‹" d="M262 421l15 -14l-141 -163l83 -167l-17 -10l-152 177z"/>
<glyph glyph-name="guilsinglright" horiz-adv-x="278" unicode="›" d="M29 67l-15 14l141 163l-83 167l17 10l152 -177z"/>
<glyph glyph-name="fraction" horiz-adv-x="167" unicode="⁄" d="M-146 -23l448 736h47l-447 -736h-48z"/>
<glyph glyph-name="Euro" d="M576 516h-21q3 13 3 26q0 63 -42 100t-101 37q-94 0 -153 -77.5t-80 -190.5h314l-14 -41h-307q-4 -32 -4 -70v-7h285l-13 -41h-270q11 -96 61 -163t141 -67q74 0 132 53l15 -18q-31 -32 -76.5 -52t-92.5 -20q-114 0 -183 76.5t-82 190.5h-72l14 41h55v9q0 30 5 68h-61 l13 41h56q30 126 114 214t198 88q39 0 72 -10t53.5 -20t29.5 -10q14 0 32 16h11z" unicode="€"/>
<glyph glyph-name="trademark" horiz-adv-x="990" unicode="™" d="M696 294l-149 304h-2v-219q0 -34 10 -47.5t43 -17.5v-20h-131v20q32 4 42 17.5t10 47.5v249q-9 22 -28 35.5t-41 13.5v21h121l154 -309l160 309h103v-21q-30 -1 -41.5 -14t-11.5 -40v-270q0 -23 7.5 -28.5t41.5 -10.5v-20h-172v20q34 5 41.5 10.5t7.5 28.5v247h-2 l-152 -306h-11zM271 678v-325q0 -23 7.5 -28.5t41.5 -10.5v-20h-172v20q34 5 41.5 10.5t7.5 28.5v325h-48q-52 0 -67 -68h-20v88h344v-88h-20q-15 68 -66 68h-49z"/>
<glyph glyph-name="partialdiff" horiz-adv-x="522" unicode="∂" d="M306 394h-1q-71 0 -127 -59q-59 -67 -84 -180q-5 -23 -5 -41q0 -43 21.5 -70.5t59.5 -27.5q74 0 144 106q48 72 91 194q-6 27 -33 52.5t-66 25.5zM295 431h1q38 0 73 -19t51 -55q21 68 30 105q12 50 12 102q0 27 -5 60q-7 41 -38.5 73.5t-76.5 32.5q-70 0 -146 -54h-2 q-8 0 -13.5 10t-5.5 23t5 21q74 42 148 42q128 0 171 -142q13 -45 13 -100q0 -66 -15 -132q-34 -157 -101 -256q-103 -155 -231 -155q-67 0 -105.5 38.5t-38.5 105.5q0 30 7 59q21 96 93 166q35 33 82 54t92 21z"/>
<glyph glyph-name="product" horiz-adv-x="763" unicode="∏" d="M735 695v-24q-63 -4 -76.5 -14t-13.5 -48v-599q0 -45 14 -57.5t74 -16.5v-23h-244v23q60 5 72.5 15.5t12.5 57.5v624q0 21 -6.5 26t-28.5 5h-225q-21 0 -27 -4.5t-6 -22.5v-628q0 -46 10.5 -57t67.5 -16v-23h-237v23q59 5 73 16t14 57v600q0 39 -13.5 48.5t-76.5 13.5v24 h616z"/>
<glyph glyph-name="summation" horiz-adv-x="637" unicode="∑" d="M614 89l-41 -178h-453v21l227 357l-221 384v22h447q1 -17 12 -157l-24 -5q-13 70 -32 102q-10 17 -29.5 23.5t-73.5 6.5h-208l193 -330l-224 -360h265q66 0 87 18t51 103z"/>
<glyph glyph-name="minus" d="M499 188h-442v66h442v-66z" unicode="−"/>
<glyph glyph-name="radical" horiz-adv-x="637" unicode="√" d="M619 895l-163 -1038l-17 -10l-219 555l-86 -43l-11 30l146 70l175 -458h2l137 904z"/>
<glyph glyph-name="infinity" horiz-adv-x="787" unicode="∞" d="M592 393h-1q-18 0 -36 -7t-35.5 -21t-28.5 -25t-27.5 -29.5t-21.5 -23.5q52 -60 84 -84t68 -24q43 0 69 32t26 73q0 50 -27 79.5t-70 29.5zM237 179h1q15 0 30.5 5.5t26 11t26.5 20t22.5 20.5t23.5 24.5t20 21.5q-31 39 -46 55.5t-46.5 36t-63.5 19.5q-44 0 -70 -32 t-26 -78q0 -44 28.5 -74t73.5 -30zM739 289v-1q0 -69 -44 -112t-104 -43q-44 0 -84.5 27t-93.5 88q-48 -56 -88.5 -85.5t-93.5 -29.5q-60 0 -103 43.5t-43 107.5q0 67 43.5 110.5t108.5 43.5q50 0 92.5 -30.5t87.5 -84.5q24 27 30.5 34t29 28.5t36.5 29t37 15.5t47 8 q63 0 102.5 -41.5t39.5 -107.5z"/>
<glyph glyph-name="approxequal" horiz-adv-x="575" unicode="≈" d="M500 260l31 -27q-47 -93 -125 -93q-19 0 -38 5.5t-33 12.5t-41 23q-58 33 -89 33t-52.5 -19t-43.5 -54l-33 27q22 43 57.5 68t76.5 25q14 0 26.5 -2.5t25 -7.5t20.5 -9t20 -11t16 -9t14.5 -8t15 -8.5t13.5 -6.5t15.5 -6t15 -3.5t16.5 -1.5q28 0 49 17.5t43 54.5zM500 425 l31 -27q-47 -93 -125 -93q-27 0 -50 9t-62 32q-55 32 -89 32q-52 0 -96 -72l-33 27q22 43 57.5 68t77.5 25q13 0 26 -2.5t25 -7.5t20 -9t20 -11t16 -9q3 -2 13.5 -8t13.5 -7.5t11.5 -5.5t13 -5.5t11.5 -4t13.5 -3t13.5 -0.5q28 0 48.5 17.5t43.5 54.5z"/>
<glyph glyph-name="notequal" horiz-adv-x="593" unicode="≠" d="M437 494l-42 -93h149v-49h-169l-64 -141h233v-48h-253l-51 -113l-39 17l43 96h-143v48h164l63 141h-227v49h247l51 111z"/>
<glyph glyph-name="lessequal" horiz-adv-x="610" unicode="≤" d="M561 10h-443v50h443v-50zM558 100l-435 219v51l435 219v-59l-382 -184v-2l382 -186v-58z"/>
<glyph glyph-name="greaterequal" horiz-adv-x="609" unicode="≥" d="M560 10h-441v50h441v-50zM124 589l435 -219v-51l-435 -219v58l382 185v2l-382 185v59z"/>
<glyph glyph-name="lozenge" horiz-adv-x="645" unicode="◊" d="M540 335l-168 352h-3l-170 -350l170 -353h3zM596 335l-199 -404h-56l-198 404l199 408h56z"/>
</font>
</defs>
</svg>
