<?xml version="1.0" encoding="UTF-8" standalone="no"?>
<!DOCTYPE svg  PUBLIC '-//W3C//DTD SVG 1.1//EN'  'http://www.w3.org/Graphics/SVG/1.1/DTD/svg11.dtd'>
<svg xmlns="http://www.w3.org/2000/svg">
<defs>
<font id="SabonLTStd-Roman" horiz-adv-x="556">
<font-face underline-position="-50" font-weight="400" descent="-200" panose-1="2 2 6 2 6 5 6 2 4 3" units-per-em="1000" unicode-range="U+0020-25CA" bbox="-165 -228 1000 944" x-height="442" underline-thickness="50" font-family="SabonLTStd" ascent="800" cap-height="698"/>
<missing-glyph horiz-adv-x="1000"/>
<glyph glyph-name=".notdef" horiz-adv-x="1000"/>
<glyph glyph-name=".null" horiz-adv-x="0"/>
<glyph glyph-name="nonmarkingreturn" horiz-adv-x="333"/>
<glyph glyph-name="space" horiz-adv-x="278" unicode=" "/>
<glyph glyph-name="exclam" horiz-adv-x="333" unicode="!" d="M167 -15q-27 0 -46.5 19t-19.5 46q0 26 20 46.5t46 20.5t46 -20t20 -47t-19.5 -46t-46.5 -19zM178 188h-23l-36 244q-15 99 -15 139q0 100 62 100q63 0 63 -100q0 -40 -15 -139z"/>
<glyph glyph-name="quotedbl" d="M172 456l-15 148q-4 34 -4 44q0 50 43 50t43 -50q0 -10 -4 -44l-15 -148q-3 -26 -24 -26t-24 26zM336 456l-15 148q-4 34 -4 44q0 50 43 50t43 -50q0 -10 -4 -44l-15 -148q-3 -26 -24 -26t-24 26z" unicode='&quot;'/>
<glyph glyph-name="numbersign" d="M353 418h-130l-21 -146h130zM497 272v-54h-111l-31 -218h-62l31 218h-129l-31 -218h-62l31 218h-104v54h112l21 146h-107v54h114l31 218h61l-31 -218h130l31 218h61l-31 -218h106v-54h-113l-21 -146h104z" unicode="#"/>
<glyph glyph-name="dollar" d="M300 297v-280q46 6 73 43.5t27 87.5q0 57 -24 90t-76 59zM260 413v268q-44 -8 -69 -43t-25 -84q0 -50 23.5 -81.5t70.5 -59.5zM447 695l8 -133h-24q-21 118 -131 119v-282q41 -16 71 -32t60 -40.5t45.5 -59t15.5 -78.5q0 -87 -53.5 -143.5t-138.5 -60.5v-74h-40v74 q-49 0 -83 8t-92 30q-4 58 -21 147l20 4q20 -70 61 -113.5t104 -43.5h11v295q-81 33 -127.5 81t-46.5 126q0 79 49 133.5t125 60.5v74h40v-74q76 -4 147 -18z" unicode="$"/>
<glyph glyph-name="percent" horiz-adv-x="1000" unicode="%" d="M290 -24h-46l453 738h46zM820 161q0 131 -86 131q-34 0 -54.5 -27t-26 -57t-5.5 -66q0 -131 86 -131q34 0 54.5 27t26 57t5.5 66zM900 158q0 -74 -50 -123.5t-122 -49.5q-70 0 -115 46t-45 114q0 74 50 123.5t122 49.5q70 0 115 -46t45 -114zM432 545q0 -74 -50 -123.5 t-122 -49.5q-70 0 -115 46t-45 114q0 74 50 123.5t122 49.5q70 0 115 -46t45 -114zM352 548q0 131 -86 131q-34 0 -54.5 -27t-26 -57t-5.5 -66q0 -131 86 -131q34 0 54.5 27t26 57t5.5 66z"/>
<glyph glyph-name="ampersand" horiz-adv-x="944" unicode="&amp;" d="M385 580q0 45 -22 72t-63 27q-35 0 -57.5 -25.5t-22.5 -63.5q0 -29 17 -55t32 -37.5t48 -34.5q68 44 68 117zM141 241q0 -72 53.5 -127t125.5 -55q40 0 73 16t51 33t51 55q-80 108 -238 244q-54 -34 -85 -73t-31 -93zM891 93l16 -15q-81 -113 -176 -113q-22 0 -42 4.5 t-39 17.5t-31.5 21.5t-31.5 31t-25.5 30.5t-27 36t-23.5 33q-6 -6 -29 -32t-30.5 -33.5t-28 -27t-33.5 -26t-33.5 -17.5t-41.5 -14.5t-45 -3.5q-84 0 -143.5 58.5t-59.5 142.5t42 136t126 99q-81 53 -81 132q0 69 43 110.5t112 41.5q58 0 100 -31.5t42 -87.5 q0 -77 -110 -137q115 -87 211 -216q42 49 91.5 122.5t49.5 105.5t-62 32v26q63 -3 127 -3q70 0 139 3v-26q-47 0 -76.5 -8t-56 -32.5t-45.5 -50.5t-62 -83.5t-88 -109.5q13 -15 42.5 -54.5t49 -61.5t53 -42t69.5 -20q57 0 108 62z"/>
<glyph glyph-name="quotesingle" horiz-adv-x="278" unicode="&apos;" d="M115 456l-15 148q-4 34 -4 44q0 50 43 50t43 -50q0 -10 -4 -44l-15 -148q-3 -26 -24 -26t-24 26z"/>
<glyph glyph-name="parenleft" horiz-adv-x="333" unicode="(" d="M229 713l23 -11q-60 -146 -83 -245t-23 -197q0 -225 103 -441l-23 -12q-146 207 -146 453q0 110 37 216t112 237z"/>
<glyph glyph-name="parenright" horiz-adv-x="333" unicode=")" d="M84 701l23 12q146 -207 146 -453q0 -110 -37 -216t-112 -237l-23 11q60 146 83 245t23 197q0 225 -103 441z"/>
<glyph glyph-name="asterisk" d="M244 558l-11 -14q-6 2 -30 8.5t-42 12t-33.5 17.5t-15.5 27q0 16 12 27.5t29 11.5q11 0 25.5 -11.5t24.5 -24.5t24 -31.5t17 -22.5zM234 521l16 -16q-5 -6 -23.5 -35t-35 -45.5t-33.5 -16.5q-15 0 -27.5 12.5t-12.5 27.5q0 23 20 36.5t53.5 22.5t42.5 14zM301 523v19 q5 1 28.5 8.5t41 12t28.5 4.5q45 0 45 -40t-40 -40q-14 0 -56 17.5t-47 18.5zM285 560l-18 6v74q0 58 42 58q17 0 27.5 -10t10.5 -26q0 -9 -8 -25t-16.5 -28t-22 -29t-15.5 -20zM270 497l20 7q5 -9 20.5 -31t23.5 -40t8 -36q0 -35 -43 -35q-18 0 -27.5 12t-9.5 30q0 31 8 93 z" unicode="*"/>
<glyph glyph-name="plus" d="M245 254v188h66v-188h188v-66h-188v-188h-66v188h-188v66h188z" unicode="+"/>
<glyph glyph-name="comma" horiz-adv-x="278" unicode="," d="M59 -191l-7 24q45 8 80 40t35 76q0 27 -13.5 38t-42.5 11q-25 0 -42 17t-17 41q0 30 21.5 45.5t52.5 15.5q45 0 72.5 -37t27.5 -80q0 -80 -46.5 -127.5t-120.5 -63.5z"/>
<glyph glyph-name="hyphen" horiz-adv-x="333" unicode="-" d="M292 277l-9 -66q-60 3 -120 3q-81 0 -121 -3l9 66q60 -3 121 -3q60 0 120 3z"/>
<glyph glyph-name="period" horiz-adv-x="278" unicode="." d="M139 -15q-27 0 -46.5 19t-19.5 46q0 26 20 46.5t46 20.5t46 -20t20 -47t-19.5 -46t-46.5 -19z"/>
<glyph glyph-name="slash" horiz-adv-x="278" unicode="/" d="M55 -15h-66l234 728h66z"/>
<glyph glyph-name="zero" d="M412 370q0 49 -6 97t-20 97t-41 79t-65 30q-142 0 -142 -343v-10q0 -49 6 -97t20 -97t41 -79t65 -30q142 0 142 343v10zM504 365q0 -101 -23 -178t-59.5 -119t-75 -62.5t-76.5 -20.5q-69 0 -120.5 53t-74.5 128.5t-23 158.5q0 101 23 178t59.5 119t75 62.5t76.5 20.5 q69 0 120.5 -53t74.5 -128.5t23 -158.5z" unicode="0"/>
<glyph glyph-name="one" d="M339 701v-632q0 -24 14.5 -33.5t50.5 -9.5h45v-26q-26 0 -78.5 1t-78.5 1q-57 0 -165 -2v26h55q36 0 50.5 9.5t14.5 33.5v545q-71 -41 -143 -77l-13 24q106 54 238 144z" unicode="1"/>
<glyph glyph-name="two" d="M23 0v20q320 279 320 464q0 66 -31.5 110.5t-94.5 44.5q-20 0 -38.5 -6.5t-30 -12.5t-29 -23.5t-23 -23.5t-24.5 -29l-19 20q28 41 52 67.5t67 50t92 23.5q77 0 124 -53t47 -131q0 -41 -16 -85t-37.5 -79.5t-58 -78.5t-63.5 -70.5t-68.5 -68.5t-59.5 -59h325l22 52h28 l-29 -132h-455z" unicode="2"/>
<glyph glyph-name="three" d="M181 340v26q70 6 122.5 48t52.5 109q0 54 -31.5 88t-84.5 34q-37 0 -64 -17t-62 -52l-15 19q48 55 90.5 82.5t102.5 27.5q61 0 102.5 -40t41.5 -102q0 -58 -42 -105.5t-103 -71.5l2 -2q2 0 6.5 0.5t7.5 0.5q20 0 40.5 -4t44 -15.5t41 -29t29.5 -46.5t12 -66 q0 -39 -16 -79t-47 -76.5t-85 -60t-122 -23.5q-64 0 -108 28.5t-44 55.5q0 13 10 22.5t22 9.5t23.5 -13t21.5 -29t35 -29t60 -13q71 0 114.5 48t43.5 119q0 157 -174 157q-18 0 -27 -1z" unicode="3"/>
<glyph glyph-name="four" d="M323 285v300h-2l-224 -300h226zM23 219v40l342 446h44v-420h98v-66h-98v-219h-86v219h-300z" unicode="4"/>
<glyph glyph-name="five" d="M142 434l95 256h253l-21 -80h-225l-40 -104q43 -22 71 -37.5t62.5 -42t54 -52.5t33.5 -63.5t14 -80.5q0 -105 -73 -175t-178 -70q-46 0 -94 22.5t-48 57.5q0 30 31 30q13 0 25 -12t21.5 -27t31.5 -27t53 -12q69 0 110 49t41 120q0 39 -13.5 73t-31.5 57t-51 47t-57 37.5 t-64 33.5z" unicode="5"/>
<glyph glyph-name="six" d="M400 168q0 62 -33 106.5t-93 44.5q-50 0 -87 -30t-37 -78q0 -82 30 -138t97 -56q61 0 92 43.5t31 107.5zM503 705l9 -20q-148 -37 -247.5 -146.5t-114.5 -257.5l2 -2q31 49 69.5 74.5t97.5 25.5q81 0 124 -54.5t43 -120.5q0 -34 -12.5 -70t-37 -70.5t-68.5 -56.5t-99 -22 q-53 0 -94.5 22.5t-66.5 59.5t-37.5 81.5t-12.5 91.5q0 88 36.5 166.5t90.5 131t117 92t115.5 57.5t85.5 18z" unicode="6"/>
<glyph glyph-name="seven" d="M58 556l26 134h451l8 -8l-357 -697l-43 15l319 610h-351l-27 -58z" unicode="7"/>
<glyph glyph-name="eight" d="M468 548q0 -101 -141 -178q61 -33 104 -83.5t43 -109.5q0 -80 -60.5 -136t-141.5 -56q-88 0 -139 51.5t-51 110.5q0 63 37 104t109 83q-29 20 -48 35.5t-40.5 38.5t-32.5 49.5t-11 56.5q0 86 54 138.5t140 52.5q75 0 126.5 -42t51.5 -115zM394 544q0 60 -30.5 97.5 t-75.5 37.5q-51 0 -81.5 -35t-30.5 -91q0 -28 11 -53.5t32 -47t39 -36t46 -33.5q90 66 90 161zM388 139q0 95 -140 179q-54 -42 -73 -79t-19 -98q0 -52 32 -88t83 -36q54 0 85.5 34t31.5 88z" unicode="8"/>
<glyph glyph-name="nine" d="M156 522q0 -62 33 -106.5t93 -44.5q50 0 87 30t37 78q0 82 -30 138t-97 56q-61 0 -92 -43.5t-31 -107.5zM53 -15l-9 20q148 37 247.5 146.5t114.5 257.5l-2 2q-31 -49 -69.5 -74.5t-97.5 -25.5q-81 0 -124 54.5t-43 120.5q0 34 12.5 70t37 70.5t68.5 56.5t99 22 q53 0 94.5 -22.5t66.5 -59.5t37.5 -81.5t12.5 -91.5q0 -88 -36.5 -166.5t-90.5 -131t-117 -92t-115.5 -57.5t-85.5 -18z" unicode="9"/>
<glyph glyph-name="colon" horiz-adv-x="278" unicode=":" d="M139 282q-27 0 -46.5 19t-19.5 46q0 26 20 46.5t46 20.5t46 -20t20 -47t-19.5 -46t-46.5 -19zM139 -15q-27 0 -46.5 19t-19.5 46q0 26 20 46.5t46 20.5t46 -20t20 -47t-19.5 -46t-46.5 -19z"/>
<glyph glyph-name="semicolon" horiz-adv-x="278" unicode=";" d="M139 282q-27 0 -46.5 19t-19.5 46q0 26 20 46.5t46 20.5t46 -20t20 -47t-19.5 -46t-46.5 -19zM59 -191l-7 24q45 8 80 40t35 76q0 27 -13.5 38t-42.5 11q-25 0 -42 17t-17 41q0 30 21.5 45.5t52.5 15.5q45 0 72.5 -37t27.5 -80q0 -80 -46.5 -127.5t-120.5 -63.5z"/>
<glyph glyph-name="less" d="M499 66v-71l-442 193v66l442 193v-71l-366 -155z" unicode="&lt;"/>
<glyph glyph-name="equal" d="M499 154v-66h-442v66h442zM499 354v-66h-442v66h442z" unicode="="/>
<glyph glyph-name="greater" d="M57 66l366 155l-366 155v71l442 -193v-66l-442 -193v71z" unicode="&gt;"/>
<glyph glyph-name="question" horiz-adv-x="444" unicode="?" d="M176 -15q-27 0 -46.5 19t-19.5 46q0 26 20 46.5t46 20.5t46 -20t20 -47t-19.5 -46t-46.5 -19zM179 188h-26v180q68 4 116 34.5t48 94.5q0 46 -32.5 78t-93.5 32q-5 0 -15 -1.5t-15 -1.5q-23 0 -37 13t-14 36q0 45 53 45q45 0 84.5 -26.5t64 -66t38.5 -82.5t14 -79 q0 -71 -34 -109.5t-112 -51.5q-21 -3 -30 -15.5t-9 -47.5v-32z"/>
<glyph glyph-name="at" horiz-adv-x="800" unicode="@" d="M637 77l13 -32q-130 -60 -220 -60q-98 0 -176.5 34t-124 87.5t-69.5 111.5t-24 113q0 167 112 274.5t271 107.5q146 0 245.5 -89.5t99.5 -223.5q0 -57 -22 -113.5t-68 -98t-105 -41.5q-32 0 -55 16.5t-31.5 33t-7.5 25.5h-2q-15 -22 -48 -47t-73 -26h-3q-15 0 -29 4.5 t-31 17t-27.5 40.5t-10.5 69q0 31 13 72t37 83t65.5 71t91.5 29q23 0 39 -10t20.5 -17.5t15.5 -27.5l10 41h73l-65 -258q-6 -23 -6 -37q0 -47 40 -47q60 0 99.5 71.5t39.5 149.5q0 47 -21 95.5t-58.5 90.5t-97 68.5t-128.5 26.5q-126 0 -211.5 -95.5t-85.5 -264.5 q0 -117 87 -206t220 -89q44 0 83.5 8t63 17t61.5 26zM325 282q0 -86 67 -86q40 0 80.5 60.5t40.5 163.5q0 68 -43 68q-46 0 -95.5 -58.5t-49.5 -147.5z"/>
<glyph glyph-name="A" horiz-adv-x="721" unicode="A" d="M326 597l-97 -294h206l-107 294h-2zM378 726l191 -527q48 -134 57 -146q20 -27 77 -27v-26q-19 0 -57.5 1t-57.5 1q-48 0 -146 -2v26h18q55 0 55 33q0 17 -15 58l-50 145h-235l-22 -70q-27 -87 -27 -119q0 -20 9 -30.5t21 -13t31 -3.5h7h23v-26q-20 0 -59.5 1t-58.5 1 q-41 0 -121 -2v26q46 5 62 17t35 54q8 18 41 112l128 357q21 60 21 90q0 18 -2 26q44 21 58 44h17z"/>
<glyph glyph-name="B" horiz-adv-x="611" unicode="B" d="M36 0v26h13q78 0 78 67v507q0 25 -6 40.5t-20.5 21.5t-27 8t-37.5 2v26q14 0 42 -1t41 -1h31q31 0 73 1t57 1q34 0 68.5 -6t74.5 -21.5t65 -50t25 -84.5q0 -64 -47 -103.5t-114 -55.5v-2h9q31 0 66.5 -10.5t70 -31.5t57 -59t22.5 -86q0 -83 -70 -135.5t-199 -52.5 q-24 0 -71 1t-70 1q-45 0 -131 -2zM225 664v-282h38q70 0 111 32.5t41 119.5q0 41 -11.5 68.5t-33.5 41t-45.5 18t-57.5 4.5q-12 0 -42 -2zM225 350v-236q0 -22 1.5 -32.5t9.5 -24.5t27.5 -19.5t51.5 -5.5q81 0 119.5 43.5t38.5 99.5q0 52 -15 87.5t-42.5 54t-59 26 t-71.5 7.5h-60z"/>
<glyph glyph-name="C" horiz-adv-x="722" unicode="C" d="M673 660l10 -143h-25q-27 164 -214 164q-47 0 -93.5 -16.5t-90 -51t-71 -99.5t-27.5 -150q0 -148 89.5 -247.5t208.5 -99.5q75 0 130.5 47.5t70.5 125.5l23 -6l-23 -146q-31 -19 -101 -36t-120 -17q-175 0 -278.5 103t-103.5 273q0 150 114 251t265 101q85 0 236 -53z "/>
<glyph glyph-name="D" horiz-adv-x="778" unicode="D" d="M219 662v-544q0 -27 9 -45.5t25.5 -26.5t32 -11t37.5 -3q78 0 135.5 27t89.5 73.5t47 99.5t15 112q0 142 -85 232t-228 90q-6 0 -78 -4zM121 102v485q0 13 -1.5 24t-3 19t-7 14.5t-7.5 11t-10.5 7.5t-10.5 4.5t-12.5 2.5t-12 1.5t-14.5 0.5h-13v26q39 -2 118 -2 q17 0 74.5 1t98.5 1q94 0 171.5 -29.5t126.5 -79t75.5 -112t26.5 -129.5q0 -35 -8.5 -74.5t-35.5 -90t-69.5 -90t-120 -66.5t-178.5 -27q-26 0 -74 1t-71 1q-44 0 -134 -2v26q29 3 40.5 5t26 9.5t19.5 22t6 39.5z"/>
<glyph glyph-name="E" horiz-adv-x="611" unicode="E" d="M225 666v-284h132q13 0 24 2t19 6.5t14 8.5t10.5 11.5t7 12t4.5 13t2.5 12t1.5 11.5t1 9h20q-4 -44 -4 -112q0 -14 2 -50t2 -52v-9h-20q0 36 -5 55.5t-21.5 28.5t-31.5 10.5t-51 1.5h-107v-170q0 -89 16 -114t87 -25h62q80 4 116.5 26.5t64.5 98.5l24 -4 q-29 -91 -41 -153q-50 0 -150 1t-150 1q-148 0 -222 -2v26q64 0 79.5 19.5t15.5 93.5v444q0 59 -16.5 73t-78.5 16v26q67 -2 202 -2q191 0 288 2v-149l-20 -5q-11 69 -47 95.5t-113 26.5h-117z"/>
<glyph glyph-name="F" horiz-adv-x="557" unicode="F" d="M225 341v-243q0 -25 6 -40.5t20.5 -21.5t27 -8t37.5 -2v-26q-100 2 -142 2q-40 0 -142 -2v26q64 0 79.5 19.5t15.5 93.5v444q0 59 -16.5 73t-78.5 16v26q35 0 107.5 -1t109.5 -1q183 0 272 2l6 -141l-23 -4q-7 63 -43 88t-118 25h-118v-284h118q60 0 76 14t26 69h23 q-4 -38 -4 -109q0 -52 4 -106h-20q-6 33 -9 44.5t-13 25.5t-28 17.5t-51 3.5h-122z"/>
<glyph glyph-name="G" horiz-adv-x="778" unicode="G" d="M687 659l17 -140h-22q-19 83 -82 122.5t-153 39.5q-127 0 -203 -94.5t-76 -223.5q0 -88 33 -166t100 -129t153 -51q82 0 135 39v149q0 26 -6 42t-21 22t-26.5 7.5t-37.5 1.5v26q94 -2 138 -2q62 0 122 2v-26q-17 0 -26 -1.5t-21.5 -7.5t-18 -22t-5.5 -42v-131l15 -15v-17 q-159 -57 -260 -57q-100 0 -177.5 36t-120.5 92.5t-64.5 116.5t-21.5 118q0 157 107 261t265 104q112 0 257 -54z"/>
<glyph glyph-name="H" horiz-adv-x="834" unicode="H" d="M215 382h404v218q0 25 -6 40.5t-20.5 21.5t-27 8t-37.5 2v26q106 -2 148 -2q21 0 65 1t67 1v-26q-25 0 -37.5 -2t-27 -8t-20.5 -21.5t-6 -40.5v-502q0 -25 6 -40.5t20.5 -21.5t27 -8t37.5 -2v-26q-90 2 -135 2q-41 0 -145 -2v26q25 0 37.5 2t27 8t20.5 21.5t6 40.5v243 h-404v-243q0 -25 6 -40.5t20.5 -21.5t27 -8t37.5 -2v-26q-24 0 -69 1t-66 1q-45 0 -145 -2v26q25 0 37.5 2t27 8t20.5 21.5t6 40.5v502q0 25 -6 40.5t-20.5 21.5t-27 8t-37.5 2v26q94 -2 138 -2q42 0 142 2v-26q-25 0 -37.5 -2t-27 -8t-20.5 -21.5t-6 -40.5v-218z"/>
<glyph glyph-name="I" horiz-adv-x="332" unicode="I" d="M117 98v502q0 25 -6 40.5t-20.5 21.5t-27 8t-37.5 2v26q94 -2 138 -2q42 0 142 2v-26q-25 0 -37.5 -2t-27 -8t-20.5 -21.5t-6 -40.5v-502q0 -25 6 -40.5t20.5 -21.5t27 -8t37.5 -2v-26q-24 0 -69 1t-66 1q-45 0 -145 -2v26q25 0 37.5 2t27 8t20.5 21.5t6 40.5z"/>
<glyph glyph-name="J" horiz-adv-x="389" unicode="J" d="M272 600v-514q0 -64 -6.5 -106.5t-14.5 -61t-25 -48.5q-20 -36 -64 -59.5t-92 -23.5q-42 0 -72.5 17t-30.5 50q0 20 12 32t28 12h2q13 0 22.5 -9.5t9.5 -26.5q0 -20 15.5 -31.5t38.5 -11.5q19 0 33 9t22.5 27.5t13.5 35.5t7 45t2.5 44t0.5 44v576q0 25 -6 40.5 t-20.5 21.5t-27 8t-37.5 2v26q94 -2 138 -2q42 0 142 2v-26q-25 0 -37.5 -2t-27 -8t-20.5 -21.5t-6 -40.5z"/>
<glyph glyph-name="K" horiz-adv-x="722" unicode="K" d="M26 0v26q25 0 37.5 2t27 8t20.5 21.5t6 40.5v502q0 25 -6 40.5t-20.5 21.5t-27 8t-37.5 2v26q94 -2 138 -2q57 0 127 2v-26q-19 0 -28.5 -2t-23 -8t-19 -21.5t-5.5 -40.5v-502q0 -25 6 -40.5t19.5 -21.5t23.5 -8t31 -2v-26q-18 0 -59.5 1t-64.5 1q-45 0 -145 -2zM219 347 l235 247q37 37 37 55q0 11 -9.5 16t-19 6t-27.5 1v26q86 -2 129 -2q32 0 96 2v-26q-46 0 -81 -18.5t-98 -84.5l-171 -179q31 -35 94 -105t113 -124.5t96 -102.5q33 -32 86 -32v-26q-64 2 -97 2q-24 0 -72 -2q-44 53 -95.5 111t-116 127.5t-99.5 108.5z"/>
<glyph glyph-name="L" horiz-adv-x="611" unicode="L" d="M592 153l-37 -153q-85 2 -254 2q-177 0 -265 -2v26h13q78 0 78 67v507q0 25 -6 40.5t-20.5 21.5t-27 8t-37.5 2v26q94 -2 138 -2q42 0 142 2v-26q-25 0 -37.5 -2t-27 -8t-20.5 -21.5t-6 -40.5v-463q0 -41 9.5 -61t44 -32t104.5 -12q87 0 125.5 26t61.5 99z"/>
<glyph glyph-name="M" horiz-adv-x="1000" unicode="M" d="M235 698l269 -561q30 62 86.5 176t101.5 207.5t82 177.5q54 -2 82 -2q14 0 44 1t44 1v-26q-54 0 -70 -12q-19 -15 -19 -60q0 -70 2.5 -152t6 -178t4.5 -147q1 -32 4 -47.5t14 -28.5t32 -17t59 -4v-26q-27 0 -82 1t-83 1q-48 0 -146 -2v26q60 0 77 9q26 14 26 68l-7 477 h-2l-236 -490q-26 -57 -39 -99h-20q-70 156 -276 567h-2l-8 -362q0 -6 -0.5 -31t-0.5 -32q0 -72 21 -90q19 -17 81 -17v-26q-20 0 -62 1t-62 1q-45 0 -133 -2v26q30 0 48.5 5t35.5 20t25.5 46t9.5 80q11 377 11 410q0 53 -19 69t-69 16v26q70 -2 106 -2q11 0 32 1t32 1z"/>
<glyph glyph-name="N" horiz-adv-x="833" unicode="N" d="M724 569v-578h-23l-523 574v-373q0 -106 20 -136t99 -30v-26q-22 0 -66.5 1t-66.5 1q-45 0 -133 -2v26q30 0 44 2.5t31.5 13.5t24.5 38t7 73v402q0 64 -29 90.5t-94 26.5v26q62 -2 92 -2q13 0 41 1t41 1q18 -27 51.5 -65t96.5 -105t100 -108q49 -54 138.5 -150 t108.5 -117v398q0 70 -23.5 95t-97.5 26v26q92 -2 139 -2q20 0 58 1t58 1v-26q-53 0 -73.5 -17.5t-20.5 -85.5z"/>
<glyph glyph-name="O" horiz-adv-x="833" unicode="O" d="M168 374q0 -81 28 -160.5t89 -138t142 -58.5q108 0 173 85t65 222q0 81 -28 160.5t-89 138t-142 58.5q-108 0 -173 -85t-65 -222zM58 345q0 93 43.5 176.5t127.5 137.5t189 54q148 0 252.5 -107.5t104.5 -252.5q0 -93 -43.5 -176.5t-127.5 -137.5t-189 -54 q-148 0 -252.5 107.5t-104.5 252.5z"/>
<glyph glyph-name="P" d="M29 672v26q45 -2 135 -2q16 0 52.5 1t58.5 1q43 0 83.5 -9.5t80 -31t63.5 -62.5t24 -96q0 -85 -66 -142.5t-149 -57.5q-11 0 -27.5 0.5t-23.5 0.5v33q13 -2 38 -2q60 0 92 48t32 109q0 49 -16 86t-41.5 56t-52 27.5t-53.5 8.5t-44 -3v-565q0 -25 6 -40.5t21 -21.5t27 -8 t38 -2v-26q-25 0 -70 1t-66 1q-45 0 -145 -2v26q25 0 37.5 2t27 8t20.5 21.5t6 40.5v476q0 59 -16.5 78.5t-71.5 19.5z" unicode="P"/>
<glyph glyph-name="Q" horiz-adv-x="833" unicode="Q" d="M168 374q0 -81 28 -160.5t89 -138t142 -58.5q108 0 173 85t65 222q0 81 -28 160.5t-89 138t-142 58.5q-108 0 -173 -85t-65 -222zM794 -147l9 -18q-41 -54 -103 -54q-39 0 -78.5 23.5t-70 54.5t-76 68.5t-88.5 57.5q-136 13 -232.5 117t-96.5 243q0 93 43.5 176.5 t127.5 137.5t189 54q148 0 252.5 -107.5t104.5 -252.5q0 -117 -69 -216.5t-184 -134.5q36 -21 83.5 -62.5t84 -67t68.5 -25.5q24 0 36 6z"/>
<glyph glyph-name="R" horiz-adv-x="722" unicode="R" d="M449 515q0 69 -40 110t-124 41q-24 0 -60 -6v-293q25 -5 53 -5q85 0 128 46t43 107zM316 330h-91v-232q0 -25 6 -40.5t20.5 -21.5t27 -8t37.5 -2v-26q-24 0 -69 1t-66 1q-45 0 -145 -2v26h13q78 0 78 67v507q0 25 -6 40.5t-20.5 21.5t-27 8t-37.5 2v26q110 -2 152 -2 q14 0 56 1t78 1q67 0 115 -17t72 -45.5t34 -56.5t10 -58q0 -61 -40.5 -107t-101.5 -64q27 -39 60 -88.5t50 -75.5t37 -53t35 -44q28 -32 53 -47.5t60 -15.5v-26q-12 0 -37 1t-38 1q-29 0 -85 -2q-26 29 -50.5 60t-50 68.5t-42 63t-46 72.5t-41.5 66z"/>
<glyph glyph-name="S" horiz-adv-x="500" unicode="S" d="M66 19l-20 146h23q14 -61 55.5 -104.5t100.5 -43.5t98 37t39 96q0 38 -16.5 66.5t-42.5 47t-57.5 34.5t-63 34.5t-57.5 41t-42.5 59t-16.5 84.5q0 94 59.5 145t154.5 51q22 0 122 -15l16 -128h-23q-8 53 -41.5 82t-87.5 29q-56 0 -88 -36t-32 -92q0 -43 23 -75.5 t57 -50.5t74 -40t74 -43.5t57 -61.5t23 -94q0 -93 -70.5 -148t-164.5 -55q-80 0 -153 34z"/>
<glyph glyph-name="T" horiz-adv-x="666" unicode="T" d="M650 726l-9 -159h-27q-3 53 -12 66q-15 24 -68 24h-152v-559q0 -25 6 -40.5t20.5 -21.5t27 -8t37.5 -2v-26q-25 0 -69 1t-66 1q-45 0 -145 -2v26q25 0 37.5 2t27 8t20.5 21.5t6 40.5v559h-131q-23 0 -38.5 -1.5t-27 -8t-17.5 -10.5t-12 -18.5t-8 -21.5t-8 -30h-26l11 159 h20q11 -28 63 -28h454q59 0 65 28h21z"/>
<glyph glyph-name="U" horiz-adv-x="722" unicode="U" d="M710 698v-26q-55 0 -67 -28.5t-12 -123.5v-9v-288q0 -107 -67 -172.5t-194 -65.5q-126 0 -195.5 62.5t-71.5 187.5v365q0 25 -6 40.5t-20.5 21.5t-27 8t-37.5 2v26q94 -2 138 -2q42 0 142 2v-26q-25 0 -37.5 -2t-27 -8t-20.5 -21.5t-6 -40.5v-340q0 -234 195 -234 q182 0 182 197v285v54t-3 40t-3.5 29.5t-8 18.5t-10.5 12t-18 6t-22 3t-30 1v26q84 -2 126 -2q17 0 50.5 1t50.5 1z"/>
<glyph glyph-name="V" horiz-adv-x="723" unicode="V" d="M354 -15l-166 414q-6 16 -35 86t-42 108q-18 47 -37.5 63t-67.5 16v26q94 -2 141 -2q21 0 63.5 1t63.5 1v-26q-41 -3 -43 -3q-26 -2 -26 -24q0 -11 9 -39t18.5 -53t22 -55.5t14.5 -35.5l133 -342l76 198q6 16 33.5 86t39.5 108q2 5 11.5 33t14.5 47t5 34q0 9 -2 15.5 t-4.5 11t-8.5 8t-9 5.5t-12.5 3t-12 1.5t-14 1t-13.5 0.5v26q78 -2 118 -2q31 0 93 2v-26q-44 0 -67 -39q-2 -3 -76 -189l-183 -459h-37z"/>
<glyph glyph-name="W" horiz-adv-x="1000" unicode="W" d="M402 117l101 217l-119 276q-18 41 -33.5 51.5t-61.5 10.5v26q94 -2 139 -2q17 0 52.5 1t51.5 1v-26q-55 0 -55 -25q0 -11 11 -38l65 -167l63 137q18 39 18 61q0 15 -9 22.5t-20 8.5t-38 1v26q74 -2 115 -2q13 0 43 1t44 1v-26q-36 0 -55.5 -15.5t-35.5 -48.5l-102 -214 l120 -277l167 457q18 48 18 65q0 16 -15 24t-60 9v26q74 -2 112 -2q12 0 39.5 1t40.5 1v-26q-22 0 -37 -10t-21 -21.5t-16 -37.5l-239 -618h-26l-135 302l-141 -302h-28l-248 608q-19 47 -37.5 63t-67.5 16v26q88 -2 137 -2q19 0 59 1t59 1v-26q-62 0 -62 -23q0 -18 11 -46z "/>
<glyph glyph-name="X" horiz-adv-x="778" unicode="X" d="M265 596l136 -182l105 137q53 69 53 96q0 25 -66 25v26q84 -2 125 -2q20 0 58.5 1t57.5 1v-26q-53 0 -82.5 -18t-66.5 -66l-159 -206l206 -271q22 -30 53 -61q25 -24 70 -24v-26q-25 0 -75.5 1t-75.5 1q-36 0 -108 -2v26q59 0 59 13q0 9 -20 37l-169 231l-133 -182 q-1 -1 -11 -15t-15.5 -22.5t-11.5 -21t-6 -19.5q0 -21 78 -21v-26q-19 0 -59 1t-60 1q-41 0 -125 -2v26q31 0 47 5t26 10t32.5 27t52.5 62l160 210l-215 284q-35 48 -98 48v26q104 -2 160 -2q19 0 59 1t59 1v-26q-70 0 -70 -20q0 -16 29 -56z"/>
<glyph glyph-name="Y" horiz-adv-x="722" unicode="Y" d="M424 356v-258q0 -25 6 -40.5t20.5 -21.5t27 -8t37.5 -2v-26q-100 2 -142 2q-44 0 -138 -2v26q25 0 37.5 2t27 8t20.5 21.5t6 40.5v242l-209 288q-21 29 -33.5 34.5t-59.5 9.5v26q38 -2 139 -2q21 0 61 1t61 1v-26q-56 0 -56 -21q0 -15 33 -62l140 -197l131 179 q2 2 8.5 11.5t10.5 15t9.5 14.5t8 16.5t2.5 14.5q0 20 -14 24.5t-57 4.5v26q76 -2 115 -2q13 0 40.5 1t41.5 1v-26q-20 0 -36 -10t-24 -19t-23 -29z"/>
<glyph glyph-name="Z" horiz-adv-x="722" unicode="Z" d="M699 170l-46 -170q-55 0 -164.5 1t-151.5 1q-52 0 -157 -1t-157 -1l502 657h-324q-32 0 -55 -8.5t-36 -26t-19.5 -32.5t-13.5 -38h-24q2 9 10.5 46.5t14 67t5.5 47.5h26q1 -8 11 -12q8 -3 15 -3h536l-500 -657h292q103 0 142 26.5t72 108.5z"/>
<glyph glyph-name="bracketleft" horiz-adv-x="333" unicode="[" d="M99 -187v894l7 6q50 -3 92 -3q27 0 57 1.5t41 1.5v-26h-68q-39 0 -47 -8.5t-8 -40.5v-757q0 -34 14.5 -41t78.5 -7h30v-26q-48 3 -97 3q-47 0 -93 -3z"/>
<glyph glyph-name="backslash" horiz-adv-x="278" unicode="\" d="M289 -15h-66l-234 728h66z"/>
<glyph glyph-name="bracketright" horiz-adv-x="333" unicode="]" d="M234 707v-894l-7 -6q-50 3 -92 3q-27 0 -57 -1.5t-41 -1.5v26h68q39 0 47 8.5t8 40.5v757q0 34 -14.5 41t-78.5 7h-30v26q48 -3 97 -3q46 0 93 3z"/>
<glyph glyph-name="asciicircum" d="M135 325h-68l181 365h60l181 -365h-68l-143 291z" unicode="^"/>
<glyph glyph-name="underscore" horiz-adv-x="500" unicode="_" d="M500 -125h-500v50h500v-50z"/>
<glyph glyph-name="grave" horiz-adv-x="278" unicode="`" d="M285 545h-35l-167 104q-17 10 -17 34q0 10 9.5 20t22.5 10q5 0 10.5 -2t9.5 -4t9.5 -6.5t8 -6.5t8 -8t7.5 -8z"/>
<glyph glyph-name="a" horiz-adv-x="500" unicode="a" d="M456 56l9 -17q-58 -54 -99 -54q-29 0 -44.5 22t-17.5 52q-81 -74 -154 -74q-47 0 -77.5 28t-30.5 69q1 21 4.5 35t18 28.5t27.5 23t49.5 23.5t66.5 26t95 33v66q0 86 -97 86q-34 0 -54.5 -18.5t-21.5 -51.5q0 -19 -18 -30.5t-38 -11.5q-18 0 -18 20q0 36 26.5 59t88.5 55 q6 3 18.5 10t18 9.5t15 6t18.5 5t20 1.5q40 0 81 -23t41 -61v-277q0 -57 36 -57q23 0 37 17zM303 90v132q-10 -4 -38 -12.5t-49 -16.5t-44.5 -20.5t-36.5 -30t-13 -38.5q0 -29 21 -50.5t50 -21.5q22 0 44 10t31.5 18t34.5 30z"/>
<glyph glyph-name="b" d="M179 356v-243q0 -34 28.5 -68t74.5 -34q74 0 113 59t39 135q0 79 -50 138.5t-110 59.5q-40 0 -95 -47zM179 750v-365q85 72 149 72q84 0 135 -62t51 -148q0 -103 -68 -182.5t-171 -79.5q-21 0 -39.5 2.5t-34.5 7t-25 8t-23 10t-17 7.5l-30 -23l-21 11q14 92 14 178v430 q0 32 -6.5 47.5t-14.5 19.5t-32 11v16q64 21 103 43q20 11 22 11q8 0 8 -14z" unicode="b"/>
<glyph glyph-name="c" horiz-adv-x="444" unicode="c" d="M402 106l17 -17q-89 -104 -195 -104q-78 0 -138.5 63.5t-60.5 143.5q0 110 70.5 187.5t177.5 77.5q29 0 58 -5.5t53 -22t24 -41.5q0 -18 -10.5 -31t-27.5 -13q-13 0 -25.5 12.5t-22 28t-32 28t-54.5 12.5q-60 0 -95.5 -54t-35.5 -118q0 -80 48 -137t127 -57q60 0 122 47z "/>
<glyph glyph-name="d" d="M383 104v229q0 50 -32 71t-74 21q-60 0 -104.5 -47t-44.5 -141q0 -83 45 -137.5t113 -54.5q28 0 62.5 17t34.5 42zM463 750v-664q0 -29 8.5 -35t40.5 -6h17v-20h-1q-18 -4 -71 -20q-62 -20 -63 -20q-11 0 -11 27v46h-2q-71 -73 -153 -73q-86 0 -136 64t-50 153 q0 103 72.5 179t174.5 76q51 0 94 -18v177q0 32 -6.5 47.5t-14.5 19.5t-32 11v16q64 21 103 43q20 11 22 11q8 0 8 -14z" unicode="d"/>
<glyph glyph-name="e" horiz-adv-x="444" unicode="e" d="M117 308h174q28 0 28 25q0 40 -23 66t-64 26q-45 0 -75.5 -31t-39.5 -86zM395 276h-281q-2 -8 -2 -20q0 -4 2 -38q5 -72 46.5 -122.5t100.5 -50.5q68 0 135 67l14 -14q-85 -113 -185 -113q-45 0 -80.5 17t-55.5 41.5t-33 55.5t-17.5 56.5t-4.5 47.5q0 69 21 121.5 t54 79.5t65.5 40t61.5 13q67 0 117.5 -41t51.5 -116q0 -12 -1 -18z"/>
<glyph glyph-name="f" horiz-adv-x="333" unicode="f" d="M192 442h127v-54h-127v-338q0 -11 8 -16.5t16 -6.5t23 -1h45v-26q-86 2 -128 2t-124 -2v26h38q42 0 42 32v330h-70v17q4 3 20 11t24.5 13.5t17 16t8.5 22.5q0 58 19 120.5t61 106.5q36 37 70 53t51 16q45 0 45 -41q0 -39 -35 -39q-11 0 -30 7q-14 7 -34 7q-67 0 -67 -113 v-143z"/>
<glyph glyph-name="g" horiz-adv-x="500" unicode="g" d="M322 300q0 51 -27 91t-76 40q-42 0 -65 -34.5t-23 -79.5q0 -51 23.5 -92.5t70.5 -41.5q48 0 72.5 33.5t24.5 83.5zM403 -81q0 81 -141 81q-23 0 -35.5 -0.5t-35.5 -3t-37 -8.5t-29 -16t-22 -26.5t-7 -39.5q0 -49 38 -75.5t94 -26.5q26 0 53.5 6t56 18t47 36t18.5 55z M475 431v-48l-99 4q26 -32 26 -76q0 -60 -49 -107t-136 -47q-25 0 -55 6q-30 -22 -30 -51q0 -46 70 -46q26 0 72.5 -0.5t65.5 -0.5q68 0 102.5 -23.5t34.5 -77.5q0 -19 -12.5 -47.5t-39.5 -62.5t-83 -58t-130 -24q-89 0 -139 33.5t-50 78.5t33.5 75t83.5 40v2 q-36 10 -62 32.5t-26 54.5q0 22 4 32q10 6 29.5 17t33.5 19t20 14q-94 49 -94 133q0 68 49 111t138 43q40 0 88 -14q60 -17 97 -17q25 0 58 5z"/>
<glyph glyph-name="h" d="M93 59v557q0 32 -6.5 47.5t-14.5 19.5t-32 11v16q64 21 103 43q20 11 22 11q8 0 8 -14v-381q1 1 9 9.5t17 17t24 20t30 20.5t35 15t39 6q64 0 99 -42t35 -109v-247q0 -16 7.5 -23.5t16 -8.5t26.5 -1h18v-26q-17 0 -53 1t-55 1q-36 0 -108 -2v26h18q35 0 42.5 17t7.5 92 v113q0 33 -3 55t-12 46t-29.5 36t-53.5 12q-49 0 -110 -56v-282q0 -16 7.5 -23.5t16 -8.5t26.5 -1h18v-26q-17 0 -52.5 1t-53.5 1q-36 0 -108 -2v26h18q18 0 26 1t15 8.5t7 23.5z" unicode="h"/>
<glyph glyph-name="i" horiz-adv-x="278" unicode="i" d="M188 661q0 -20 -14.5 -35t-34.5 -15q-19 0 -34 15t-15 35q0 19 15 33.5t34 14.5q20 0 34.5 -14t14.5 -34zM32 0v26h19q18 0 26 1t15 8.5t7 23.5v271q0 21 -6.5 34t-14 18t-31.5 18v16q98 29 107 36q9 5 18 5q7 0 7 -14v-384q0 -16 7.5 -23.5t16 -8.5t26.5 -1h17v-26 q-17 0 -52 1t-53 1q-35 0 -109 -2z"/>
<glyph glyph-name="j" horiz-adv-x="278" unicode="j" d="M188 661q0 -20 -14.5 -35t-34.5 -15q-19 0 -34 15t-15 35q0 19 15 33.5t34 14.5q20 0 34.5 -14t14.5 -34zM179 443v-481q0 -36 -8 -63.5t-19 -44.5t-35 -33.5t-41.5 -25t-53.5 -23.5l-7 23q30 15 48 29.5t25.5 36t9 38.5t1.5 53v378q0 31 -12 42.5t-54 27.5v16 q90 17 121 36q9 5 18 5q7 0 7 -14z"/>
<glyph glyph-name="k" d="M502 442v-26q-38 0 -65.5 -13.5t-58.5 -42.5l-111 -100l169 -187q30 -33 44 -40t49 -9v-24q-52 2 -78 2q-23 0 -67 -2q-15 20 -32 41l-159 180h-20v-162q0 -16 7.5 -23.5t16 -8.5t26.5 -1h18v-26q-17 0 -52.5 1t-53.5 1q-36 0 -108 -2v26h18q18 0 26 1t15 8.5t7 23.5v557 q0 32 -6.5 47.5t-14.5 19.5t-32 11v16q64 21 103 43q20 11 22 11q8 0 8 -14v-506l32 6l108 95q39 34 39 51q0 20 -49 20v26q70 -2 106 -2q31 0 93 2z" unicode="k"/>
<glyph glyph-name="l" horiz-adv-x="278" unicode="l" d="M32 0v26h19q18 0 26 1t15 8.5t7 23.5v557q0 32 -6.5 47.5t-14.5 19.5t-32 11v16q64 21 103 43q20 11 22 11q8 0 8 -14v-691q0 -16 7.5 -23.5t16 -8.5t26.5 -1h17v-26q-17 0 -52 1t-53 1q-35 0 -109 -2z"/>
<glyph glyph-name="m" horiz-adv-x="832" unicode="m" d="M93 59v271q0 21 -6.5 34t-14 18t-31.5 18v16q93 28 107 36q9 5 18 5q7 0 7 -14v-61q40 29 56 39t49.5 23t67.5 13q85 0 106 -77q6 4 30.5 21t34 22.5t30 16t38.5 14t39 3.5q61 0 90 -40t29 -101v-257q0 -16 7.5 -23.5t16 -8.5t26.5 -1h15v-26q-16 0 -50 1t-53 1 q-36 0 -108 -2v26h18q18 0 26 1t15 8.5t7 23.5v221q0 56 -18 89.5t-69 33.5q-49 0 -118 -48v-296q0 -16 8 -23.5t16.5 -8.5t26.5 -1h18v-26q-17 0 -53 1t-54 1q-36 0 -108 -2v26h18q18 0 26 1t15 8.5t7 23.5v221q0 56 -18 89.5t-69 33.5q-49 0 -118 -48v-296 q0 -16 7.5 -23.5t16 -8.5t26.5 -1h18v-26q-17 0 -52.5 1t-53.5 1q-33 0 -111 -2v26h21q18 0 26 1t15 8.5t7 23.5z"/>
<glyph glyph-name="n" d="M93 59v265q0 27 -11 39t-47 27v19q87 28 132 48q6 0 6 -10v-65q36 26 57 39t52.5 24.5t63.5 11.5q115 0 115 -140v-258q0 -16 7.5 -23.5t16 -8.5t26.5 -1h18v-26q-17 0 -52.5 1t-53.5 1q-36 0 -108 -2v26h18q18 0 26 1t15 8.5t7 23.5v259q0 42 -24 63.5t-68 21.5 t-116 -48v-296q0 -16 7.5 -23.5t16 -8.5t26.5 -1h18v-26q-17 0 -52.5 1t-53.5 1q-36 0 -108 -2v26h18q18 0 26 1t15 8.5t7 23.5z" unicode="n"/>
<glyph glyph-name="o" d="M134 229q0 -45 14.5 -93t50 -86.5t84.5 -38.5q47 0 80 33.5t46 77.5t13 91q0 46 -14.5 93.5t-50.5 86t-85 38.5q-46 0 -79 -33.5t-46 -77.5t-13 -91zM42 219q0 99 65 168.5t164 69.5q106 0 174.5 -64.5t68.5 -169.5q0 -97 -67.5 -167.5t-162.5 -70.5q-102 0 -172 65 t-70 169z" unicode="o"/>
<glyph glyph-name="p" d="M434 203q0 77 -44.5 132.5t-121.5 55.5q-44 0 -89 -33v-272q37 -69 107 -69q68 0 108 57.5t40 128.5zM179 4v-182q0 -11 8 -16.5t16 -6.5t23 -1h45v-26q-86 2 -128 2t-124 -2v26h38q42 0 42 32v474q0 22 -3 36.5t-10 23t-12 12t-17.5 8t-16.5 6.5v15q105 49 118 54 q1 0 4.5 2t5.5 2q11 0 11 -9v-71q82 74 151 74q80 0 132 -65t52 -148q0 -104 -72 -181.5t-174 -77.5q-48 0 -89 19z" unicode="p"/>
<glyph glyph-name="q" d="M387 66v270q0 27 -33 58t-79 31q-22 0 -44.5 -9t-47 -29t-40 -61t-15.5 -96q0 -74 47.5 -132.5t119.5 -58.5q48 0 92 27zM387 -170v212q-75 -57 -143 -57q-91 0 -146.5 61t-55.5 149q0 107 76 184.5t168 77.5q58 0 120 -35l51 44l10 -7v-637q0 -11 8 -16.5t16 -6.5t23 -1 h18v-26q-32 2 -101 2q-36 0 -130 -2v26h44q42 0 42 32z" unicode="q"/>
<glyph glyph-name="r" horiz-adv-x="389" unicode="r" d="M24 0v26h27q18 0 26 1t15 8.5t7 23.5v281q0 11 -6.5 19t-13.5 12t-18 8t-14 6v15q31 13 60.5 28t43.5 22t18 7q9 0 9 -13v-90h2q13 20 23 33.5t27 32t36.5 28t41.5 9.5q21 0 39 -14t18 -39q0 -21 -13.5 -36t-33.5 -15q-15 0 -31.5 12t-34.5 12q-20 0 -46.5 -22t-26.5 -61 v-235q0 -16 7 -23.5t15 -8.5t26 -1h56v-26q-110 2 -140 2q-47 0 -119 -2z"/>
<glyph glyph-name="s" horiz-adv-x="389" unicode="s" d="M42 134l18 5q11 -54 42.5 -88t83.5 -34q41 0 61 20.5t20 50.5q0 32 -22.5 54t-54.5 36t-64 30t-54.5 46.5t-22.5 74.5q0 49 39.5 88.5t115.5 39.5q57 0 114 -29l7 -102h-23q-16 99 -109 99q-32 0 -55 -17.5t-23 -48.5q0 -32 24 -54t58 -36t68 -29.5t58 -45.5t24 -73 q0 -55 -44.5 -95.5t-127.5 -40.5q-63 0 -122 34z"/>
<glyph glyph-name="t" horiz-adv-x="333" unicode="t" d="M165 388v-265q0 -45 19 -64.5t44 -19.5q37 0 70 29l15 -15q-66 -68 -133 -68q-95 0 -95 93v310h-66v16q5 4 16.5 12.5t16 12t14 11.5t14.5 12.5t13.5 12.5t14 15.5t13.5 17.5t16 21.5t16 24.5h12v-102h149v-54h-149z"/>
<glyph glyph-name="u" d="M461 424v-369q0 -9 4 -13t9 -5t15 -1q6 0 19.5 0.5t20.5 0.5v-21q-65 -6 -144 -31l-5 3v81q-54 -44 -91.5 -64t-85.5 -20q-45 0 -77.5 30t-32.5 89v256q0 16 -3 25.5t-17 19t-40 11.5v19q20 1 71.5 4t57.5 3q8 0 9.5 -5.5t1.5 -23.5v-258q0 -116 87 -116q48 0 121 61v269 q0 18 -74 38q-7 2 -10 3v18q39 3 76.5 6.5t57 5.5t22.5 2q8 0 8 -18z" unicode="u"/>
<glyph glyph-name="v" horiz-adv-x="500" unicode="v" d="M232 -15l-136 354q-21 54 -33.5 65.5t-43.5 11.5v26q66 -2 100 -2q17 0 52 1t52 1v-26q-35 0 -46 -5t-11 -22q0 -6 3 -15.5t6.5 -19t10.5 -27.5t12 -31l70 -190l83 206q20 53 20 79q0 13 -10 17.5t-43 7.5v26q48 -2 72 -2q15 0 45 1t46 1v-26q-33 0 -49 -16.5t-31 -55.5 l-144 -359h-25z"/>
<glyph glyph-name="w" horiz-adv-x="778" unicode="w" d="M232 -15l-142 354q-21 54 -33.5 65.5t-43.5 11.5v26q66 -2 100 -2q18 0 51.5 1t47.5 1v-26q-52 0 -52 -19q0 -10 8 -30l105 -269l85 220q5 13 5 33q0 60 -72 65v26q72 -2 109 -2q16 0 49 1t50 1v-26q-3 0 -10.5 -0.5t-11.5 -1t-10.5 -1.5t-9.5 -2.5l-7 -3.5t-5.5 -6 t-1.5 -9q0 -18 23 -74l83 -220h2q29 72 85 218q16 45 16 71q0 5 -1 8.5t-4 6.5t-6 5t-8 3.5t-8 2.5t-9 1.5t-8.5 0.5t-8.5 0.5t-7 0.5v26q62 -2 94 -2q13 0 39 1t40 1v-26q-31 0 -47 -16.5t-31 -55.5l-141 -353l-36 -6l-123 315l-120 -309z"/>
<glyph glyph-name="x" d="M19 0v26q45 0 66.5 9t49.5 44q13 17 50 59.5t57 66.5q-5 6 -65 85.5t-87 106.5q-16 16 -53 19v26q68 -2 103 -2q18 0 55 1t55 1v-26q-52 0 -52 -16q0 -6 21.5 -35t47 -60.5t29.5 -37.5q8 10 35 41t46 55.5t19 32.5q0 20 -46 20v26q72 -2 108 -2q13 0 39 1t40 1v-26 q-39 0 -63 -11t-49 -40q-15 -18 -52.5 -60t-56.5 -65q11 -12 49.5 -62.5t73.5 -94.5t42 -48q16 -9 34 -9h22v-26q-20 0 -57.5 1t-55.5 1q-37 0 -109 -2v26q17 0 24 0.5t15.5 1.5t11 4t2.5 9q0 3 -22.5 32.5t-51 64.5t-32.5 41q-5 -7 -33.5 -39.5t-53.5 -62t-25 -35.5 q0 -11 13.5 -13.5t45.5 -2.5v-26q-62 2 -94 2t-96 -2z" unicode="x"/>
<glyph glyph-name="y" horiz-adv-x="500" unicode="y" d="M17 416v26q78 -2 116 -2q15 0 45 1t45 1v-26q-2 0 -10.5 -1t-12.5 -1.5t-11.5 -2t-11 -4t-6.5 -7.5t-3 -11q0 -16 48.5 -135t52.5 -134h2q7 21 33.5 82t46 110.5t19.5 61.5q0 19 -10 29t-19.5 11.5t-26.5 1.5v26q62 -2 94 -2q25 0 75 2v-26h-2q-31 0 -45.5 -15t-31.5 -49 l-226 -530q-21 -50 -64 -50q-22 0 -35.5 14t-13.5 34q0 19 14 34.5t34 15.5q25 0 41 -15q22 46 39.5 86.5t24.5 57.5l6 17q0 1 -33.5 86.5t-69.5 176t-41 100.5q-21 37 -55 37h-8z"/>
<glyph glyph-name="z" horiz-adv-x="444" unicode="z" d="M138 32h145q41 1 57.5 16.5t55.5 82.5l21 -5l-28 -126h-367v8l267 402h-115q-31 0 -45.5 -2.5t-32 -19.5t-27.5 -52h-24l13 127h20q0 -15 12.5 -18t54.5 -3h258z"/>
<glyph glyph-name="braceleft" horiz-adv-x="333" unicode="{" d="M131 -46v186q0 53 -15.5 79.5t-60.5 40.5q45 14 60.5 40.5t15.5 79.5v186q0 88 35.5 117.5t111.5 29.5v-14q-45 -10 -63 -40t-18 -87v-177q0 -60 -16 -90.5t-65 -43.5v-2q49 -13 65 -43.5t16 -90.5v-177q0 -57 18 -87t63 -40v-14q-76 0 -111.5 29.5t-35.5 117.5z"/>
<glyph glyph-name="bar" horiz-adv-x="222" unicode="|" d="M78 -15v779h66v-779h-66z"/>
<glyph glyph-name="braceright" horiz-adv-x="333" unicode="}" d="M202 566v-186q0 -53 15.5 -79.5t60.5 -40.5q-45 -14 -60.5 -40.5t-15.5 -79.5v-186q0 -88 -35.5 -117.5t-111.5 -29.5v14q45 10 63 40t18 87v177q0 60 16 90.5t65 43.5v2q-49 13 -65 43.5t-16 90.5v177q0 57 -18 87t-63 40v14q76 0 111.5 -29.5t35.5 -117.5z"/>
<glyph glyph-name="asciitilde" d="M473 291l36 -50q-20 -27 -33 -42t-38 -29.5t-54 -14.5q-36 0 -106 33q-64 33 -111 33q-52 0 -84 -70l-36 50q45 86 125 86q47 0 117 -33q74 -33 96 -33q27 0 46.5 18t41.5 52z" unicode="~"/>
<glyph glyph-name="uni00A0" horiz-adv-x="278" unicode=" "/>
<glyph glyph-name="exclamdown" horiz-adv-x="333" unicode="¡" d="M166 485q27 0 46.5 -19t19.5 -46q0 -26 -20 -46.5t-46 -20.5t-46 20t-20 47t19.5 46t46.5 19zM155 282h23l36 -244q15 -99 15 -139q0 -100 -62 -100q-63 0 -63 100q0 40 15 139z"/>
<glyph glyph-name="cent" d="M154 -148l52 150q-54 24 -89.5 77.5t-35.5 112.5q0 110 70.5 187.5t177.5 77.5q17 0 35 -3l42 122h37l-45 -129q66 -17 66 -59q0 -18 -10.5 -31t-27.5 -13q-8 0 -15 4t-11 9t-11.5 14.5t-11.5 14.5l-109 -313q33 -14 68 -14q60 0 122 47l17 -17q-89 -104 -195 -104 q-22 0 -41 6l-48 -139h-37zM237 91l112 320q-23 14 -57 14q-60 0 -95.5 -54t-35.5 -118q0 -50 20 -93t56 -69z" unicode="¢"/>
<glyph glyph-name="sterling" d="M178 368h-112l4 41h114q54 355 261 355q33 0 58.5 -12t25.5 -40q0 -19 -11 -30t-28 -11q-11 0 -20 4q-3 31 -16 44t-44 13q-22 0 -40.5 -14.5t-29.5 -33.5t-21 -50.5t-14 -52.5t-10 -53.5t-7 -39.5q-8 -40 -12 -79h136l-5 -41h-138q-23 -134 -104 -247q20 2 30 2l24 -2 q38 -5 76 -27t67 -42t48 -20q26 0 39.5 16.5t13.5 31.5q0 31 -38 45q-1 3 -1 9q0 15 9.5 24.5t24.5 9.5q22 0 33.5 -16t11.5 -39q0 -17 -7 -36.5t-22.5 -41t-46 -36t-71.5 -14.5q-32 0 -64 15.5t-53 33.5t-46.5 33.5t-46.5 15.5h-4q-20 -34 -46 -60.5t-50 -26.5 q-8 0 -13.5 6.5t-5.5 14.5q0 29 30.5 58.5t69.5 40.5q31 53 51 252z" unicode="£"/>
<glyph glyph-name="currency" d="M460 346q0 74 -53 130.5t-126 56.5q-77 0 -131 -55.5t-54 -133.5q0 -77 54 -132t130 -55q75 0 127.5 56.5t52.5 132.5zM27 138l55 57q-52 64 -52 149q0 96 54 151l-57 57l44 45l56 -57q62 53 154 53q86 0 147 -52l56 56l45 -45l-54 -55q51 -58 51 -151q0 -89 -51 -152 l54 -56l-43 -43l-54 58q-62 -56 -152 -56q-92 0 -156 55l-54 -57z" unicode="¤"/>
<glyph glyph-name="yen" d="M-20 672v26q26 -2 122 -2q21 0 61.5 1t60.5 1v-26q-66 0 -66 -21q0 -6 34 -68l113 -196l110 182q36 61 36 74q0 20 -14 24.5t-57 4.5v26q76 -2 115 -2q13 0 40 1t41 1v-26q-29 -1 -47.5 -15.5t-36.5 -42.5l-159 -254h126v-41h-132v-78h132v-41h-132v-102q0 -20 5.5 -34 t12.5 -21.5t22.5 -11t25.5 -4.5t31 -1v-26q-100 2 -142 2q-50 0 -132 -2v26q21 0 31 1t25.5 4.5t22.5 11t12.5 21.5t5.5 34v102h-132v41h132v78h-132v41h119l-163 268q-16 27 -36.5 35.5t-54.5 8.5z" unicode="¥"/>
<glyph glyph-name="brokenbar" horiz-adv-x="222" unicode="¦" d="M78 482v282h66v-282h-66zM78 -15v282h66v-282h-66z"/>
<glyph glyph-name="section" d="M130 479q0 -46 22.5 -98.5t55.5 -101.5t66 -99t58 -106.5t28 -107.5q0 -42 -23 -86l2 -2q70 70 70 164q0 56 -36.5 130t-79.5 133.5t-79.5 129t-36.5 117.5q0 39 13 78l-2 2q-58 -72 -58 -153zM307 713q23 0 50 -6.5t50.5 -23.5t23.5 -41q0 -38 -43 -38q-15 0 -27.5 12 t-20.5 26.5t-24 26.5t-38 12q-61 0 -61 -89q0 -49 24 -103.5t58 -104t68 -101t58 -113.5t24 -122q0 -98 -65.5 -169.5t-162.5 -71.5q-41 0 -84 21.5t-43 59.5q0 16 11 27t27 11q19 0 32 -13.5t20 -30t23 -30t38 -13.5q38 0 56 31t18 72q0 57 -36 126.5t-78.5 125.5 t-78.5 132.5t-36 146.5q0 93 63 166.5t154 73.5z" unicode="§"/>
<glyph glyph-name="dieresis" horiz-adv-x="278" unicode="¨" d="M88 610q0 -18 -14 -31.5t-32 -13.5q-19 0 -32.5 13.5t-13.5 31.5t13.5 32t32.5 14q18 0 32 -14t14 -32zM282 610q0 -18 -14 -31.5t-32 -13.5t-32 13.5t-14 31.5t14 32t32 14t32 -14t14 -32z"/>
<glyph glyph-name="copyright" horiz-adv-x="800" unicode="©" d="M562 260h18l-17 -74q-1 -12 -28 -20q-54 -18 -113 -18q-101 0 -164.5 52t-63.5 158q0 76 61 140t174 64q50 0 111 -19q22 -7 22 -22v-74h-20q-4 39 -32 67t-84 28q-75 0 -113.5 -49.5t-38.5 -130.5q0 -89 38.5 -141.5t119.5 -52.5q92 0 130 92zM400 32q127 0 216 94 t89 220q0 130 -88.5 225t-216.5 95q-127 0 -216 -95t-89 -225q0 -126 89.5 -220t215.5 -94zM400 -15q-152 0 -258 106t-106 255q0 153 106 260t258 107q153 0 258.5 -107t105.5 -260q0 -149 -106 -255t-258 -106z"/>
<glyph glyph-name="ordfeminine" horiz-adv-x="325" unicode="ª" d="M247 656v-166q0 -35 23 -35q13 0 22 9l7 -11q-33 -30 -63 -30q-20 0 -33 14t-14 33q-45 -47 -101 -47q-26 0 -44 17t-18 41q0 34 46 56q20 10 116 42v43q0 24 -15 37.5t-41 13.5q-19 0 -31.5 -11t-13.5 -31q0 -12 -13.5 -18.5t-27.5 -6.5q-12 0 -12 12q0 21 17 34.5 t58 33.5q40 19 59 19q26 0 52.5 -13.5t26.5 -35.5zM188 489v75q-53 -16 -78 -31t-25 -39q0 -39 38 -39q35 0 65 34z"/>
<glyph glyph-name="guillemotleft" d="M269 244l167 163l17 -14l-104 -149l104 -149l-17 -14zM103 244l167 163l17 -14l-104 -149l104 -149l-17 -14z" unicode="«"/>
<glyph glyph-name="logicalnot" d="M433 76v212h-376v66h442v-278h-66z" unicode="¬"/>
<glyph glyph-name="uni00AD" horiz-adv-x="333" unicode="­" d="M292 277l-9 -66q-60 3 -120 3q-81 0 -121 -3l9 66q60 -3 121 -3q60 0 120 3z"/>
<glyph glyph-name="registered" horiz-adv-x="800" unicode="®" d="M348 530v-178h47q71 0 71 96q0 82 -73 82h-45zM401 173v-14h-172v14q43 6 48 12q5 5 5 21v276v5q0 32 -6.5 37.5t-44.5 9.5v16h186q52 0 87.5 -25t35.5 -72q0 -40 -23.5 -69.5t-62.5 -41.5l60 -84q48 -66 80 -91v-8h-67q-15 0 -30 18t-45 70t-52 85h-52v-126q0 -20 8 -24 t45 -9zM400 32q127 0 216 94t89 220q0 130 -88.5 225t-216.5 95q-127 0 -216 -95t-89 -225q0 -126 89.5 -220t215.5 -94zM400 -15q-152 0 -258 106t-106 255q0 153 106 260t258 107q153 0 258.5 -107t105.5 -260q0 -149 -106 -255t-258 -106z"/>
<glyph glyph-name="macron" horiz-adv-x="278" unicode="¯" d="M272 580h-266v54h266v-54z"/>
<glyph glyph-name="degree" horiz-adv-x="400" unicode="°" d="M200 705q60 0 101.5 -41.5t41.5 -101.5t-41.5 -101.5t-101.5 -41.5t-101.5 41.5t-41.5 101.5t41.5 101.5t101.5 41.5zM116 562q0 -41 26 -65t58 -24t58 24t26 65t-26 65t-58 24t-58 -24t-26 -65z"/>
<glyph glyph-name="plusminus" d="M57 0v66h442v-66h-442zM245 299v110h66v-110h188v-66h-188v-110h-66v110h-188v66h188z" unicode="±"/>
<glyph glyph-name="two.superior" horiz-adv-x="361" unicode="²" d="M112 336h192l15 25h19l-19 -79h-291q-5 0 -5 9v6q0 1 5 6q54 40 104 93q96 104 96 176q0 86 -79 86q-44 0 -89 -50l-18 12q19 25 34.5 41t45.5 30t66 14q50 0 82 -31.5t32 -78.5q0 -29 -12 -59t-38 -60.5t-43.5 -49.5t-53 -51t-43.5 -39z"/>
<glyph glyph-name="three.superior" horiz-adv-x="361" unicode="³" d="M122 481v26q43 3 76 28.5t33 60.5q0 32 -18 50t-49 18q-43 0 -82 -36l-14 11q32 34 60.5 50t73.5 16q39 0 67 -24t28 -61q0 -35 -28 -63t-68 -43l2 -2h9q24 0 47 -7t43.5 -30t20.5 -59q0 -51 -46.5 -97t-131.5 -46q-47 0 -77 16.5t-30 33.5q0 8 6.5 14t14.5 6q9 0 18 -11 t26.5 -22t46.5 -11q45 0 72 27t27 66q0 90 -108 90q-3 0 -9.5 -0.5t-9.5 -0.5z"/>
<glyph glyph-name="acute" horiz-adv-x="278" unicode="´" d="M28 545h-35l134 133q2 2 7.5 8t8 8t8 6.5t9.5 6.5t9.5 4t10.5 2q13 0 22.5 -10t9.5 -20q0 -24 -17 -34z"/>
<glyph glyph-name="mu" d="M461 424v-369q0 -9 4 -13t9 -5t15 -1q6 0 19.5 0.5t20.5 0.5v-21q-65 -6 -144 -31l-5 3v81q-54 -44 -91.5 -64t-85.5 -20q-32 0 -54 21q0 -41 7 -98.5t7 -75.5v-8q-2 -52 -46 -52q-40 0 -40 52q0 16 8 114.5t8 166.5v255q0 16 -3 25.5t-17 19t-40 11.5v19q20 1 71.5 4 t57.5 3q8 0 9.5 -5.5t1.5 -23.5v-258q0 -116 87 -116q48 0 121 61v269q0 18 -74 38q-7 2 -10 3v18q39 3 76.5 6.5t57 5.5t22.5 2q8 0 8 -18z" unicode="µ"/>
<glyph glyph-name="paragraph" d="M235 316v341q-62 0 -91 -35.5t-29 -129.5q0 -88 35 -132t85 -44zM515 698v-20q-55 -7 -68.5 -14.5t-13.5 -39.5v-728q0 -32 13.5 -39.5t68.5 -14.5v-20h-148v844h-66v-844h-148v20q55 7 68.5 14.5t13.5 39.5v379q-96 0 -145 59t-49 160q0 108 48.5 156t160.5 48h265z" unicode="¶"/>
<glyph glyph-name="periodcentered" horiz-adv-x="278" unicode="·" d="M205 292q0 -26 -19.5 -46t-45.5 -20q-28 0 -47.5 19.5t-19.5 46.5q0 28 19.5 47t46.5 19t46.5 -19.5t19.5 -46.5z"/>
<glyph glyph-name="cedilla" horiz-adv-x="278" unicode="¸" d="M155 0l-30 -64l2 -2q13 9 32 9q32 0 55 -20.5t23 -51.5q0 -43 -34 -63.5t-80 -20.5q-50 0 -88 15l14 30q43 -13 63 -13q23 0 41 11t18 32q0 18 -13 29t-32 11q-20 0 -36 -6l-14 5l44 99h35z"/>
<glyph glyph-name="one.superior" horiz-adv-x="361" unicode="¹" d="M228 705v-372q0 -14 9.5 -19.5t33.5 -5.5h37v-26q-22 0 -58 0.5t-52 0.5q-79 0 -116 -1v26h37q24 0 33.5 5.5t9.5 19.5v311q-62 -31 -93 -46l-9 21q64 30 155 86h13z"/>
<glyph glyph-name="ordmasculine" horiz-adv-x="361" unicode="º" d="M92 568q0 -45 22.5 -85t69.5 -40q44 0 64.5 35t20.5 81t-22.5 86t-69.5 40q-45 0 -65 -35t-20 -82zM26 562q0 59 44 101t107 42q67 0 112.5 -39t45.5 -101q0 -58 -44 -100t-106 -42q-67 0 -113 38.5t-46 100.5z"/>
<glyph glyph-name="guillemotright" d="M287 244l-167 -163l-17 14l104 149l-104 149l17 14zM453 244l-167 -163l-17 14l104 149l-104 149l17 14z" unicode="»"/>
<glyph glyph-name="onequarter" horiz-adv-x="834" unicode="¼" d="M220 705v-372q0 -14 9.5 -19.5t33.5 -5.5h37v-26q-22 0 -58 0.5t-52 0.5q-79 0 -116 -1v26h37q24 0 33.5 5.5t9.5 19.5v311q-62 -31 -93 -46l-9 21q64 30 155 86h13zM231 -23h-46l451 736h46zM634 174v172h-2l-136 -172h138zM634 0v127h-190v28l219 268h30v-249h67v-47 h-67v-127h-59z"/>
<glyph glyph-name="onehalf" horiz-adv-x="834" unicode="½" d="M800 79l-19 -79h-291q-5 0 -5 9v6q0 1 5 6q54 40 104 93q96 104 96 176q0 86 -79 86q-44 0 -89 -50l-18 12q19 25 34.5 41t45.5 30t66 14q50 0 82 -31.5t32 -78.5q0 -29 -12 -59t-38 -60.5t-43.5 -49.5t-53 -51t-43.5 -39h192l15 25h19zM220 705v-372q0 -14 9.5 -19.5 t33.5 -5.5h37v-26q-22 0 -58 0.5t-52 0.5q-79 0 -116 -1v26h37q24 0 33.5 5.5t9.5 19.5v311q-62 -31 -93 -46l-9 21q64 30 155 86h13zM217 -23h-46l451 736h46z"/>
<glyph glyph-name="threequarters" horiz-adv-x="834" unicode="¾" d="M132 481v26q43 3 76 28.5t33 60.5q0 32 -18 50t-49 18q-43 0 -82 -36l-14 11q32 34 60.5 50t73.5 16q39 0 67 -24t28 -61q0 -35 -28 -63t-68 -43l2 -2h9q24 0 47 -7t43.5 -30t20.5 -59q0 -51 -46.5 -97t-131.5 -46q-47 0 -77 16.5t-30 33.5q0 8 6.5 14t14.5 6q9 0 18 -11 t26.5 -22t46.5 -11q45 0 72 27t27 66q0 90 -108 90q-3 0 -9.5 -0.5t-9.5 -0.5zM231 -23h-46l451 736h46zM634 174v172h-2l-136 -172h138zM634 0v127h-190v28l219 268h30v-249h67v-47h-67v-127h-59z"/>
<glyph glyph-name="questiondown" horiz-adv-x="444" unicode="¿" d="M268 485q27 0 46.5 -19t19.5 -46q0 -26 -20 -46.5t-46 -20.5t-46 20t-20 47t19.5 46t46.5 19zM265 282h26v-180q-68 -4 -116 -34.5t-48 -94.5q0 -46 32.5 -78t93.5 -32q5 0 15 1.5t15 1.5q23 0 37 -13t14 -36q0 -45 -53 -45q-45 0 -84.5 26.5t-64 66t-38.5 82.5t-14 79 q0 71 34 109.5t112 51.5q21 3 30 15.5t9 47.5v32z"/>
<glyph glyph-name="Agrave" horiz-adv-x="721" unicode="À" d="M417 738h-35l-167 104q-17 10 -17 34q0 10 9.5 20t22.5 10q5 0 10.5 -2t9.5 -4t9.5 -6.5t8 -6.5t8 -8t7.5 -8zM326 597l-97 -294h206l-107 294h-2zM378 726l191 -527q48 -134 57 -146q20 -27 77 -27v-26q-19 0 -57.5 1t-57.5 1q-48 0 -146 -2v26h18q55 0 55 33 q0 17 -15 58l-50 145h-235l-22 -70q-27 -87 -27 -119q0 -20 9 -30.5t21 -13t31 -3.5h7h23v-26q-20 0 -59.5 1t-58.5 1q-41 0 -121 -2v26q46 5 62 17t35 54q8 18 41 112l128 357q21 60 21 90q0 18 -2 26q44 21 58 44h17z"/>
<glyph glyph-name="Aacute" horiz-adv-x="721" unicode="Á" d="M313 738h-35l134 133q2 2 7.5 8t8 8t8 6.5t9.5 6.5t9.5 4t10.5 2q13 0 22.5 -10t9.5 -20q0 -24 -17 -34zM326 597l-97 -294h206l-107 294h-2zM378 726l191 -527q48 -134 57 -146q20 -27 77 -27v-26q-19 0 -57.5 1t-57.5 1q-48 0 -146 -2v26h18q55 0 55 33q0 17 -15 58 l-50 145h-235l-22 -70q-27 -87 -27 -119q0 -20 9 -30.5t21 -13t31 -3.5h7h23v-26q-20 0 -59.5 1t-58.5 1q-41 0 -121 -2v26q46 5 62 17t35 54q8 18 41 112l128 357q21 60 21 90q0 18 -2 26q44 21 58 44h17z"/>
<glyph glyph-name="Acircumflex" horiz-adv-x="721" unicode="Â" d="M333 906h56l122 -166h-33l-117 106l-117 -106h-33zM326 597l-97 -294h206l-107 294h-2zM378 726l191 -527q48 -134 57 -146q20 -27 77 -27v-26q-19 0 -57.5 1t-57.5 1q-48 0 -146 -2v26h18q55 0 55 33q0 17 -15 58l-50 145h-235l-22 -70q-27 -87 -27 -119q0 -20 9 -30.5 t21 -13t31 -3.5h7h23v-26q-20 0 -59.5 1t-58.5 1q-41 0 -121 -2v26q46 5 62 17t35 54q8 18 41 112l128 357q21 60 21 90q0 18 -2 26q44 21 58 44h17z"/>
<glyph glyph-name="Atilde" horiz-adv-x="721" unicode="Ã" d="M495 862h27q-8 -44 -30 -74t-61 -30q-27 0 -79 24q-56 23 -74 23q-36 0 -51 -47h-27q11 50 36 77t58 27q28 0 77 -21q59 -23 76 -23q21 0 30.5 10.5t17.5 33.5zM326 597l-97 -294h206l-107 294h-2zM378 726l191 -527q48 -134 57 -146q20 -27 77 -27v-26q-19 0 -57.5 1 t-57.5 1q-48 0 -146 -2v26h18q55 0 55 33q0 17 -15 58l-50 145h-235l-22 -70q-27 -87 -27 -119q0 -20 9 -30.5t21 -13t31 -3.5h7h23v-26q-20 0 -59.5 1t-58.5 1q-41 0 -121 -2v26q46 5 62 17t35 54q8 18 41 112l128 357q21 60 21 90q0 18 -2 26q44 21 58 44h17z"/>
<glyph glyph-name="Adieresis" horiz-adv-x="721" unicode="Ä" d="M310 803q0 -18 -14 -31.5t-32 -13.5q-19 0 -32.5 13.5t-13.5 31.5t13.5 32t32.5 14q18 0 32 -14t14 -32zM504 803q0 -18 -14 -31.5t-32 -13.5t-32 13.5t-14 31.5t14 32t32 14t32 -14t14 -32zM326 597l-97 -294h206l-107 294h-2zM378 726l191 -527q48 -134 57 -146 q20 -27 77 -27v-26q-19 0 -57.5 1t-57.5 1q-48 0 -146 -2v26h18q55 0 55 33q0 17 -15 58l-50 145h-235l-22 -70q-27 -87 -27 -119q0 -20 9 -30.5t21 -13t31 -3.5h7h23v-26q-20 0 -59.5 1t-58.5 1q-41 0 -121 -2v26q46 5 62 17t35 54q8 18 41 112l128 357q21 60 21 90 q0 18 -2 26q44 21 58 44h17z"/>
<glyph glyph-name="Aring" horiz-adv-x="721" unicode="Å" d="M296 847q0 -28 18.5 -47t46.5 -19t46.5 19t18.5 47t-18.5 46.5t-46.5 18.5t-46.5 -18.5t-18.5 -46.5zM264 847q0 39 29 68t68 29t68 -29t29 -68t-29 -68.5t-68 -29.5t-68 29.5t-29 68.5zM326 597l-97 -294h206l-107 294h-2zM378 726l191 -527q48 -134 57 -146 q20 -27 77 -27v-26q-19 0 -57.5 1t-57.5 1q-48 0 -146 -2v26h18q55 0 55 33q0 17 -15 58l-50 145h-235l-22 -70q-27 -87 -27 -119q0 -20 9 -30.5t21 -13t31 -3.5h7h23v-26q-20 0 -59.5 1t-58.5 1q-41 0 -121 -2v26q46 5 62 17t35 54q8 18 41 112l128 357q21 60 21 90 q0 18 -2 26q44 21 58 44h17z"/>
<glyph glyph-name="AE" horiz-adv-x="1000" unicode="Æ" d="M492 382v281h-9l-155 -281h164zM590 666v-284h172q26 0 38.5 11t15 25.5t3.5 43.5v8h20q0 -13 -1.5 -47t-1.5 -58q0 -13 1.5 -50t1.5 -56h-21q0 3 -1 12.5t-1.5 13.5t-2 12t-3.5 12t-5.5 10t-9 9t-12.5 6.5t-16.5 5t-21.5 1.5h-155v-204q0 -66 18.5 -85t90.5 -20h71 q67 0 98 20t73 98l22 -6q-30 -129 -32 -144q-57 0 -153 1t-128 1q-49 0 -134.5 -1t-118.5 -1v26h14q46 0 63.5 18.5t17.5 55.5v241h-186l-110 -203q-36 -64 -36 -88q0 -13 18 -17.5t55 -6.5v-26q-19 0 -56.5 1t-56.5 1q-34 0 -102 -2v26q45 1 69.5 22.5t50.5 69.5l242 445 q2 3 10.5 18t13.5 24t10 22t5 21q0 24 -79 24v26q27 0 132.5 -0.5t127.5 -1.5q50 0 150 1t152 1l8 -149h-24q-16 76 -45 96.5t-115 20.5h-136z"/>
<glyph glyph-name="Ccedilla" horiz-adv-x="722" unicode="Ç" d="M673 660l10 -143h-25q-27 164 -214 164q-47 0 -93.5 -16.5t-90 -51t-71 -99.5t-27.5 -150q0 -148 89.5 -247.5t208.5 -99.5q75 0 130.5 47.5t70.5 125.5l23 -6l-23 -146q-31 -19 -101 -36t-120 -17h-8l-23 -49l2 -2q13 9 32 9q32 0 55 -20.5t23 -51.5q0 -43 -34 -63.5 t-80 -20.5q-50 0 -88 15l14 30q43 -13 63 -13q23 0 41 11t18 32q0 18 -13 29t-32 11q-20 0 -36 -6l-14 5l38 86q-157 13 -248.5 114t-91.5 260q0 150 114 251t265 101q85 0 236 -53z"/>
<glyph glyph-name="Egrave" horiz-adv-x="611" unicode="È" d="M380 738h-35l-167 104q-17 10 -17 34q0 10 9.5 20t22.5 10q5 0 10.5 -2t9.5 -4t9.5 -6.5t8 -6.5t8 -8t7.5 -8zM225 666v-284h132q13 0 24 2t19 6.5t14 8.5t10.5 11.5t7 12t4.5 13t2.5 12t1.5 11.5t1 9h20q-4 -44 -4 -112q0 -14 2 -50t2 -52v-9h-20q0 36 -5 55.5 t-21.5 28.5t-31.5 10.5t-51 1.5h-107v-170q0 -89 16 -114t87 -25h62q80 4 116.5 26.5t64.5 98.5l24 -4q-29 -91 -41 -153q-50 0 -150 1t-150 1q-148 0 -222 -2v26q64 0 79.5 19.5t15.5 93.5v444q0 59 -16.5 73t-78.5 16v26q67 -2 202 -2q191 0 288 2v-149l-20 -5 q-11 69 -47 95.5t-113 26.5h-117z"/>
<glyph glyph-name="Eacute" horiz-adv-x="611" unicode="É" d="M258 738h-35l134 133q2 2 7.5 8t8 8t8 6.5t9.5 6.5t9.5 4t10.5 2q13 0 22.5 -10t9.5 -20q0 -24 -17 -34zM225 666v-284h132q13 0 24 2t19 6.5t14 8.5t10.5 11.5t7 12t4.5 13t2.5 12t1.5 11.5t1 9h20q-4 -44 -4 -112q0 -14 2 -50t2 -52v-9h-20q0 36 -5 55.5t-21.5 28.5 t-31.5 10.5t-51 1.5h-107v-170q0 -89 16 -114t87 -25h62q80 4 116.5 26.5t64.5 98.5l24 -4q-29 -91 -41 -153q-50 0 -150 1t-150 1q-148 0 -222 -2v26q64 0 79.5 19.5t15.5 93.5v444q0 59 -16.5 73t-78.5 16v26q67 -2 202 -2q191 0 288 2v-149l-20 -5q-11 69 -47 95.5 t-113 26.5h-117z"/>
<glyph glyph-name="Ecircumflex" horiz-adv-x="611" unicode="Ê" d="M278 906h56l122 -166h-33l-117 106l-117 -106h-33zM225 666v-284h132q13 0 24 2t19 6.5t14 8.5t10.5 11.5t7 12t4.5 13t2.5 12t1.5 11.5t1 9h20q-4 -44 -4 -112q0 -14 2 -50t2 -52v-9h-20q0 36 -5 55.5t-21.5 28.5t-31.5 10.5t-51 1.5h-107v-170q0 -89 16 -114t87 -25h62 q80 4 116.5 26.5t64.5 98.5l24 -4q-29 -91 -41 -153q-50 0 -150 1t-150 1q-148 0 -222 -2v26q64 0 79.5 19.5t15.5 93.5v444q0 59 -16.5 73t-78.5 16v26q67 -2 202 -2q191 0 288 2v-149l-20 -5q-11 69 -47 95.5t-113 26.5h-117z"/>
<glyph glyph-name="Edieresis" horiz-adv-x="611" unicode="Ë" d="M255 803q0 -18 -14 -31.5t-32 -13.5q-19 0 -32.5 13.5t-13.5 31.5t13.5 32t32.5 14q18 0 32 -14t14 -32zM449 803q0 -18 -14 -31.5t-32 -13.5t-32 13.5t-14 31.5t14 32t32 14t32 -14t14 -32zM225 666v-284h132q13 0 24 2t19 6.5t14 8.5t10.5 11.5t7 12t4.5 13t2.5 12 t1.5 11.5t1 9h20q-4 -44 -4 -112q0 -14 2 -50t2 -52v-9h-20q0 36 -5 55.5t-21.5 28.5t-31.5 10.5t-51 1.5h-107v-170q0 -89 16 -114t87 -25h62q80 4 116.5 26.5t64.5 98.5l24 -4q-29 -91 -41 -153q-50 0 -150 1t-150 1q-148 0 -222 -2v26q64 0 79.5 19.5t15.5 93.5v444 q0 59 -16.5 73t-78.5 16v26q67 -2 202 -2q191 0 288 2v-149l-20 -5q-11 69 -47 95.5t-113 26.5h-117z"/>
<glyph glyph-name="Igrave" horiz-adv-x="332" unicode="Ì" d="M249 738h-35l-167 104q-17 10 -17 34q0 10 9.5 20t22.5 10q5 0 10.5 -2t9.5 -4t9.5 -6.5t8 -6.5t8 -8t7.5 -8zM117 98v502q0 25 -6 40.5t-20.5 21.5t-27 8t-37.5 2v26q94 -2 138 -2q42 0 142 2v-26q-25 0 -37.5 -2t-27 -8t-20.5 -21.5t-6 -40.5v-502q0 -25 6 -40.5 t20.5 -21.5t27 -8t37.5 -2v-26q-24 0 -69 1t-66 1q-45 0 -145 -2v26q25 0 37.5 2t27 8t20.5 21.5t6 40.5z"/>
<glyph glyph-name="Iacute" horiz-adv-x="332" unicode="Í" d="M118 738h-35l134 133q2 2 7.5 8t8 8t8 6.5t9.5 6.5t9.5 4t10.5 2q13 0 22.5 -10t9.5 -20q0 -24 -17 -34zM117 98v502q0 25 -6 40.5t-20.5 21.5t-27 8t-37.5 2v26q94 -2 138 -2q42 0 142 2v-26q-25 0 -37.5 -2t-27 -8t-20.5 -21.5t-6 -40.5v-502q0 -25 6 -40.5t20.5 -21.5 t27 -8t37.5 -2v-26q-24 0 -69 1t-66 1q-45 0 -145 -2v26q25 0 37.5 2t27 8t20.5 21.5t6 40.5z"/>
<glyph glyph-name="Icircumflex" horiz-adv-x="332" unicode="Î" d="M138 906h56l122 -166h-33l-117 106l-117 -106h-33zM117 98v502q0 25 -6 40.5t-20.5 21.5t-27 8t-37.5 2v26q94 -2 138 -2q42 0 142 2v-26q-25 0 -37.5 -2t-27 -8t-20.5 -21.5t-6 -40.5v-502q0 -25 6 -40.5t20.5 -21.5t27 -8t37.5 -2v-26q-24 0 -69 1t-66 1q-45 0 -145 -2 v26q25 0 37.5 2t27 8t20.5 21.5t6 40.5z"/>
<glyph glyph-name="Idieresis" horiz-adv-x="332" unicode="Ï" d="M115 803q0 -18 -14 -31.5t-32 -13.5q-19 0 -32.5 13.5t-13.5 31.5t13.5 32t32.5 14q18 0 32 -14t14 -32zM309 803q0 -18 -14 -31.5t-32 -13.5t-32 13.5t-14 31.5t14 32t32 14t32 -14t14 -32zM117 98v502q0 25 -6 40.5t-20.5 21.5t-27 8t-37.5 2v26q94 -2 138 -2 q42 0 142 2v-26q-25 0 -37.5 -2t-27 -8t-20.5 -21.5t-6 -40.5v-502q0 -25 6 -40.5t20.5 -21.5t27 -8t37.5 -2v-26q-24 0 -69 1t-66 1q-45 0 -145 -2v26q25 0 37.5 2t27 8t20.5 21.5t6 40.5z"/>
<glyph glyph-name="Eth" horiz-adv-x="778" unicode="Ð" d="M398 385v-47h-179v-220q0 -27 9 -45.5t25.5 -26.5t32 -11t37.5 -3q78 0 135.5 27t89.5 73.5t47 99.5t15 112q0 142 -85 232t-228 90q-6 0 -78 -4v-277h179zM121 385v202q0 13 -1.5 24t-3 19t-7 14.5t-7.5 11t-10.5 7.5t-10.5 4.5t-12.5 2.5t-12 1.5t-14.5 0.5h-13v26 q39 -2 118 -2q17 0 74.5 1t98.5 1q94 0 171.5 -29.5t126.5 -79t75.5 -112t26.5 -129.5q0 -35 -8.5 -74.5t-35.5 -90t-69.5 -90t-120 -66.5t-178.5 -27q-26 0 -74 1t-71 1q-44 0 -134 -2v26q29 3 40.5 5t26 9.5t19.5 22t6 39.5v236h-90v47h90z"/>
<glyph glyph-name="Ntilde" horiz-adv-x="833" unicode="Ñ" d="M551 862h27q-8 -44 -30 -74t-61 -30q-27 0 -79 24q-56 23 -74 23q-36 0 -51 -47h-27q11 50 36 77t58 27q28 0 77 -21q59 -23 76 -23q21 0 30.5 10.5t17.5 33.5zM724 569v-578h-23l-523 574v-373q0 -106 20 -136t99 -30v-26q-22 0 -66.5 1t-66.5 1q-45 0 -133 -2v26 q30 0 44 2.5t31.5 13.5t24.5 38t7 73v402q0 64 -29 90.5t-94 26.5v26q62 -2 92 -2q13 0 41 1t41 1q18 -27 51.5 -65t96.5 -105t100 -108q49 -54 138.5 -150t108.5 -117v398q0 70 -23.5 95t-97.5 26v26q92 -2 139 -2q20 0 58 1t58 1v-26q-53 0 -73.5 -17.5t-20.5 -85.5z"/>
<glyph glyph-name="Ograve" horiz-adv-x="833" unicode="Ò" d="M500 738h-35l-167 104q-17 10 -17 34q0 10 9.5 20t22.5 10q5 0 10.5 -2t9.5 -4t9.5 -6.5t8 -6.5t8 -8t7.5 -8zM168 374q0 -81 28 -160.5t89 -138t142 -58.5q108 0 173 85t65 222q0 81 -28 160.5t-89 138t-142 58.5q-108 0 -173 -85t-65 -222zM58 345q0 93 43.5 176.5 t127.5 137.5t189 54q148 0 252.5 -107.5t104.5 -252.5q0 -93 -43.5 -176.5t-127.5 -137.5t-189 -54q-148 0 -252.5 107.5t-104.5 252.5z"/>
<glyph glyph-name="Oacute" horiz-adv-x="833" unicode="Ó" d="M369 738h-35l134 133q2 2 7.5 8t8 8t8 6.5t9.5 6.5t9.5 4t10.5 2q13 0 22.5 -10t9.5 -20q0 -24 -17 -34zM168 374q0 -81 28 -160.5t89 -138t142 -58.5q108 0 173 85t65 222q0 81 -28 160.5t-89 138t-142 58.5q-108 0 -173 -85t-65 -222zM58 345q0 93 43.5 176.5 t127.5 137.5t189 54q148 0 252.5 -107.5t104.5 -252.5q0 -93 -43.5 -176.5t-127.5 -137.5t-189 -54q-148 0 -252.5 107.5t-104.5 252.5z"/>
<glyph glyph-name="Ocircumflex" horiz-adv-x="833" unicode="Ô" d="M389 906h56l122 -166h-33l-117 106l-117 -106h-33zM168 374q0 -81 28 -160.5t89 -138t142 -58.5q108 0 173 85t65 222q0 81 -28 160.5t-89 138t-142 58.5q-108 0 -173 -85t-65 -222zM58 345q0 93 43.5 176.5t127.5 137.5t189 54q148 0 252.5 -107.5t104.5 -252.5 q0 -93 -43.5 -176.5t-127.5 -137.5t-189 -54q-148 0 -252.5 107.5t-104.5 252.5z"/>
<glyph glyph-name="Otilde" horiz-adv-x="833" unicode="Õ" d="M551 862h27q-8 -44 -30 -74t-61 -30q-27 0 -79 24q-56 23 -74 23q-36 0 -51 -47h-27q11 50 36 77t58 27q28 0 77 -21q59 -23 76 -23q21 0 30.5 10.5t17.5 33.5zM168 374q0 -81 28 -160.5t89 -138t142 -58.5q108 0 173 85t65 222q0 81 -28 160.5t-89 138t-142 58.5 q-108 0 -173 -85t-65 -222zM58 345q0 93 43.5 176.5t127.5 137.5t189 54q148 0 252.5 -107.5t104.5 -252.5q0 -93 -43.5 -176.5t-127.5 -137.5t-189 -54q-148 0 -252.5 107.5t-104.5 252.5z"/>
<glyph glyph-name="Odieresis" horiz-adv-x="833" unicode="Ö" d="M366 803q0 -18 -14 -31.5t-32 -13.5q-19 0 -32.5 13.5t-13.5 31.5t13.5 32t32.5 14q18 0 32 -14t14 -32zM560 803q0 -18 -14 -31.5t-32 -13.5t-32 13.5t-14 31.5t14 32t32 14t32 -14t14 -32zM168 374q0 -81 28 -160.5t89 -138t142 -58.5q108 0 173 85t65 222 q0 81 -28 160.5t-89 138t-142 58.5q-108 0 -173 -85t-65 -222zM58 345q0 93 43.5 176.5t127.5 137.5t189 54q148 0 252.5 -107.5t104.5 -252.5q0 -93 -43.5 -176.5t-127.5 -137.5t-189 -54q-148 0 -252.5 107.5t-104.5 252.5z"/>
<glyph glyph-name="multiply" d="M278 176l-174 -173l-47 46l176 172l-176 175l48 46l173 -175l173 175l48 -46l-176 -175l176 -172l-47 -46z" unicode="×"/>
<glyph glyph-name="Oslash" horiz-adv-x="833" unicode="Ø" d="M37 -2l112 110q-91 102 -91 237q0 93 43.5 176.5t127.5 137.5t189 54q142 0 244 -99l106 104l28 -28l-107 -105q86 -102 86 -232q0 -93 -43.5 -176.5t-127.5 -137.5t-189 -54q-138 0 -239 95l-111 -110zM621 518l-386 -380q73 -121 192 -121q108 0 173 85t65 222 q0 100 -44 194zM215 174l387 381q-74 126 -196 126q-108 0 -173 -85t-65 -222q0 -107 47 -200z"/>
<glyph glyph-name="Ugrave" horiz-adv-x="722" unicode="Ù" d="M462 738h-35l-167 104q-17 10 -17 34q0 10 9.5 20t22.5 10q5 0 10.5 -2t9.5 -4t9.5 -6.5t8 -6.5t8 -8t7.5 -8zM710 698v-26q-55 0 -67 -28.5t-12 -123.5v-9v-288q0 -107 -67 -172.5t-194 -65.5q-126 0 -195.5 62.5t-71.5 187.5v365q0 25 -6 40.5t-20.5 21.5t-27 8 t-37.5 2v26q94 -2 138 -2q42 0 142 2v-26q-25 0 -37.5 -2t-27 -8t-20.5 -21.5t-6 -40.5v-340q0 -234 195 -234q182 0 182 197v285v54t-3 40t-3.5 29.5t-8 18.5t-10.5 12t-18 6t-22 3t-30 1v26q84 -2 126 -2q17 0 50.5 1t50.5 1z"/>
<glyph glyph-name="Uacute" horiz-adv-x="722" unicode="Ú" d="M322 738h-35l134 133q2 2 7.5 8t8 8t8 6.5t9.5 6.5t9.5 4t10.5 2q13 0 22.5 -10t9.5 -20q0 -24 -17 -34zM710 698v-26q-55 0 -67 -28.5t-12 -123.5v-9v-288q0 -107 -67 -172.5t-194 -65.5q-126 0 -195.5 62.5t-71.5 187.5v365q0 25 -6 40.5t-20.5 21.5t-27 8t-37.5 2v26 q94 -2 138 -2q42 0 142 2v-26q-25 0 -37.5 -2t-27 -8t-20.5 -21.5t-6 -40.5v-340q0 -234 195 -234q182 0 182 197v285v54t-3 40t-3.5 29.5t-8 18.5t-10.5 12t-18 6t-22 3t-30 1v26q84 -2 126 -2q17 0 50.5 1t50.5 1z"/>
<glyph glyph-name="Ucircumflex" horiz-adv-x="722" unicode="Û" d="M333 906h56l122 -166h-33l-117 106l-117 -106h-33zM710 698v-26q-55 0 -67 -28.5t-12 -123.5v-9v-288q0 -107 -67 -172.5t-194 -65.5q-126 0 -195.5 62.5t-71.5 187.5v365q0 25 -6 40.5t-20.5 21.5t-27 8t-37.5 2v26q94 -2 138 -2q42 0 142 2v-26q-25 0 -37.5 -2t-27 -8 t-20.5 -21.5t-6 -40.5v-340q0 -234 195 -234q182 0 182 197v285v54t-3 40t-3.5 29.5t-8 18.5t-10.5 12t-18 6t-22 3t-30 1v26q84 -2 126 -2q17 0 50.5 1t50.5 1z"/>
<glyph glyph-name="Udieresis" horiz-adv-x="722" unicode="Ü" d="M320 803q0 -18 -14 -31.5t-32 -13.5q-19 0 -32.5 13.5t-13.5 31.5t13.5 32t32.5 14q18 0 32 -14t14 -32zM514 803q0 -18 -14 -31.5t-32 -13.5t-32 13.5t-14 31.5t14 32t32 14t32 -14t14 -32zM710 698v-26q-55 0 -67 -28.5t-12 -123.5v-9v-288q0 -107 -67 -172.5 t-194 -65.5q-126 0 -195.5 62.5t-71.5 187.5v365q0 25 -6 40.5t-20.5 21.5t-27 8t-37.5 2v26q94 -2 138 -2q42 0 142 2v-26q-25 0 -37.5 -2t-27 -8t-20.5 -21.5t-6 -40.5v-340q0 -234 195 -234q182 0 182 197v285v54t-3 40t-3.5 29.5t-8 18.5t-10.5 12t-18 6t-22 3t-30 1v26 q84 -2 126 -2q17 0 50.5 1t50.5 1z"/>
<glyph glyph-name="Yacute" horiz-adv-x="722" unicode="Ý" d="M335 738h-35l134 133q2 2 7.5 8t8 8t8 6.5t9.5 6.5t9.5 4t10.5 2q13 0 22.5 -10t9.5 -20q0 -24 -17 -34zM424 356v-258q0 -25 6 -40.5t20.5 -21.5t27 -8t37.5 -2v-26q-100 2 -142 2q-44 0 -138 -2v26q25 0 37.5 2t27 8t20.5 21.5t6 40.5v242l-209 288q-21 29 -33.5 34.5 t-59.5 9.5v26q38 -2 139 -2q21 0 61 1t61 1v-26q-56 0 -56 -21q0 -15 33 -62l140 -197l131 179q2 2 8.5 11.5t10.5 15t9.5 14.5t8 16.5t2.5 14.5q0 20 -14 24.5t-57 4.5v26q76 -2 115 -2q13 0 40.5 1t41.5 1v-26q-20 0 -36 -10t-24 -19t-23 -29z"/>
<glyph glyph-name="Thorn" d="M215 537v-332q24 -3 70 -3q68 0 102.5 47.5t34.5 109.5q0 94 -51.5 137t-117.5 43q-12 0 -38 -2zM117 98v476q0 59 -16.5 78.5t-71.5 19.5v26q100 -2 145 -2q22 0 66 1t69 1v-26q-25 0 -36.5 -2.5t-26 -11.5t-20.5 -31t-7 -59q48 3 56 3q42 0 83 -10t80.5 -31.5t63.5 -63 t24 -96.5q0 -85 -66 -142.5t-149 -57.5q-68 0 -96 2v-74q0 -25 6 -40.5t20.5 -21.5t27 -8t37.5 -2v-26q-24 0 -69 1t-66 1q-45 0 -145 -2v26q25 0 37.5 2t27 8t20.5 21.5t6 40.5z" unicode="Þ"/>
<glyph glyph-name="germandbls" d="M93 58v333h-65v14l60 37q0 130 73 226t199 96q66 0 114 -33.5t48 -96.5q0 -38 -20 -68.5t-48 -50.5t-56.5 -38t-48.5 -40t-20 -47q0 -23 18.5 -44t44.5 -39t52 -38t44.5 -52t18.5 -71q0 -69 -46.5 -115t-114.5 -46q-31 0 -61.5 16.5t-30.5 45.5q0 12 8.5 22.5t20.5 10.5 t21 -5.5t12 -10.5l9 -15q16 -32 42 -32q34 0 54 25t20 61q0 31 -18.5 57t-44.5 44.5l-52 37t-44.5 45t-18.5 58.5q0 37 19 66t46.5 48t54.5 38t46 47t19 63q0 54 -36 85t-90 31q-25 0 -49.5 -8.5t-47.5 -28t-37.5 -57.5t-14.5 -89v-490q0 -11 8 -16.5t16 -6.5t23 -1h5v-26 q-6 2 -88 2q-52 0 -114 -2v26h28q42 0 42 32z" unicode="ß"/>
<glyph glyph-name="agrave" horiz-adv-x="500" unicode="à" d="M333 545h-35l-167 104q-17 10 -17 34q0 10 9.5 20t22.5 10q5 0 10.5 -2t9.5 -4t9.5 -6.5t8 -6.5t8 -8t7.5 -8zM456 56l9 -17q-58 -54 -99 -54q-29 0 -44.5 22t-17.5 52q-81 -74 -154 -74q-47 0 -77.5 28t-30.5 69q1 21 4.5 35t18 28.5t27.5 23t49.5 23.5t66.5 26t95 33 v66q0 86 -97 86q-34 0 -54.5 -18.5t-21.5 -51.5q0 -19 -18 -30.5t-38 -11.5q-18 0 -18 20q0 36 26.5 59t88.5 55q6 3 18.5 10t18 9.5t15 6t18.5 5t20 1.5q40 0 81 -23t41 -61v-277q0 -57 36 -57q23 0 37 17zM303 90v132q-10 -4 -38 -12.5t-49 -16.5t-44.5 -20.5t-36.5 -30 t-13 -38.5q0 -29 21 -50.5t50 -21.5q22 0 44 10t31.5 18t34.5 30z"/>
<glyph glyph-name="aacute" horiz-adv-x="500" unicode="á" d="M202 545h-35l134 133q2 2 7.5 8t8 8t8 6.5t9.5 6.5t9.5 4t10.5 2q13 0 22.5 -10t9.5 -20q0 -24 -17 -34zM456 56l9 -17q-58 -54 -99 -54q-29 0 -44.5 22t-17.5 52q-81 -74 -154 -74q-47 0 -77.5 28t-30.5 69q1 21 4.5 35t18 28.5t27.5 23t49.5 23.5t66.5 26t95 33v66 q0 86 -97 86q-34 0 -54.5 -18.5t-21.5 -51.5q0 -19 -18 -30.5t-38 -11.5q-18 0 -18 20q0 36 26.5 59t88.5 55q6 3 18.5 10t18 9.5t15 6t18.5 5t20 1.5q40 0 81 -23t41 -61v-277q0 -57 36 -57q23 0 37 17zM303 90v132q-10 -4 -38 -12.5t-49 -16.5t-44.5 -20.5t-36.5 -30 t-13 -38.5q0 -29 21 -50.5t50 -21.5q22 0 44 10t31.5 18t34.5 30z"/>
<glyph glyph-name="acircumflex" horiz-adv-x="500" unicode="â" d="M222 713h56l122 -166h-33l-117 106l-117 -106h-33zM456 56l9 -17q-58 -54 -99 -54q-29 0 -44.5 22t-17.5 52q-81 -74 -154 -74q-47 0 -77.5 28t-30.5 69q1 21 4.5 35t18 28.5t27.5 23t49.5 23.5t66.5 26t95 33v66q0 86 -97 86q-34 0 -54.5 -18.5t-21.5 -51.5 q0 -19 -18 -30.5t-38 -11.5q-18 0 -18 20q0 36 26.5 59t88.5 55q6 3 18.5 10t18 9.5t15 6t18.5 5t20 1.5q40 0 81 -23t41 -61v-277q0 -57 36 -57q23 0 37 17zM303 90v132q-10 -4 -38 -12.5t-49 -16.5t-44.5 -20.5t-36.5 -30t-13 -38.5q0 -29 21 -50.5t50 -21.5q22 0 44 10 t31.5 18t34.5 30z"/>
<glyph glyph-name="atilde" horiz-adv-x="500" unicode="ã" d="M384 669h27q-8 -44 -30 -74t-61 -30q-27 0 -79 24q-56 23 -74 23q-36 0 -51 -47h-27q11 50 36 77t58 27q28 0 77 -21q59 -23 76 -23q21 0 30.5 10.5t17.5 33.5zM456 56l9 -17q-58 -54 -99 -54q-29 0 -44.5 22t-17.5 52q-81 -74 -154 -74q-47 0 -77.5 28t-30.5 69 q1 21 4.5 35t18 28.5t27.5 23t49.5 23.5t66.5 26t95 33v66q0 86 -97 86q-34 0 -54.5 -18.5t-21.5 -51.5q0 -19 -18 -30.5t-38 -11.5q-18 0 -18 20q0 36 26.5 59t88.5 55q6 3 18.5 10t18 9.5t15 6t18.5 5t20 1.5q40 0 81 -23t41 -61v-277q0 -57 36 -57q23 0 37 17zM303 90 v132q-10 -4 -38 -12.5t-49 -16.5t-44.5 -20.5t-36.5 -30t-13 -38.5q0 -29 21 -50.5t50 -21.5q22 0 44 10t31.5 18t34.5 30z"/>
<glyph glyph-name="adieresis" horiz-adv-x="500" unicode="ä" d="M199 610q0 -18 -14 -31.5t-32 -13.5q-19 0 -32.5 13.5t-13.5 31.5t13.5 32t32.5 14q18 0 32 -14t14 -32zM393 610q0 -18 -14 -31.5t-32 -13.5t-32 13.5t-14 31.5t14 32t32 14t32 -14t14 -32zM456 56l9 -17q-58 -54 -99 -54q-29 0 -44.5 22t-17.5 52q-81 -74 -154 -74 q-47 0 -77.5 28t-30.5 69q1 21 4.5 35t18 28.5t27.5 23t49.5 23.5t66.5 26t95 33v66q0 86 -97 86q-34 0 -54.5 -18.5t-21.5 -51.5q0 -19 -18 -30.5t-38 -11.5q-18 0 -18 20q0 36 26.5 59t88.5 55q6 3 18.5 10t18 9.5t15 6t18.5 5t20 1.5q40 0 81 -23t41 -61v-277 q0 -57 36 -57q23 0 37 17zM303 90v132q-10 -4 -38 -12.5t-49 -16.5t-44.5 -20.5t-36.5 -30t-13 -38.5q0 -29 21 -50.5t50 -21.5q22 0 44 10t31.5 18t34.5 30z"/>
<glyph glyph-name="aring" horiz-adv-x="500" unicode="å" d="M185 616q0 -28 18.5 -47t46.5 -19t46.5 19t18.5 47t-18.5 46.5t-46.5 18.5t-46.5 -18.5t-18.5 -46.5zM153 616q0 39 29 68t68 29t68 -29t29 -68t-29 -68.5t-68 -29.5t-68 29.5t-29 68.5zM456 56l9 -17q-58 -54 -99 -54q-29 0 -44.5 22t-17.5 52q-81 -74 -154 -74 q-47 0 -77.5 28t-30.5 69q1 21 4.5 35t18 28.5t27.5 23t49.5 23.5t66.5 26t95 33v66q0 86 -97 86q-34 0 -54.5 -18.5t-21.5 -51.5q0 -19 -18 -30.5t-38 -11.5q-18 0 -18 20q0 36 26.5 59t88.5 55q6 3 18.5 10t18 9.5t15 6t18.5 5t20 1.5q40 0 81 -23t41 -61v-277 q0 -57 36 -57q23 0 37 17zM303 90v132q-10 -4 -38 -12.5t-49 -16.5t-44.5 -20.5t-36.5 -30t-13 -38.5q0 -29 21 -50.5t50 -21.5q22 0 44 10t31.5 18t34.5 30z"/>
<glyph glyph-name="ae" horiz-adv-x="722" unicode="æ" d="M391 258l142 45q36 11 48.5 21t12.5 27q0 32 -24 53t-50 21q-61 0 -95 -50t-34 -117zM317 170v35l-133 -41q-17 -5 -25.5 -9.5t-16.5 -16.5t-8 -32q0 -36 20.5 -55t44.5 -19q15 0 33 6t38 20t33.5 43t13.5 69zM672 126l14 -16q-94 -124 -201 -125q-103 2 -147 94 q-36 -32 -57 -47.5t-56.5 -31t-71.5 -15.5q-47 0 -79 28t-32 74q0 42 25 61t85 37l165 49v68q0 101 -93 101q-44 0 -70 -37q-5 -6 -10.5 -36.5t-19.5 -35.5q-3 -1 -20.5 -7t-27.5 -6q-6 0 -11.5 6t-5.5 12q0 14 2.5 26t9.5 21.5t12 16t17 14t17.5 10.5t20.5 10.5l19 9.5 q12 6 34.5 20.5t41.5 22t40 7.5q41 0 73 -19t43 -55q50 74 153 74q57 0 100.5 -30t43.5 -84q0 -17 -9.5 -24.5t-49.5 -19.5l-236 -71v-20q0 -149 134 -149h5q76 1 142 67z"/>
<glyph glyph-name="ccedilla" horiz-adv-x="444" unicode="ç" d="M402 106l17 -17q-78 -90 -169 -102l-24 -51l2 -2q14 9 32 9q32 0 55 -20.5t23 -51.5q0 -43 -34 -63.5t-80 -20.5q-50 0 -88 15l14 30q43 -13 63 -13q23 0 41 11t18 32q0 18 -13 29t-32 11q-20 0 -36 -6l-14 5l37 84q-75 4 -132 67t-57 140q0 110 70.5 187.5t177.5 77.5 q29 0 58 -5.5t53 -22t24 -41.5q0 -18 -10.5 -31t-27.5 -13q-13 0 -25.5 12.5t-22 28t-32 28t-54.5 12.5q-60 0 -95.5 -54t-35.5 -118q0 -80 48 -137t127 -57q60 0 122 47z"/>
<glyph glyph-name="egrave" horiz-adv-x="444" unicode="è" d="M314 545h-35l-167 104q-17 10 -17 34q0 10 9.5 20t22.5 10q5 0 10.5 -2t9.5 -4t9.5 -6.5t8 -6.5t8 -8t7.5 -8zM117 308h174q28 0 28 25q0 40 -23 66t-64 26q-45 0 -75.5 -31t-39.5 -86zM395 276h-281q-2 -8 -2 -20q0 -4 2 -38q5 -72 46.5 -122.5t100.5 -50.5q68 0 135 67 l14 -14q-85 -113 -185 -113q-45 0 -80.5 17t-55.5 41.5t-33 55.5t-17.5 56.5t-4.5 47.5q0 69 21 121.5t54 79.5t65.5 40t61.5 13q67 0 117.5 -41t51.5 -116q0 -12 -1 -18z"/>
<glyph glyph-name="eacute" horiz-adv-x="444" unicode="é" d="M174 545h-35l134 133q2 2 7.5 8t8 8t8 6.5t9.5 6.5t9.5 4t10.5 2q13 0 22.5 -10t9.5 -20q0 -24 -17 -34zM117 308h174q28 0 28 25q0 40 -23 66t-64 26q-45 0 -75.5 -31t-39.5 -86zM395 276h-281q-2 -8 -2 -20q0 -4 2 -38q5 -72 46.5 -122.5t100.5 -50.5q68 0 135 67 l14 -14q-85 -113 -185 -113q-45 0 -80.5 17t-55.5 41.5t-33 55.5t-17.5 56.5t-4.5 47.5q0 69 21 121.5t54 79.5t65.5 40t61.5 13q67 0 117.5 -41t51.5 -116q0 -12 -1 -18z"/>
<glyph glyph-name="ecircumflex" horiz-adv-x="444" unicode="ê" d="M194 713h56l122 -166h-33l-117 106l-117 -106h-33zM117 308h174q28 0 28 25q0 40 -23 66t-64 26q-45 0 -75.5 -31t-39.5 -86zM395 276h-281q-2 -8 -2 -20q0 -4 2 -38q5 -72 46.5 -122.5t100.5 -50.5q68 0 135 67l14 -14q-85 -113 -185 -113q-45 0 -80.5 17t-55.5 41.5 t-33 55.5t-17.5 56.5t-4.5 47.5q0 69 21 121.5t54 79.5t65.5 40t61.5 13q67 0 117.5 -41t51.5 -116q0 -12 -1 -18z"/>
<glyph glyph-name="edieresis" horiz-adv-x="444" unicode="ë" d="M171 610q0 -18 -14 -31.5t-32 -13.5q-19 0 -32.5 13.5t-13.5 31.5t13.5 32t32.5 14q18 0 32 -14t14 -32zM365 610q0 -18 -14 -31.5t-32 -13.5t-32 13.5t-14 31.5t14 32t32 14t32 -14t14 -32zM117 308h174q28 0 28 25q0 40 -23 66t-64 26q-45 0 -75.5 -31t-39.5 -86z M395 276h-281q-2 -8 -2 -20q0 -4 2 -38q5 -72 46.5 -122.5t100.5 -50.5q68 0 135 67l14 -14q-85 -113 -185 -113q-45 0 -80.5 17t-55.5 41.5t-33 55.5t-17.5 56.5t-4.5 47.5q0 69 21 121.5t54 79.5t65.5 40t61.5 13q67 0 117.5 -41t51.5 -116q0 -12 -1 -18z"/>
<glyph glyph-name="igrave" horiz-adv-x="278" unicode="ì" d="M213 545h-35l-167 104q-17 10 -17 34q0 10 9.5 20t22.5 10q5 0 10.5 -2t9.5 -4t9.5 -6.5t8 -6.5t8 -8t7.5 -8zM32 0v26h19q18 0 26 1t15 8.5t7 23.5v271q0 21 -6.5 34t-14 18t-31.5 18v16q98 29 107 36q9 5 18 5q7 0 7 -14v-384q0 -16 7.5 -23.5t16 -8.5t26.5 -1h17v-26 q-17 0 -52 1t-53 1q-35 0 -109 -2z"/>
<glyph glyph-name="iacute" horiz-adv-x="278" unicode="í" d="M91 545h-35l134 133q2 2 7.5 8t8 8t8 6.5t9.5 6.5t9.5 4t10.5 2q13 0 22.5 -10t9.5 -20q0 -24 -17 -34zM32 0v26h19q18 0 26 1t15 8.5t7 23.5v271q0 21 -6.5 34t-14 18t-31.5 18v16q98 29 107 36q9 5 18 5q7 0 7 -14v-384q0 -16 7.5 -23.5t16 -8.5t26.5 -1h17v-26 q-17 0 -52 1t-53 1q-35 0 -109 -2z"/>
<glyph glyph-name="icircumflex" horiz-adv-x="278" unicode="î" d="M111 713h56l122 -166h-33l-117 106l-117 -106h-33zM32 0v26h19q18 0 26 1t15 8.5t7 23.5v271q0 21 -6.5 34t-14 18t-31.5 18v16q98 29 107 36q9 5 18 5q7 0 7 -14v-384q0 -16 7.5 -23.5t16 -8.5t26.5 -1h17v-26q-17 0 -52 1t-53 1q-35 0 -109 -2z"/>
<glyph glyph-name="idieresis" horiz-adv-x="278" unicode="ï" d="M88 610q0 -18 -14 -31.5t-32 -13.5q-19 0 -32.5 13.5t-13.5 31.5t13.5 32t32.5 14q18 0 32 -14t14 -32zM282 610q0 -18 -14 -31.5t-32 -13.5t-32 13.5t-14 31.5t14 32t32 14t32 -14t14 -32zM32 0v26h19q18 0 26 1t15 8.5t7 23.5v271q0 21 -6.5 34t-14 18t-31.5 18v16 q98 29 107 36q9 5 18 5q7 0 7 -14v-384q0 -16 7.5 -23.5t16 -8.5t26.5 -1h17v-26q-17 0 -52 1t-53 1q-35 0 -109 -2z"/>
<glyph glyph-name="eth" d="M390 764l29 -32l-105 -68q88 -72 144 -174t56 -200q0 -152 -64 -228.5t-166 -76.5t-172 65t-70 169q0 97 67 167.5t162 70.5q70 0 125 -49l2 2q-2 36 -42.5 100.5t-95.5 119.5l-114 -74l-29 32l110 71q-70 58 -135 73l19 32q84 -13 167 -72zM134 229q0 -45 14.5 -93 t50 -86.5t84.5 -38.5q47 0 80 33.5t46 77.5t13 91q0 46 -14.5 93.5t-50.5 86t-85 38.5q-46 0 -79 -33.5t-46 -77.5t-13 -91z" unicode="ð"/>
<glyph glyph-name="ntilde" d="M412 669h27q-8 -44 -30 -74t-61 -30q-27 0 -79 24q-56 23 -74 23q-36 0 -51 -47h-27q11 50 36 77t58 27q28 0 77 -21q59 -23 76 -23q21 0 30.5 10.5t17.5 33.5zM93 59v265q0 27 -11 39t-47 27v19q87 28 132 48q6 0 6 -10v-65q36 26 57 39t52.5 24.5t63.5 11.5 q115 0 115 -140v-258q0 -16 7.5 -23.5t16 -8.5t26.5 -1h18v-26q-17 0 -52.5 1t-53.5 1q-36 0 -108 -2v26h18q18 0 26 1t15 8.5t7 23.5v259q0 42 -24 63.5t-68 21.5t-116 -48v-296q0 -16 7.5 -23.5t16 -8.5t26.5 -1h18v-26q-17 0 -52.5 1t-53.5 1q-36 0 -108 -2v26h18 q18 0 26 1t15 8.5t7 23.5z" unicode="ñ"/>
<glyph glyph-name="ograve" d="M361 545h-35l-167 104q-17 10 -17 34q0 10 9.5 20t22.5 10q5 0 10.5 -2t9.5 -4t9.5 -6.5t8 -6.5t8 -8t7.5 -8zM134 229q0 -45 14.5 -93t50 -86.5t84.5 -38.5q47 0 80 33.5t46 77.5t13 91q0 46 -14.5 93.5t-50.5 86t-85 38.5q-46 0 -79 -33.5t-46 -77.5t-13 -91zM42 219 q0 99 65 168.5t164 69.5q106 0 174.5 -64.5t68.5 -169.5q0 -97 -67.5 -167.5t-162.5 -70.5q-102 0 -172 65t-70 169z" unicode="ò"/>
<glyph glyph-name="oacute" d="M221 545h-35l134 133q2 2 7.5 8t8 8t8 6.5t9.5 6.5t9.5 4t10.5 2q13 0 22.5 -10t9.5 -20q0 -24 -17 -34zM134 229q0 -45 14.5 -93t50 -86.5t84.5 -38.5q47 0 80 33.5t46 77.5t13 91q0 46 -14.5 93.5t-50.5 86t-85 38.5q-46 0 -79 -33.5t-46 -77.5t-13 -91zM42 219 q0 99 65 168.5t164 69.5q106 0 174.5 -64.5t68.5 -169.5q0 -97 -67.5 -167.5t-162.5 -70.5q-102 0 -172 65t-70 169z" unicode="ó"/>
<glyph glyph-name="ocircumflex" d="M250 713h56l122 -166h-33l-117 106l-117 -106h-33zM134 229q0 -45 14.5 -93t50 -86.5t84.5 -38.5q47 0 80 33.5t46 77.5t13 91q0 46 -14.5 93.5t-50.5 86t-85 38.5q-46 0 -79 -33.5t-46 -77.5t-13 -91zM42 219q0 99 65 168.5t164 69.5q106 0 174.5 -64.5t68.5 -169.5 q0 -97 -67.5 -167.5t-162.5 -70.5q-102 0 -172 65t-70 169z" unicode="ô"/>
<glyph glyph-name="otilde" d="M412 669h27q-8 -44 -30 -74t-61 -30q-27 0 -79 24q-56 23 -74 23q-36 0 -51 -47h-27q11 50 36 77t58 27q28 0 77 -21q59 -23 76 -23q21 0 30.5 10.5t17.5 33.5zM134 229q0 -45 14.5 -93t50 -86.5t84.5 -38.5q47 0 80 33.5t46 77.5t13 91q0 46 -14.5 93.5t-50.5 86 t-85 38.5q-46 0 -79 -33.5t-46 -77.5t-13 -91zM42 219q0 99 65 168.5t164 69.5q106 0 174.5 -64.5t68.5 -169.5q0 -97 -67.5 -167.5t-162.5 -70.5q-102 0 -172 65t-70 169z" unicode="õ"/>
<glyph glyph-name="odieresis" d="M227 610q0 -18 -14 -31.5t-32 -13.5q-19 0 -32.5 13.5t-13.5 31.5t13.5 32t32.5 14q18 0 32 -14t14 -32zM421 610q0 -18 -14 -31.5t-32 -13.5t-32 13.5t-14 31.5t14 32t32 14t32 -14t14 -32zM134 229q0 -45 14.5 -93t50 -86.5t84.5 -38.5q47 0 80 33.5t46 77.5t13 91 q0 46 -14.5 93.5t-50.5 86t-85 38.5q-46 0 -79 -33.5t-46 -77.5t-13 -91zM42 219q0 99 65 168.5t164 69.5q106 0 174.5 -64.5t68.5 -169.5q0 -97 -67.5 -167.5t-162.5 -70.5q-102 0 -172 65t-70 169z" unicode="ö"/>
<glyph glyph-name="divide" d="M212 391q0 28 19.5 47t46.5 19t46.5 -19.5t19.5 -46.5q0 -26 -19.5 -46t-46.5 -20t-46.5 19.5t-19.5 46.5zM212 51q0 28 19.5 47t47.5 19q26 0 45.5 -19.5t19.5 -46.5q0 -26 -19.5 -46t-45.5 -20q-28 0 -47.5 19.5t-19.5 46.5zM499 188h-442v66h442v-66z" unicode="÷"/>
<glyph glyph-name="oslash" d="M511 463l26 -20l-74 -70q51 -62 51 -150q0 -97 -67.5 -167.5t-162.5 -70.5q-98 0 -165 59l-77 -74l-23 23l78 74q-55 63 -55 152q0 99 65 168.5t164 69.5q104 0 170 -61zM403 316l-234 -224q41 -81 114 -81q47 0 80 33.5t46 77.5t13 91q0 49 -19 103zM154 122l235 224 q-40 85 -117 85q-46 0 -79 -33.5t-46 -77.5t-13 -91q0 -56 20 -107z" unicode="ø"/>
<glyph glyph-name="ugrave" d="M361 545h-35l-167 104q-17 10 -17 34q0 10 9.5 20t22.5 10q5 0 10.5 -2t9.5 -4t9.5 -6.5t8 -6.5t8 -8t7.5 -8zM461 424v-369q0 -9 4 -13t9 -5t15 -1q6 0 19.5 0.5t20.5 0.5v-21q-65 -6 -144 -31l-5 3v81q-54 -44 -91.5 -64t-85.5 -20q-45 0 -77.5 30t-32.5 89v256 q0 16 -3 25.5t-17 19t-40 11.5v19q20 1 71.5 4t57.5 3q8 0 9.5 -5.5t1.5 -23.5v-258q0 -116 87 -116q48 0 121 61v269q0 18 -74 38q-7 2 -10 3v18q39 3 76.5 6.5t57 5.5t22.5 2q8 0 8 -18z" unicode="ù"/>
<glyph glyph-name="uacute" d="M239 545h-35l134 133q2 2 7.5 8t8 8t8 6.5t9.5 6.5t9.5 4t10.5 2q13 0 22.5 -10t9.5 -20q0 -24 -17 -34zM461 424v-369q0 -9 4 -13t9 -5t15 -1q6 0 19.5 0.5t20.5 0.5v-21q-65 -6 -144 -31l-5 3v81q-54 -44 -91.5 -64t-85.5 -20q-45 0 -77.5 30t-32.5 89v256 q0 16 -3 25.5t-17 19t-40 11.5v19q20 1 71.5 4t57.5 3q8 0 9.5 -5.5t1.5 -23.5v-258q0 -116 87 -116q48 0 121 61v269q0 18 -74 38q-7 2 -10 3v18q39 3 76.5 6.5t57 5.5t22.5 2q8 0 8 -18z" unicode="ú"/>
<glyph glyph-name="ucircumflex" d="M232 713h56l122 -166h-33l-117 106l-117 -106h-33zM461 424v-369q0 -9 4 -13t9 -5t15 -1q6 0 19.5 0.5t20.5 0.5v-21q-65 -6 -144 -31l-5 3v81q-54 -44 -91.5 -64t-85.5 -20q-45 0 -77.5 30t-32.5 89v256q0 16 -3 25.5t-17 19t-40 11.5v19q20 1 71.5 4t57.5 3 q8 0 9.5 -5.5t1.5 -23.5v-258q0 -116 87 -116q48 0 121 61v269q0 18 -74 38q-7 2 -10 3v18q39 3 76.5 6.5t57 5.5t22.5 2q8 0 8 -18z" unicode="û"/>
<glyph glyph-name="udieresis" d="M209 610q0 -18 -14 -31.5t-32 -13.5q-19 0 -32.5 13.5t-13.5 31.5t13.5 32t32.5 14q18 0 32 -14t14 -32zM403 610q0 -18 -14 -31.5t-32 -13.5t-32 13.5t-14 31.5t14 32t32 14t32 -14t14 -32zM461 424v-369q0 -9 4 -13t9 -5t15 -1q6 0 19.5 0.5t20.5 0.5v-21 q-65 -6 -144 -31l-5 3v81q-54 -44 -91.5 -64t-85.5 -20q-45 0 -77.5 30t-32.5 89v256q0 16 -3 25.5t-17 19t-40 11.5v19q20 1 71.5 4t57.5 3q8 0 9.5 -5.5t1.5 -23.5v-258q0 -116 87 -116q48 0 121 61v269q0 18 -74 38q-7 2 -10 3v18q39 3 76.5 6.5t57 5.5t22.5 2q8 0 8 -18 z" unicode="ü"/>
<glyph glyph-name="yacute" horiz-adv-x="500" unicode="ý" d="M217 545h-35l134 133q2 2 7.5 8t8 8t8 6.5t9.5 6.5t9.5 4t10.5 2q13 0 22.5 -10t9.5 -20q0 -24 -17 -34zM17 416v26q78 -2 116 -2q15 0 45 1t45 1v-26q-2 0 -10.5 -1t-12.5 -1.5t-11.5 -2t-11 -4t-6.5 -7.5t-3 -11q0 -16 48.5 -135t52.5 -134h2q7 21 33.5 82t46 110.5 t19.5 61.5q0 19 -10 29t-19.5 11.5t-26.5 1.5v26q62 -2 94 -2q25 0 75 2v-26h-2q-31 0 -45.5 -15t-31.5 -49l-226 -530q-21 -50 -64 -50q-22 0 -35.5 14t-13.5 34q0 19 14 34.5t34 15.5q25 0 41 -15q22 46 39.5 86.5t24.5 57.5l6 17q0 1 -33.5 86.5t-69.5 176t-41 100.5 q-21 37 -55 37h-8z"/>
<glyph glyph-name="thorn" d="M179 358v-272q37 -69 107 -69q68 0 108 57.5t40 128.5q0 77 -44.5 132.5t-121.5 55.5q-44 0 -89 -33zM19 -228v26h38q42 0 42 32v786q0 32 -6.5 47.5t-14.5 19.5t-32 11v16q13 5 33 12l30 10.5t23.5 10t25.5 13.5q13 8 14 8q7 0 7 -14v-367q82 74 151 74q80 0 132 -65 t52 -148q0 -104 -72 -181.5t-174 -77.5q-48 0 -89 19v-182q0 -11 8 -16.5t16 -6.5t23 -1h45v-26q-86 2 -128 2t-124 -2z" unicode="þ"/>
<glyph glyph-name="OE" horiz-adv-x="1000" unicode="Œ" d="M645 666v-284h132q40 0 54 16t14 70h21q-2 -72 -2 -112t2 -100h-20q0 46 -13.5 65.5t-61.5 19.5h-126v-216q0 -64 23.5 -78.5t100.5 -14.5q39 0 59 1t45.5 7t39 19t27 36t22.5 58l22 -5q-1 -7 -14 -62.5t-17 -85.5q-33 0 -98.5 1t-98.5 1q-82 0 -192.5 -8.5t-141.5 -8.5 q-158 0 -261 100t-103 259q0 152 102.5 260.5t252.5 108.5q30 0 90.5 -6t63.5 -6q70 -5 175 -5q69 0 185 2q0 -86 10 -146l-24 -3q-12 67 -39 92t-92 25h-137zM547 160v373q0 39 -3.5 61.5t-16 44.5t-40 32t-71.5 10q-61 0 -110 -30t-78 -78.5t-44.5 -104.5t-15.5 -114 q0 -85 27.5 -159.5t89 -126t145.5 -51.5q70 0 93.5 34t23.5 109z"/>
<glyph glyph-name="oe" horiz-adv-x="778" unicode="œ" d="M468 308h175q27 0 27 25q0 40 -22.5 66t-63.5 26q-45 0 -75.5 -31t-40.5 -86zM134 228q0 -33 7 -67t21 -68t41 -55t62 -21q38 0 64.5 20.5t39 54t17.5 66t5 68.5q0 34 -6 66t-19.5 63.5t-40 50.5t-63.5 19q-47 0 -77 -34t-40.5 -75.5t-10.5 -87.5zM745 112l14 -14 q-81 -113 -186 -113q-90 0 -152 89q-68 -89 -167 -89q-96 0 -154 71t-58 170q0 95 60.5 163t163.5 68q108 0 170 -74q64 74 150 74q66 0 117.5 -41.5t52.5 -115.5q0 -12 -1 -18l-9 -6h-281q-1 -4 -1 -20q0 -21 1 -38q5 -72 46.5 -122.5t100.5 -50.5q64 0 133 67z"/>
<glyph glyph-name="Scaron" horiz-adv-x="500" unicode="Š" d="M278 740h-56l-122 166h33l117 -106l117 106h33zM66 19l-20 146h23q14 -61 55.5 -104.5t100.5 -43.5t98 37t39 96q0 38 -16.5 66.5t-42.5 47t-57.5 34.5t-63 34.5t-57.5 41t-42.5 59t-16.5 84.5q0 94 59.5 145t154.5 51q22 0 122 -15l16 -128h-23q-8 53 -41.5 82t-87.5 29 q-56 0 -88 -36t-32 -92q0 -43 23 -75.5t57 -50.5t74 -40t74 -43.5t57 -61.5t23 -94q0 -93 -70.5 -148t-164.5 -55q-80 0 -153 34z"/>
<glyph glyph-name="scaron" horiz-adv-x="389" unicode="š" d="M223 547h-56l-122 166h33l117 -106l117 106h33zM42 134l18 5q11 -54 42.5 -88t83.5 -34q41 0 61 20.5t20 50.5q0 32 -22.5 54t-54.5 36t-64 30t-54.5 46.5t-22.5 74.5q0 49 39.5 88.5t115.5 39.5q57 0 114 -29l7 -102h-23q-16 99 -109 99q-32 0 -55 -17.5t-23 -48.5 q0 -32 24 -54t58 -36t68 -29.5t58 -45.5t24 -73q0 -55 -44.5 -95.5t-127.5 -40.5q-63 0 -122 34z"/>
<glyph glyph-name="Ydieresis" horiz-adv-x="722" unicode="Ÿ" d="M320 803q0 -18 -14 -31.5t-32 -13.5q-19 0 -32.5 13.5t-13.5 31.5t13.5 32t32.5 14q18 0 32 -14t14 -32zM514 803q0 -18 -14 -31.5t-32 -13.5t-32 13.5t-14 31.5t14 32t32 14t32 -14t14 -32zM424 356v-258q0 -25 6 -40.5t20.5 -21.5t27 -8t37.5 -2v-26q-100 2 -142 2 q-44 0 -138 -2v26q25 0 37.5 2t27 8t20.5 21.5t6 40.5v242l-209 288q-21 29 -33.5 34.5t-59.5 9.5v26q38 -2 139 -2q21 0 61 1t61 1v-26q-56 0 -56 -21q0 -15 33 -62l140 -197l131 179q2 2 8.5 11.5t10.5 15t9.5 14.5t8 16.5t2.5 14.5q0 20 -14 24.5t-57 4.5v26 q76 -2 115 -2q13 0 40.5 1t41.5 1v-26q-20 0 -36 -10t-24 -19t-23 -29z"/>
<glyph glyph-name="circumflex" horiz-adv-x="278" unicode="ˆ" d="M111 713h56l122 -166h-33l-117 106l-117 -106h-33z"/>
<glyph glyph-name="tilde" horiz-adv-x="278" unicode="˜" d="M273 669h27q-8 -44 -30 -74t-61 -30q-27 0 -79 24q-56 23 -74 23q-36 0 -51 -47h-27q11 50 36 77t58 27q28 0 77 -21q59 -23 76 -23q21 0 30.5 10.5t17.5 33.5z"/>
<glyph glyph-name="uni03BC" d="M461 424v-369q0 -9 4 -13t9 -5t15 -1q6 0 19.5 0.5t20.5 0.5v-21q-65 -6 -144 -31l-5 3v81q-54 -44 -91.5 -64t-85.5 -20q-32 0 -54 21q0 -41 7 -98.5t7 -75.5v-8q-2 -52 -46 -52q-40 0 -40 52q0 16 8 114.5t8 166.5v255q0 16 -3 25.5t-17 19t-40 11.5v19q20 1 71.5 4 t57.5 3q8 0 9.5 -5.5t1.5 -23.5v-258q0 -116 87 -116q48 0 121 61v269q0 18 -74 38q-7 2 -10 3v18q39 3 76.5 6.5t57 5.5t22.5 2q8 0 8 -18z" unicode="μ"/>
<glyph glyph-name="pi" horiz-adv-x="560" unicode="π" d="M508 475l23 -9q-10 -45 -35 -83q-21 -4 -70 -4q-4 -44 -4 -176v-69q0 -93 45 -93q25 0 51 32l13 -18q-36 -67 -99 -67q-41 0 -63 28t-22 99q0 119 11 267q-120 2 -164 2v-21q0 -104 -14.5 -189.5t-28 -121t-23.5 -47.5q-36 -16 -57 -17l-6 16q50 61 71.5 170t21.5 211h-5 q-31 0 -55 -7.5t-35.5 -15t-33.5 -25.5l-14 21q1 2 11 13t13.5 15t14 14t17.5 14.5t20 11.5t25 10.5t28.5 6t34.5 2.5h3q33 0 123 -2q92 -2 143 -2q23 0 35.5 6.5t24.5 27.5z"/>
<glyph glyph-name="endash" horiz-adv-x="500" unicode="–" d="M0 211v66h500v-66h-500z"/>
<glyph glyph-name="emdash" horiz-adv-x="1000" unicode="—" d="M0 211v66h1000v-66h-1000z"/>
<glyph glyph-name="quoteleft" horiz-adv-x="278" unicode="‘" d="M201 698l10 -24q-96 -31 -96 -98q0 -27 13 -34.5t37 -7.5t37.5 -10.5t13.5 -41.5q0 -26 -17 -39t-44 -13q-44 0 -68.5 32.5t-24.5 77.5q0 60 38.5 100t100.5 58z"/>
<glyph glyph-name="quotesinglbase" horiz-adv-x="278" unicode="‚" d="M77 -153l-10 24q96 31 96 98q0 27 -13 34.5t-37 7.5t-37.5 10.5t-13.5 41.5q0 26 17 39t44 13q44 0 68.5 -32.5t24.5 -77.5q0 -60 -38.5 -100t-100.5 -58z"/>
<glyph glyph-name="quotedblleft" d="M442 698l10 -24q-96 -31 -96 -98q0 -27 13 -34.5t37 -7.5t37.5 -10.5t13.5 -41.5q0 -26 -17 -39t-44 -13q-44 0 -68.5 32.5t-24.5 77.5q0 60 38.5 100t100.5 58zM238 698l10 -24q-96 -31 -96 -98q0 -27 13 -34.5t37 -7.5t37.5 -10.5t13.5 -41.5q0 -26 -17 -39t-44 -13 q-44 0 -68.5 32.5t-24.5 77.5q0 60 38.5 100t100.5 58z" unicode="“"/>
<glyph glyph-name="quotedblright" d="M114 430l-10 24q96 31 96 98q0 27 -13 34.5t-37 7.5t-37.5 10.5t-13.5 41.5q0 26 17 39t44 13q44 0 68.5 -32.5t24.5 -77.5q0 -60 -38.5 -100t-100.5 -58zM318 430l-10 24q96 31 96 98q0 27 -13 34.5t-37 7.5t-37.5 10.5t-13.5 41.5q0 26 17 39t44 13q44 0 68.5 -32.5 t24.5 -77.5q0 -60 -38.5 -100t-100.5 -58z" unicode="”"/>
<glyph glyph-name="dagger" d="M307 532v-84h39q93 0 150 7q-3 -17 -3 -33q1 -16 3 -31q-105 10 -189 10v-161q0 -78 3 -227t4 -194h-2q-27 3 -34 3q-8 0 -35 -3h-2q1 45 4 194t3 227v161q-84 0 -189 -10q2 15 3 31q0 16 -3 33q41 -4 68 -5q50 -2 82 -2h39v84q0 71 -7 169q2 0 16 -1.5t21 -1.5l36 3 q-7 -98 -7 -169z" unicode="†"/>
<glyph glyph-name="daggerdbl" d="M248 81v62q0 80 -11 111v2q11 35 11 103v72q-70 0 -185 -7q2 20 2 32q0 11 -2 31q117 -9 185 -9v22q0 54 -7 201q21 -3 38 -3q5 0 35 3q-7 -147 -7 -201v-22q68 0 185 9q-2 -20 -2 -31q0 -12 2 -32q-116 7 -185 7v-72q0 -68 11 -103v-2q-11 -32 -11 -106v-67q68 0 185 9 q-2 -20 -2 -31q0 -12 2 -32q-115 7 -185 7q0 -45 7 -215q-6 0 -17 1.5t-16 1.5q-1 0 -40 -3q7 170 7 215q-70 0 -185 -7q2 20 2 32q0 11 -2 31q117 -9 185 -9z" unicode="‡"/>
<glyph glyph-name="ellipsis" horiz-adv-x="1000" unicode="…" d="M168 -15q-27 0 -46.5 19t-19.5 46q0 26 20 46.5t46 20.5t46 -20t20 -47t-19.5 -46t-46.5 -19zM500 -15q-27 0 -46.5 19t-19.5 46q0 26 20 46.5t46 20.5t46 -20t20 -47t-19.5 -46t-46.5 -19zM832 -15q-27 0 -46.5 19t-19.5 46q0 26 20 46.5t46 20.5t46 -20t20 -47 t-19.5 -46t-46.5 -19z"/>
<glyph glyph-name="perthousand" horiz-adv-x="1000" unicode="‰" d="M129 -24h-46l453 738h46zM891 151q0 25 -1.5 41t-7.5 40t-21 36.5t-39 12.5q-71 0 -71 -140q0 -25 1.5 -41t7.5 -40t21 -36.5t39 -12.5q71 0 71 140zM965 149q0 -71 -40.5 -117.5t-106.5 -46.5q-68 0 -104.5 45.5t-36.5 112.5q0 71 40.5 117.5t106.5 46.5 q68 0 104.5 -45.5t36.5 -112.5zM559 151q0 25 -1.5 41t-7.5 40t-21 36.5t-39 12.5q-71 0 -71 -140q0 -25 1.5 -41t7.5 -40t21 -36.5t39 -12.5q71 0 71 140zM633 149q0 -71 -40.5 -117.5t-106.5 -46.5q-68 0 -104.5 45.5t-36.5 112.5q0 71 40.5 117.5t106.5 46.5 q68 0 104.5 -45.5t36.5 -112.5zM249 549q0 25 -1.5 41t-7.5 40t-21 36.5t-39 12.5q-71 0 -71 -140q0 -25 1.5 -41t7.5 -40t21 -36.5t39 -12.5q71 0 71 140zM323 547q0 -71 -40.5 -117.5t-106.5 -46.5q-68 0 -104.5 45.5t-36.5 112.5q0 71 40.5 117.5t106.5 46.5 q68 0 104.5 -45.5t36.5 -112.5z"/>
<glyph glyph-name="guilsinglleft" horiz-adv-x="278" unicode="‹" d="M47 244l167 163l17 -14l-104 -149l104 -149l-17 -14z"/>
<glyph glyph-name="guilsinglright" horiz-adv-x="278" unicode="›" d="M231 244l-167 -163l-17 14l104 149l-104 149l17 14z"/>
<glyph glyph-name="fraction" horiz-adv-x="167" unicode="⁄" d="M-119 -23h-46l451 736h46z"/>
<glyph glyph-name="Euro" d="M28 292h55q-2 34 -2 52v26h-61l8 41h57q11 79 43 145t92 111.5t137 45.5q89 0 169 -41l10 -143h-25q-26 152 -149 152q-32 0 -62 -13t-59.5 -42t-49.5 -84.5t-25 -130.5h288l-8 -41h-281q0 -35 5 -78h259l-8 -41h-245q19 -99 70 -162t136 -63q83 0 146 58l16 -19 q-34 -36 -84 -58t-102 -22q-114 0 -181.5 75t-87.5 191h-69z" unicode="€"/>
<glyph glyph-name="trademark" horiz-adv-x="990" unicode="™" d="M666 294l-149 304h-2v-219q0 -34 10 -47.5t43 -17.5v-20h-131v20q32 4 42 17.5t10 47.5v249q-9 22 -28 35.5t-41 13.5v21h121l154 -309l160 309h103v-21q-30 -1 -41.5 -14t-11.5 -40v-270q0 -23 7.5 -28.5t41.5 -10.5v-20h-172v20q34 5 41.5 10.5t7.5 28.5v247h-2 l-152 -306h-11zM241 678v-325q0 -23 7.5 -28.5t41.5 -10.5v-20h-172v20q34 5 41.5 10.5t7.5 28.5v325h-48q-52 0 -67 -68h-20v88h344v-88h-20q-15 68 -66 68h-49z"/>
<glyph glyph-name="partialdiff" horiz-adv-x="523" unicode="∂" d="M280 394h-1q-68 0 -113 -60q-45 -68 -45 -184q0 -57 28 -95.5t74 -38.5q73 0 120 106q33 71 50 195q-12 26 -43.5 51.5t-69.5 25.5zM260 431h2q37 0 75.5 -19t62.5 -54q7 77 7 106v15q0 78 -27 146q-17 41 -54 72.5t-82 31.5q-68 0 -135 -56h-1q-10 0 -19.5 15t-9.5 31 q0 5 2 11q65 42 139 42q129 0 203 -142q48 -95 48 -233q0 -151 -47 -256q-69 -154 -200 -154q-82 0 -131 54.5t-49 148.5q0 97 58 166q27 33 70 54t88 21z"/>
<glyph glyph-name="product" horiz-adv-x="675" unicode="∏" d="M647 695v-24q-64 -5 -77.5 -15t-13.5 -50v-594q0 -46 14 -58.5t75 -16.5v-24h-248v24q60 4 72.5 15t12.5 60v620q0 21 -6.5 26.5t-28.5 5.5h-221q-21 0 -27 -5t-6 -23v-624q0 -47 10.5 -58.5t66.5 -16.5v-24h-240v24q60 5 74 16.5t14 58.5v594q0 40 -14 50t-77 15v24h620 z"/>
<glyph glyph-name="summation" horiz-adv-x="549" unicode="∑" d="M524 91l-42 -181h-453v22l225 355l-220 386v22h448q0 -8 2.5 -33t5.5 -62t5 -63l-26 -5q-11 67 -31 102q-10 18 -30 24.5t-74 6.5h-203l191 -329l-224 -359h263q66 0 87.5 18t50.5 103z"/>
<glyph glyph-name="minus" d="M499 188h-442v66h442v-66z" unicode="−"/>
<glyph glyph-name="radical" horiz-adv-x="546" unicode="√" d="M527 894l-163 -1038l-19 -11l-218 554l-86 -42l-11 31l148 70l173 -453h2l138 898z"/>
<glyph glyph-name="infinity" horiz-adv-x="752" unicode="∞" d="M555 392h-1q-18 0 -36 -7t-35.5 -21.5t-28 -24.5t-27.5 -29.5t-21 -23.5q53 -59 84 -82.5t67 -23.5q43 0 69 32t26 72q0 49 -27 78.5t-70 29.5zM201 180h1q11 0 22.5 3t20 6.5t21 12t18 12.5t18.5 17t16 16.5t16.5 18.5t14.5 16q-30 38 -45 55t-46 36t-63 19 q-43 0 -69 -31t-26 -76t28 -75t73 -30zM703 288v-1q0 -69 -44.5 -112.5t-104.5 -43.5q-44 0 -84.5 27t-92.5 88q-48 -56 -89 -85.5t-94 -29.5q-60 0 -103 44t-43 109q0 67 43.5 111t109.5 44q50 0 92 -30t87 -84q57 63 84 82q45 32 96 32q63 0 103 -42t40 -109z"/>
<glyph glyph-name="approxequal" horiz-adv-x="540" unicode="≈" d="M464 261l33 -29q-49 -93 -126 -93q-19 0 -38 5.5t-32.5 12t-41.5 22.5q-58 33 -88 33q-31 0 -52.5 -19t-43.5 -54l-34 28q22 43 58 68.5t77 25.5q14 0 26.5 -2.5t25 -7.5t19.5 -8.5t20 -10.5t16 -9q2 -1 14.5 -8.5t15.5 -9t13 -6t15.5 -6t14.5 -3t17 -1.5q28 0 48.5 17 t42.5 55zM464 427l33 -29q-49 -93 -126 -93q-27 0 -49.5 9t-62.5 31q-53 33 -88 33q-30 0 -51.5 -18.5t-44.5 -53.5l-34 28q22 43 58 68t78 25q13 0 25.5 -2t25.5 -7.5t19.5 -8.5t21 -11t15.5 -9q3 -2 13.5 -7.5t13.5 -7.5t11.5 -6t13 -5.5t11 -4t13 -3t13.5 -0.5 q49 0 91 72z"/>
<glyph glyph-name="notequal" horiz-adv-x="540" unicode="≠" d="M385 495l-42 -93h148v-51h-168l-64 -139h232v-51h-252l-51 -113l-41 18l43 95h-141v51h162l63 139h-225v51h245l51 111z"/>
<glyph glyph-name="lessequal" horiz-adv-x="540" unicode="≤" d="M491 9h-442v52h442v-52zM489 100l-435 219v53l434 219v-61l-380 -183v-2l381 -185v-60z"/>
<glyph glyph-name="greaterequal" horiz-adv-x="540" unicode="≥" d="M490 9h-440v52h440v-52zM55 591l434 -219v-53l-434 -219v60l380 185v2l-380 183v61z"/>
<glyph glyph-name="lozenge" horiz-adv-x="553" unicode="◊" d="M446 335l-167 351h-3l-169 -349l169 -351h3zM504 335l-198 -404h-59l-198 404l199 408h58z"/>
</font>
</defs>
</svg>
